<svg xmlns="http://www.w3.org/2000/svg" width="270.7" height="57" viewBox="0 0 270.7 57"><title>logo</title><g style="isolation:isolate"><g id="Livello_1" data-name="Livello 1"><text transform="translate(59.4 36.2)" style="font-size:23px;fill:#fff;font-family:Gotham-Medium, Gotham;letter-spacing:-0.006007982336956522em">F<tspan x="14.9" y="0" style="letter-spacing:0.00002122961956521739em">ORCE </tspan></text><text transform="translate(145 36.2)" style="font-size:23px;fill:#fff;font-family:Gotham-Light, Gotham">NET<tspan x="48.5" y="0" style="letter-spacing:-0.034986413043478264em">W</tspan><tspan x="73" y="0">ORK</tspan></text><g id="logo"><g style="opacity:0;mix-blend-mode:multiply"><path d="M601.2,430.5a3.9,3.9,0,0,0-3.9,3.9.9.9,0,0,0,.1.5l-15.1,8.7a4.3,4.3,0,0,0-2.4-.8,3.8,3.8,0,0,0-3.9,3.9h0a3.8,3.8,0,0,0,2.4,3.6v16.4a4,4,0,0,0-2.2,5,3.2,3.2,0,0,0,1.4,1.8,3.8,3.8,0,0,0,4.1.3l15.7,9.2a1.3,1.3,0,0,0-.1.6,3.9,3.9,0,0,0,3.9,3.9h0a3.8,3.8,0,0,0,3.9-3.9h0a3.3,3.3,0,0,0-.4-1.7l16.5-9.6a1.6,1.6,0,0,0,1.3.6,1.7,1.7,0,0,0,1.7-1.6,1.8,1.8,0,0,0-1.4-1.7V448.3a1.7,1.7,0,0,0-.3-3.3,1.7,1.7,0,0,0-1.2.5L604.7,436a3.2,3.2,0,0,0,.4-1.6A3.8,3.8,0,0,0,601.2,430.5Zm3.4,6.2,16.5,9.5a1.3,1.3,0,0,0,0,1l-7.8,4.5a1.6,1.6,0,0,0-1.2-.5h-.5l-7.9-13.6A2.6,2.6,0,0,0,604.6,436.7Zm-5.7.7.3.2-7.9,13.7h-.5a2.1,2.1,0,0,0-1.2.5l-5.9-3.5a3.7,3.7,0,0,0,.3-1.5v-.6Zm.8.6a2.7,2.7,0,0,0,1.2.3v16.8a3.7,3.7,0,0,0-2.7,1.6l-5.9-3.4v-.5a1.8,1.8,0,0,0-.5-1.2Zm3.5,0,7.9,13.6a1.8,1.8,0,0,0-.5,1.2v.5l-5.9,3.4a3.7,3.7,0,0,0-2.7-1.6V438.3Zm18.2,9.8h.1l-5.5,9.5h-.9l-1.9-3.4a1.7,1.7,0,0,0,.5-1.2.9.9,0,0,0-.1-.5Zm.9.5v21.3h0l-5.5-9.4a1.8,1.8,0,0,0,.5-1.2,1.6,1.6,0,0,0-.6-1.3l5.5-9.4Zm-38.9.6,5.8,3.4a4.3,4.3,0,0,1-.1.5,1.8,1.8,0,0,0,.6,1.3l-2,3.3h-.9l-4.3-7.6Zm-1.4,1.3,4.3,7.5a1.9,1.9,0,0,0-.5,1.3,1.5,1.5,0,0,0,.5,1.2l-4,6.8-.7-.3V450.3Zm28.8,3.7a1.6,1.6,0,0,0,1.3.6h.5l1.9,3.3a1.8,1.8,0,0,0-.6,1.3,2.1,2.1,0,0,0,.5,1.2l-1.9,3.3h-.4a1.7,1.7,0,0,0-1.2.5l-5.9-3.4a4,4,0,0,0,.3-1.5,3.3,3.3,0,0,0-.4-1.7Zm-18.7,0,5.9,3.4a3.3,3.3,0,0,0-.4,1.7v.5l-7.2,4.1-2-3.4a1.6,1.6,0,0,0,.5-1.2,1.9,1.9,0,0,0-.5-1.3l1.9-3.3h.5A1.6,1.6,0,0,0,592.1,453.9Zm-4.3,6.6,2,3.5-6.7,3.8-.3-.3,4-7h1Zm27.3,0h1l5.5,9.4h-.1l-7.8-4.5v-.4a1.7,1.7,0,0,0-.5-1.2Zm-10.3.7,5.9,3.3a1.3,1.3,0,0,0-.1.6,1.8,1.8,0,0,0,.5,1.2L603.2,480l-1.2-.3V462.8A3.9,3.9,0,0,0,604.8,461.2Zm-6,.7a4,4,0,0,0,2.1.9v16.9a2.7,2.7,0,0,0-1.2.3l-8.1-14Zm14.5,4.3,7.8,4.4c0,.2-.1.4-.1.6s0,.3.1.4l-16.6,9.6-.9-.9,7.9-13.6h.6a1.7,1.7,0,0,0,1.2-.6Zm-22.1.2,8,14H599l-15.2-8.9a3.6,3.6,0,0,0,.2-1.1Z" transform="translate(-576 -430.5)" style="fill:gray"/></g><path d="M601.2,430.5a3.9,3.9,0,0,0-3.9,3.9.9.9,0,0,0,.1.5l-15.1,8.7a4.3,4.3,0,0,0-2.4-.8,3.8,3.8,0,0,0-3.9,3.9h0a3.8,3.8,0,0,0,2.4,3.6v16.4a4,4,0,0,0-2.2,5,3.2,3.2,0,0,0,1.4,1.8,3.8,3.8,0,0,0,4.1.3l15.7,9.2a1.3,1.3,0,0,0-.1.6,3.9,3.9,0,0,0,3.9,3.9h0a3.8,3.8,0,0,0,3.9-3.9h0a3.3,3.3,0,0,0-.4-1.7l16.5-9.6a1.6,1.6,0,0,0,1.3.6,1.7,1.7,0,0,0,1.7-1.6,1.8,1.8,0,0,0-1.4-1.7V448.3a1.7,1.7,0,0,0-.3-3.3,1.7,1.7,0,0,0-1.2.5L604.7,436a3.2,3.2,0,0,0,.4-1.6A3.8,3.8,0,0,0,601.2,430.5Zm3.4,6.2,16.5,9.5a1.3,1.3,0,0,0,0,1l-7.8,4.5a1.6,1.6,0,0,0-1.2-.5h-.5l-7.9-13.6A2.6,2.6,0,0,0,604.6,436.7Zm-5.7.7.3.2-7.9,13.7h-.5a2.1,2.1,0,0,0-1.2.5l-5.9-3.5a3.7,3.7,0,0,0,.3-1.5v-.6Zm.8.6a2.7,2.7,0,0,0,1.2.3v16.8a3.7,3.7,0,0,0-2.7,1.6l-5.9-3.4v-.5a1.8,1.8,0,0,0-.5-1.2Zm3.5,0,7.9,13.6a1.8,1.8,0,0,0-.5,1.2v.5l-5.9,3.4a3.7,3.7,0,0,0-2.7-1.6V438.3Zm18.2,9.8h.1l-5.5,9.5h-.9l-1.9-3.4a1.7,1.7,0,0,0,.5-1.2.9.9,0,0,0-.1-.5Zm.9.5v21.3h0l-5.5-9.4a1.8,1.8,0,0,0,.5-1.2,1.6,1.6,0,0,0-.6-1.3l5.5-9.4Zm-38.9.6,5.8,3.4a4.3,4.3,0,0,1-.1.5,1.8,1.8,0,0,0,.6,1.3l-2,3.3h-.9l-4.3-7.6Zm-1.4,1.3,4.3,7.5a1.9,1.9,0,0,0-.5,1.3,1.5,1.5,0,0,0,.5,1.2l-4,6.8-.7-.3V450.3Zm28.8,3.7a1.6,1.6,0,0,0,1.3.6h.5l1.9,3.3a1.8,1.8,0,0,0-.6,1.3,2.1,2.1,0,0,0,.5,1.2l-1.9,3.3h-.4a1.7,1.7,0,0,0-1.2.5l-5.9-3.4a4,4,0,0,0,.3-1.5,3.3,3.3,0,0,0-.4-1.7Zm-18.7,0,5.9,3.4a3.3,3.3,0,0,0-.4,1.7v.5l-7.2,4.1-2-3.4a1.6,1.6,0,0,0,.5-1.2,1.9,1.9,0,0,0-.5-1.3l1.9-3.3h.5A1.6,1.6,0,0,0,592.1,453.9Zm-4.3,6.6,2,3.5-6.7,3.8-.3-.3,4-7h1Zm27.3,0h1l5.5,9.4h-.1l-7.8-4.5v-.4a1.7,1.7,0,0,0-.5-1.2Zm-10.3.7,5.9,3.3a1.3,1.3,0,0,0-.1.6,1.8,1.8,0,0,0,.5,1.2L603.2,480l-1.2-.3V462.8A3.9,3.9,0,0,0,604.8,461.2Zm-6,.7a4,4,0,0,0,2.1.9v16.9a2.7,2.7,0,0,0-1.2.3l-8.1-14Zm14.5,4.3,7.8,4.4c0,.2-.1.4-.1.6s0,.3.1.4l-16.6,9.6-.9-.9,7.9-13.6h.6a1.7,1.7,0,0,0,1.2-.6Zm-22.1.2,8,14H599l-15.2-8.9a3.6,3.6,0,0,0,.2-1.1Z" transform="translate(-576 -430.5)" style="fill:#fff"/></g></g></g></svg>