<svg xmlns="http://www.w3.org/2000/svg" xmlns:xlink="http://www.w3.org/1999/xlink" viewBox="0 0 163.4 193.2">
  <defs>
    <radialGradient id="Sfumatura_senza_nome_53" data-name="Sfumatura senza nome 53" cx="-17.07" cy="580.91" r="61.67" gradientTransform="translate(99.6 -306.1) scale(0.7)" gradientUnits="userSpaceOnUse">
      <stop offset="0" stop-color="#fff" stop-opacity="0"/>
      <stop offset="0.52" stop-color="#555c71" stop-opacity="0.33"/>
      <stop offset="1" stop-color="#000b2a" stop-opacity="0.5"/>
    </radialGradient>
  </defs>
  <title>c3</title>
  <g id="Livello_2" data-name="Livello 2">
    <g id="A_PARADIGM_SHIFT" data-name="A PARADIGM SHIFT">
      <g id="main_icon">
        <g>
          <g id="logo_shadow" style="opacity: 0.8">
            <path d="M158.6,132.7V60.5a5.8,5.8,0,0,0-.9-11.5,6,6,0,0,0-4.1,1.6L97.9,18.7a12.9,12.9,0,0,0,1-6.5,13.4,13.4,0,0,0-26.8,1.3,22.8,22.8,0,0,0,.2,2.6L22.6,44.9a13.7,13.7,0,0,0-10.8-3.5A13.6,13.6,0,0,0,.1,53.3a13.4,13.4,0,0,0,8.5,14v55.6a13.5,13.5,0,0,0,3.4,26,13.3,13.3,0,0,0,9.6-2.7l50.8,30.5a15.3,15.3,0,0,0-.3,3,13.4,13.4,0,0,0,14.8,13.4,13.6,13.6,0,0,0,12-11.6,13.1,13.1,0,0,0-1.2-7.4l55.4-32.2a5.4,5.4,0,0,0,5,2.2,5.7,5.7,0,0,0,.5-11.4Zm-62.4,39a13.2,13.2,0,0,0-10.7-5.4,13.9,13.9,0,0,0-8.6,3.1L26.4,139a13.7,13.7,0,0,0-9.2-16.4v-55a13.3,13.3,0,0,0,9.6-12.8,8.6,8.6,0,0,0-.2-2.3l50.1-29a13,13,0,0,0,8.8,3.4,13.4,13.4,0,0,0,11-5.7L152.1,53a11,11,0,0,0-.2,1.8,5.8,5.8,0,0,0,3.8,5.4V133a5.8,5.8,0,0,0-3.8,5.4v.9Z" style="fill: #09c57c"/>
          </g>
          <path id="path6463" d="M87.7,144.2S46.5,127.9,46.5,66.8c20.5,0,24.7-12.2,41.2-12.2s20.8,12.2,41.2,12.2C128.9,128.1,87.7,144.2,87.7,144.2Z" style="fill-opacity: 0.31;stroke: #09c57c;stroke-miterlimit: 10;stroke-width: 3px;fill: url(#Sfumatura_senza_nome_53)"/>
          <path id="path6445" d="M87.1,83.4A11.9,11.9,0,0,0,78,87.6h-.4a5.5,5.5,0,0,0-5.5,5.2,8.1,8.1,0,0,0-4,8.1,8.2,8.2,0,0,0,8.3,7.2H97.8a8.3,8.3,0,0,0,8.4-7,8.1,8.1,0,0,0-7.5-9.3,12.3,12.3,0,0,0-11.6-8.3Zm0,3.2a9.7,9.7,0,0,1,9.3,7.2l.3,1.1h1.4a5.4,5.4,0,0,1,5.4,5.8,5.6,5.6,0,0,1-5.6,5.1H76.4a5.4,5.4,0,0,1-2.3-10.5l.9-.4v-1a.8.8,0,0,1-.1-.4,2.7,2.7,0,0,1,2.8-2.7h.6l.8.2.6-.7a9.3,9.3,0,0,1,7.5-3.7Zm.2,4A4.2,4.2,0,0,0,83,94.7a4.1,4.1,0,0,0,2.9,3.8v4.4h2.9V98.5a4.1,4.1,0,0,0,2.8-3.8,4.2,4.2,0,0,0-4.3-4.1Zm-.2,2.6a1.4,1.4,0,0,1,1.4,1.4,1.3,1.3,0,0,1-1.4,1.3,1.3,1.3,0,0,1-1.3-1.3A1.3,1.3,0,0,1,87.1,93.2Z" style="fill: #09b190"/>
        </g>
      </g>
    </g>
  </g>
</svg>
