<svg xmlns="http://www.w3.org/2000/svg" viewBox="0 0 129.3 133.3">
  <title>cfeature4</title>
  <g id="Livello_2" data-name="Livello 2">
    <g id="REVENUE_SHARING" data-name="REVENUE SHARING">
      <g>
        <g>
          <polygon points="64.6 133.2 129 100 64.7 66.7 0.3 100 64.6 133.2" style="fill: #215572;fill-opacity: 0.15;stroke: #f2f2f2;stroke-opacity: 0.8;stroke-width: 0.25px"/>
          <polygon points="129 100 64.6 66.7 64.7 0.2 129 33.5 129 100" style="fill: #2a8fbc;fill-opacity: 0.1;stroke: #f2f2f2;stroke-opacity: 0.78;stroke-width: 0.25px"/>
          <polygon points="0.3 100 64.7 66.7 64.7 0.2 0.3 33.5 0.3 100" style="fill: #247996;fill-opacity: 0.13;stroke: #f2f2f2;stroke-opacity: 0.8;stroke-width: 0.25px"/>
        </g>
        <g>
          <path id="path2242" d="M95.5,41.4,85.8,55.9,74.1,46.5l-2.5-2-1.7,2.7L57.3,67.4,42.6,57.6l-2.2-1.4-1.6,2.1L27.5,72.5,31.9,76l9.7-12.1,14.9,9.9L59,75.4l1.5-2.5L73,52.8l11.7,9.5,2.4,1.9,1.8-2.6,11.4-17ZM28.3,98.3v3.9H100V98.3Z" style="fill: #fbaa6b"/>
          <path id="path2260" d="M47.5,28.5v5.7h5.7V28.5Zm28.4,0v5.7h5.7V28.5ZM47.5,39.9v5.6h5.7V39.9Zm28.4,0v5.6h5.7V39.9ZM47.5,51.2v5.7h5.7V51.2ZM75.9,62.6v5.7h5.7V62.6ZM47.5,74v5.6h5.7V74Zm28.4,0v5.6h5.7V74ZM47.5,85.3V91h5.7V85.3Zm28.4,0V91h5.7V85.3Z" style="fill: #fe4786;opacity: 0.649999976158142;isolation: isolate"/>
        </g>
      </g>
    </g>
  </g>
</svg>
