<svg xmlns="http://www.w3.org/2000/svg" viewBox="0 0 129.3 133.3">
  <title>cfeature1</title>
  <g id="Livello_2" data-name="Livello 2">
    <g id="REVENUE_SHARING" data-name="REVENUE SHARING">
      <g>
        <g>
          <polygon points="64.6 133.2 129 100 64.7 66.7 0.3 100 64.6 133.2" style="fill: #215572;fill-opacity: 0.15;stroke: #f2f2f2;stroke-opacity: 0.8;stroke-width: 0.25px"/>
          <polygon points="129 100 64.6 66.7 64.7 0.2 129 33.5 129 100" style="fill: #2a8fbc;fill-opacity: 0.1;stroke: #f2f2f2;stroke-opacity: 0.78;stroke-width: 0.25px"/>
          <polygon points="0.3 100 64.7 66.7 64.7 0.2 0.3 33.5 0.3 100" style="fill: #247996;fill-opacity: 0.13;stroke: #f2f2f2;stroke-opacity: 0.8;stroke-width: 0.25px"/>
        </g>
        <g>
          <g id="g2333">
            <path id="path2264" d="M38.6,34.4a3.1,3.1,0,1,0,3.2,3.1A3.1,3.1,0,0,0,38.6,34.4Zm37.4,0a3.1,3.1,0,1,0,0,6.2,3.1,3.1,0,0,0,0-6.2ZM57.3,74.8a3.1,3.1,0,0,0-3.1,3.1,3.1,3.1,0,1,0,6.2,0A3.1,3.1,0,0,0,57.3,74.8Zm34.2,0a3.1,3.1,0,0,0-3.1,3.1,3.1,3.1,0,0,0,6.2,0A3.1,3.1,0,0,0,91.5,74.8Z" style="fill: #fe4786;opacity: 0.649999976158142;isolation: isolate"/>
            <path id="path2216" d="M57.3,31.3a5.6,5.6,0,0,0,0,11.1,5.6,5.6,0,1,0,0-11.1Zm34.2,3.1a3.1,3.1,0,1,0,3.1,3.1A3.1,3.1,0,0,0,91.5,34.4ZM76,49.9a5.6,5.6,0,1,0,5.5,5.6A5.6,5.6,0,0,0,76,49.9ZM38.6,53a3.1,3.1,0,1,0,3.2,3.1A3.1,3.1,0,0,0,38.6,53Zm52.9,0a3.1,3.1,0,1,0,3.1,3.1A3.1,3.1,0,0,0,91.5,53ZM38.6,71.6a5.6,5.6,0,0,0-5.5,5.6,5.6,5.6,0,0,0,11.1,0A5.6,5.6,0,0,0,38.6,71.6ZM76,74.8a3,3,0,0,0-3.1,3.1A3.1,3.1,0,0,0,76,81a3.1,3.1,0,0,0,3.1-3.1A3.1,3.1,0,0,0,76,74.8Z" style="fill: #09b190"/>
          </g>
          <rect x="29.3" y="95.6" width="70.3" height="3.94" style="fill: #09b190"/>
        </g>
      </g>
    </g>
  </g>
</svg>
