<svg xmlns="http://www.w3.org/2000/svg" viewBox="0 0 68.9 29.5">
  <title>ccomingsoon</title>
  <g id="Livello_2" data-name="Livello 2">
    <g id="GETTING_STARTED" data-name="GETTING STARTED">
      <g id="path4753">
        <path d="M6.4,0a5.4,5.4,0,0,0-4,1.6,5.1,5.1,0,0,0-1.7,4,5.7,5.7,0,0,0,.7,2.9,5.2,5.2,0,0,0,2,1.9H0v.7H28V4.3l3,5.9h1.4l3-5.9v6.8H48.1V4.3l5.2,6.8H68.9v-.7H66.8a4,4,0,0,0,1.2-1V5.6H65.6V8.5a3.6,3.6,0,0,1-2.1.5,2.9,2.9,0,0,1-2.2-.9,3.3,3.3,0,0,1-.9-2.5,3.2,3.2,0,0,1,.9-2.4,3.1,3.1,0,0,1,2.4-1,2.8,2.8,0,0,1,1.3.3,4.1,4.1,0,0,1,1.4.8l1.2-1.8A5.9,5.9,0,0,0,63.5,0a5.5,5.5,0,0,0-4,1.6,5.4,5.4,0,0,0-1.7,4,6.1,6.1,0,0,0,.7,2.8,5.5,5.5,0,0,0,2,2H55.8V.2H53.3v7L48,.2H45.7V10.4H43V.2H40.5V10.4H37.8V.2H34.6l-2.9,6L28.9.2H25.6V10.4H20.7a5.1,5.1,0,0,0,2.1-2,5.3,5.3,0,0,0,.7-2.8,5.4,5.4,0,0,0-1.6-4A5.6,5.6,0,0,0,17.8,0a5.4,5.4,0,0,0-4.1,1.6,5.4,5.4,0,0,0-1.7,4,5.4,5.4,0,0,0,.8,2.8,4.8,4.8,0,0,0,2,2H9.3a4.8,4.8,0,0,0,1.6-1.3L9.3,7.5A3.3,3.3,0,0,1,6.4,8.9,3.3,3.3,0,0,1,4.1,8a3.2,3.2,0,0,1-.9-2.4,3,3,0,0,1,1-2.4,3.2,3.2,0,0,1,2.4-.9A3.5,3.5,0,0,1,9.4,3.7L11,2A6.3,6.3,0,0,0,6.4,0ZM17.8,2.1a3.3,3.3,0,0,1,2.3,1A3.7,3.7,0,0,1,21,5.6a3.7,3.7,0,0,1-.9,2.5,2.9,2.9,0,0,1-2.3,1,3.3,3.3,0,0,1-2.3-1,3.3,3.3,0,0,1-1-2.5,3.3,3.3,0,0,1,1-2.5A3.3,3.3,0,0,1,17.8,2.1ZM7,13.9a6.5,6.5,0,0,0-4,1.2,3.9,3.9,0,0,0-1.5,3.3,3.9,3.9,0,0,0,1.2,3.2,9,9,0,0,0,3.9,1.6,6.7,6.7,0,0,1,2.3.9,1.1,1.1,0,0,1,.6,1.1,1.4,1.4,0,0,1-.6,1.1,2.6,2.6,0,0,1-1.4.3,7.5,7.5,0,0,1-4.7-2.1L.8,27A10.7,10.7,0,0,0,3,28.5H0v1H14.1v-1H11.3A4.2,4.2,0,0,0,13,24.9a3.8,3.8,0,0,0-1.2-3,8.3,8.3,0,0,0-3.4-1.6,8.9,8.9,0,0,1-2.8-.9,1.2,1.2,0,0,1-.6-1,1.3,1.3,0,0,1,.5-1.1,2,2,0,0,1,1.4-.4A6.7,6.7,0,0,1,11,18.4l1.8-2.5a8.9,8.9,0,0,0-2.7-1.5A11.8,11.8,0,0,0,7,13.9Zm16.2,0a7.7,7.7,0,0,0-5.7,2.2,7.5,7.5,0,0,0-2.4,5.7,7.7,7.7,0,0,0,1.1,3.9A6.9,6.9,0,0,0,19,28.5H14.1v1H32.3v-1H27.4a7.1,7.1,0,0,0,2.9-2.8,7.6,7.6,0,0,0,1-3.9A7.8,7.8,0,0,0,29,16.1,8.1,8.1,0,0,0,23.2,13.9Zm18.3,0a8.1,8.1,0,0,0-5.8,2.2,7.4,7.4,0,0,0-2.3,5.7,7.6,7.6,0,0,0,1,3.9,7.1,7.1,0,0,0,2.9,2.8h-5v1H55.9V19.9l7.4,9.6h5.5v-1H66.7V14.2H63.3V24l-7.6-9.8H52.5V28.5H45.6a7.1,7.1,0,0,0,2.9-2.8,7.7,7.7,0,0,0,1.1-3.9,7.5,7.5,0,0,0-2.4-5.7,7.8,7.8,0,0,0-5.7-2.2ZM23.2,16.8a4.3,4.3,0,0,1,3.3,1.5,4.8,4.8,0,0,1,1.3,3.5,5.1,5.1,0,0,1-1.3,3.5,4.5,4.5,0,0,1-3.3,1.4A4.3,4.3,0,0,1,20,25.3a5.2,5.2,0,0,1-1.4-3.5A4.8,4.8,0,0,1,20,18.3,4.1,4.1,0,0,1,23.2,16.8Zm18.3,0a4.2,4.2,0,0,1,3.2,1.5A4.8,4.8,0,0,1,46,21.8a5.1,5.1,0,0,1-1.3,3.5,4.5,4.5,0,0,1-3.2,1.4,4.5,4.5,0,0,1-3.3-1.4,5.1,5.1,0,0,1-1.3-3.5,4.8,4.8,0,0,1,1.3-3.5A4.3,4.3,0,0,1,41.5,16.8Z" style="fill: #fff"/>
      </g>
    </g>
  </g>
</svg>
