<svg xmlns="http://www.w3.org/2000/svg" viewBox="0 0 129.3 133.3">
  <title>cfeature5</title>
  <g id="Livello_2" data-name="Livello 2">
    <g id="REVENUE_SHARING" data-name="REVENUE SHARING">
      <g>
        <g>
          <polygon points="64.6 133.2 129 100 64.7 66.7 0.3 100 64.6 133.2" style="fill: #215572;fill-opacity: 0.15;stroke: #f2f2f2;stroke-opacity: 0.8;stroke-width: 0.25px"/>
          <polygon points="129 100 64.6 66.7 64.7 0.2 129 33.5 129 100" style="fill: #2a8fbc;fill-opacity: 0.1;stroke: #f2f2f2;stroke-opacity: 0.78;stroke-width: 0.25px"/>
          <polygon points="0.3 100 64.7 66.7 64.7 0.2 0.3 33.5 0.3 100" style="fill: #247996;fill-opacity: 0.13;stroke: #f2f2f2;stroke-opacity: 0.8;stroke-width: 0.25px"/>
        </g>
        <g>
          <rect x="28.7" y="97.1" width="72.3" height="3.42" style="fill: #019afa"/>
          <g id="g2329">
            <path id="path2229" d="M90.3,25.5a3.1,3.1,0,1,0,3.2,3.1A3.1,3.1,0,0,0,90.3,25.5ZM65,44.1a3.2,3.2,0,1,0,0,6.3,3.2,3.2,0,1,0,0-6.3Zm22.2,0a3.2,3.2,0,1,0,0,6.3,3.2,3.2,0,0,0,0-6.3ZM49.1,53.5a3.1,3.1,0,1,0,3.2,3.1A3.1,3.1,0,0,0,49.1,53.5ZM65,62.8A3.1,3.1,0,1,0,65,69a3.1,3.1,0,1,0,0-6.2ZM36.5,72.1a3.1,3.1,0,1,0,3.1,3.1A3.1,3.1,0,0,0,36.5,72.1Zm15.8,9.3a3.1,3.1,0,1,0,0,6.2,3.1,3.1,0,1,0,0-6.2Z" style="fill: #019afa"/>
            <path id="path2262" d="M73.8,30.7A3.2,3.2,0,1,0,77,33.9,3.1,3.1,0,0,0,73.8,30.7Zm6.4,29.5A3.1,3.1,0,0,0,77,63.3a3.1,3.1,0,0,0,3.2,3.1,3.1,3.1,0,0,0,3.2-3.1A3.2,3.2,0,0,0,80.2,60.2ZM51.7,69.6a3.1,3.1,0,0,0-3.2,3.1,3.2,3.2,0,0,0,6.3,0A3.1,3.1,0,0,0,51.7,69.6Z" style="fill: #fe4786;opacity: 0.649999976158142;isolation: isolate"/>
          </g>
        </g>
      </g>
    </g>
  </g>
</svg>
