<svg xmlns="http://www.w3.org/2000/svg" viewBox="0 0 129.3 133.3">
  <title>cfeature6</title>
  <g id="Livello_2" data-name="Livello 2">
    <g id="SECURE_AND_PRIVATE" data-name="SECURE AND PRIVATE">
      <g>
        <g>
          <polygon points="64.6 133.2 129 100 64.7 66.7 0.3 100 64.6 133.2" style="fill: #215572;fill-opacity: 0.15;stroke: #f2f2f2;stroke-opacity: 0.8;stroke-width: 0.25px"/>
          <polygon points="129 100 64.6 66.7 64.7 0.2 129 33.5 129 100" style="fill: #2a8fbc;fill-opacity: 0.1;stroke: #f2f2f2;stroke-opacity: 0.78;stroke-width: 0.25px"/>
          <polygon points="0.3 100 64.7 66.7 64.7 0.2 0.3 33.5 0.3 100" style="fill: #247996;fill-opacity: 0.13;stroke: #f2f2f2;stroke-opacity: 0.8;stroke-width: 0.25px"/>
        </g>
        <g>
          <g id="g2177" style="opacity: 0.649999976158142">
            <path id="polygon2175" d="M45.9,95.4l18.8,9.8,18.9-9.8-6.7-3.5L64.7,98.2,52.6,91.9ZM35.4,68.6V53.8L45.2,49V42L28.9,50.1V68.6Zm58.6,0h6.5V50.1L84.3,42v7L94,53.8Z" style="fill: #fe4786"/>
          </g>
          <polygon id="polygon2153" points="64.7 55.7 77.7 48.9 77.7 36.2 64.7 29.4 51.7 36.2 51.7 48.9 64.7 55.7" style="fill: none;stroke: #019afa;stroke-miterlimit: 10;stroke-width: 1.85714280605316px"/>
          <polygon id="polygon2167" points="38.7 92.1 51.7 85.3 51.7 72.6 38.7 65.8 25.7 72.6 25.7 85.3 38.7 92.1" style="fill: none;stroke: #019afa;stroke-miterlimit: 10;stroke-width: 1.85714280605316px"/>
          <line id="line2149" x1="64.7" y1="55.5" x2="64.7" y2="42.8" style="fill: none;stroke: #019afa;stroke-miterlimit: 10;stroke-width: 3px"/>
          <polyline id="polyline2151" points="51.7 36.2 64.7 42.8 77.7 36.2" style="fill: none;stroke: #019afa;stroke-miterlimit: 10;stroke-width: 1.85714280605316px"/>
          <line id="line2155" x1="38.7" y1="91.9" x2="38.7" y2="79.3" style="fill: none;stroke: #019afa;stroke-miterlimit: 10;stroke-width: 3px"/>
          <polyline id="polyline2157" points="25.7 72.6 38.7 79.3 51.7 72.6" style="fill: none;stroke: #019afa;stroke-miterlimit: 10;stroke-width: 1.85714280605316px"/>
          <line id="line2161" x1="90.8" y1="91.9" x2="90.8" y2="79.3" style="fill: none;stroke: #019afa;stroke-miterlimit: 10;stroke-width: 3px"/>
          <polyline id="polyline2163" points="77.7 72.6 90.8 79.3 103.8 72.6" style="fill: none;stroke: #019afa;stroke-miterlimit: 10;stroke-width: 1.85714280605316px"/>
          <polygon id="polygon2169" points="90.8 92.1 103.8 85.3 103.8 72.6 90.8 65.8 77.7 72.6 77.7 85.3 90.8 92.1" style="fill: none;stroke: #019afa;stroke-miterlimit: 10;stroke-width: 1.85714280605316px"/>
        </g>
      </g>
    </g>
  </g>
</svg>
