<svg xmlns="http://www.w3.org/2000/svg" viewBox="0 0 60.5 59.9">
  <title>cstock</title>
  <g id="Livello_2" data-name="Livello 2">
    <g id="GETTING_STARTED" data-name="GETTING STARTED">
      <g id="g4666">
        <g id="path4638">
          <path d="M11.5,0A11.4,11.4,0,0,0,0,11.3V48.5a11.4,11.4,0,0,0,4.6,9.2l13.6-29a3.9,3.9,0,0,1-1.1-2.8,4.2,4.2,0,0,1,8.4,0,.1.1,0,0,1-.1.1l9,4.9a4.4,4.4,0,0,1,2.5-.8h1L52.2.4A11,11,0,0,0,49.1,0Z" style="fill: #fff"/>
        </g>
        <g id="path4640">
          <path d="M54.5,1.4,40.1,31.5a4.3,4.3,0,0,1,1,2.7,4.2,4.2,0,0,1-4.2,4.1,4.1,4.1,0,0,1-4.1-4.1,4.9,4.9,0,0,1,.1-1.2l-8.3-4.5a4.6,4.6,0,0,1-3.3,1.6h-.8L6.9,58.9a11.5,11.5,0,0,0,4.6,1H49.1A11.4,11.4,0,0,0,60.5,48.5V11.3a11.1,11.1,0,0,0-6-9.9Z" style="fill: #fff"/>
        </g>
      </g>
    </g>
  </g>
</svg>
