<svg id="Layer_1" data-name="Layer 1" xmlns="http://www.w3.org/2000/svg" xmlns:xlink="http://www.w3.org/1999/xlink" viewBox="0 0 259.4 307.11"><defs><style>.cls-1{fill-rule:evenodd;fill:url(#GradientFill_1);}</style><linearGradient id="GradientFill_1" x1="265.36" y1="362.09" x2="458.57" y2="247.67" gradientUnits="userSpaceOnUse"><stop offset="0" stop-color="#5cc0c3"/><stop offset="1" stop-color="#01abe4"/></linearGradient></defs><title>Force Network</title><path class="cls-1" d="M384.71,179.21l90,52a8.54,8.54,0,1,1,8.11,14V361.4a8.54,8.54,0,1,1-8.11,14q-45,26-90,52a20.64,20.64,0,1,1-39.3,8.82q0-1,.1-2l-87-50.22a20.64,20.64,0,0,1-16.12-38V255.65A20.64,20.64,0,1,1,263,220.08l82.55-47.66q-0.1-1-.1-2a20.64,20.64,0,1,1,39.3,8.81h0Zm-95.4,115.56a8.52,8.52,0,0,1,2.71.44l10.81-18.73a8.55,8.55,0,0,1-2.45-9.11L267.9,248.62a20.75,20.75,0,0,1-5.2,5.2l23.9,41.39a8.53,8.53,0,0,1,2.72-.44h0Zm5.66,2.14a8.54,8.54,0,0,1,0,12.8l10.74,18.6,39.8-23q-0.1-1-.1-2a20.55,20.55,0,0,1,2-8.81l-32.49-18.76a8.55,8.55,0,0,1-9.11,2.44L295,296.92h0ZM292,311.42a8.58,8.58,0,0,1-5.43,0l-21.92,38a20.81,20.81,0,0,1,1.67,1.67l36.42-21L292,311.42h0Zm-8.37-1.7a8.54,8.54,0,0,1,0-12.8l-23.9-41.39-0.28.13V346a20.58,20.58,0,0,1,2.46,1.33l21.71-37.6h0Zm24.84-48.17a8.52,8.52,0,0,1,2.71.44l43.08-74.62-0.27-.19-82.55,47.66q0.1,1,.1,2a20.56,20.56,0,0,1-2,8.81l32.49,18.76a8.52,8.52,0,0,1,6.4-2.88h0Zm5.66,2.14a8.55,8.55,0,0,1,2.45,9.11l32.49,18.76a20.62,20.62,0,0,1,15.25-8.81V191a20.5,20.5,0,0,1-7.11-1.9l-43.08,74.62h0ZM423.6,328a8.52,8.52,0,0,1,2.72.44l10.81-18.73a8.54,8.54,0,0,1,0-12.8l-10.81-18.73a8.55,8.55,0,0,1-9.11-2.44L384.71,294.5a20.67,20.67,0,0,1,0,17.62l32.49,18.76a8.52,8.52,0,0,1,6.4-2.88h0Zm5.66,2.14a8.55,8.55,0,0,1,2.45,9.11l43.05,24.86a8.48,8.48,0,0,1,.74-0.74l-30-52a8.58,8.58,0,0,1-5.43,0l-10.81,18.73h0ZM430,342.21a8.55,8.55,0,0,1-9.11,2.44L377.8,419.27a20.74,20.74,0,0,1,5.21,5.21l90-52a8.57,8.57,0,0,1,0-5.42L430,342.21h0Zm-12.06.74a8.55,8.55,0,0,1-2.44-9.11L383,315.08a20.62,20.62,0,0,1-15.25,8.81v91.78a20.48,20.48,0,0,1,7.11,1.9l43.08-74.62h0Zm5.66-81.4a8.52,8.52,0,0,1,6.4,2.88l43.05-24.86a8.57,8.57,0,0,1,0-5.42l-50.3-29L383,182.16a20.74,20.74,0,0,1-5.21,5.21L420.89,262a8.52,8.52,0,0,1,2.71-.44h0Zm8.1,5.83a8.55,8.55,0,0,1-2.45,9.11l10.81,18.73a8.58,8.58,0,0,1,5.43,0l30-52a8.5,8.5,0,0,1-.74-0.74l-43.05,24.86h0ZM415.5,272.8a8.55,8.55,0,0,1,2.45-9.11l-43.08-74.62a20.51,20.51,0,0,1-7.11,1.9v91.78A20.62,20.62,0,0,1,383,291.56L415.5,272.8h0Zm64-27.57a8.45,8.45,0,0,1-1-.27l-30,52a8.54,8.54,0,0,1,0,12.8l30,52a8.54,8.54,0,0,1,1-.27V245.23h0ZM271.35,367.82a20.5,20.5,0,0,1-.81,3.44L354,419.46l0.27-.19-43-74.5-39.93,23.05h0Zm93-43.94A20.52,20.52,0,0,1,354,320.09l-39.8,23,43,74.5a20.52,20.52,0,0,1,7.11-1.9V323.88Z" transform="translate(-230.3 -149.76)"/></svg>