<?xml version="1.0" standalone="no"?>
<!DOCTYPE svg PUBLIC "-//W3C//DTD SVG 1.1//EN" "http://www.w3.org/Graphics/SVG/1.1/DTD/svg11.dtd" >
<svg xmlns="http://www.w3.org/2000/svg">
<metadata>Generated by IcoMoon</metadata>
<defs>
<font id="icomoon" horiz-adv-x="1024">
<font-face units-per-em="1024" ascent="960" descent="-64" />
<missing-glyph horiz-adv-x="1024" />
<glyph unicode="&#x20;" horiz-adv-x="512" d="" />
<glyph unicode="&#xe600;" glyph-name="uniE600" d="M1024 658.824h-198.356l140.228-140.228-42.586-42.586-140.228 140.228v-198.356h-60.236v197.932l-641.264-642.408-42.586 42.586 641.688 642.832h-198.776v60.236h198.354l-140.228 140.228 42.586 42.586 140.228-140.228v198.356h60.236v-198.596l137.758 137.998 42.586-42.586-137.516-137.758h198.114v-60.236z" />
<glyph unicode="&#xe601;" glyph-name="uniE601" d="M216.064 602.624c-57.586 0-93.364-30.118-93.364-78.668v-130.168c0-24.998 9.698-48.428 27.286-66.138 17.588-17.65 41.080-27.408 66.078-27.408h104.99l342.498-342.618v989.606l-339.126-344.606h-108.362zM603.318 800.136v-697.044l-257.324 257.384h-129.988c-18.252 0-33.070 14.938-33.070 33.31v130.168c0 5.48 0 18.432 33.128 18.432h133.542l253.712 257.746zM723.126 298.196v60.236c33.49 0 60.716 27.226 60.716 60.716s-27.226 60.716-60.716 60.716v60.236c66.68 0 120.952-54.272 120.952-120.952s-54.272-120.952-120.952-120.952zM965.512 418.664c0-132.88-108.062-240.942-240.942-240.942v60.236c99.63 0 180.706 81.076 180.706 180.706s-81.076 180.706-180.706 180.706v60.236c132.818 0 240.942-108.122 240.942-240.942z" />
<glyph unicode="&#xe602;" glyph-name="uniE602" d="M1024-33.16c-3.794 161.852-167.334 301.116-392.794 337.86v82.764c29.636 28.49 50.718 72.704 64.512 110.412 19.998 10 37.586 32.286 47.826 62.224 14.336 41.442 8.794 79.692-12.408 98.122 1.688 14.336 2.77 28.974 0.904 43.55-4.76 39.936 3.914 62.524 11.686 82.402 6.384 16.686 13.794 35.6 6.384 56.922-26.624 76.68-104.026 118.904-217.932 118.904l-15.902-0.3c-79.088-2.832-102.822-36.142-118.724-67.162-1.988-3.736-4.638-8.794-4.638-9.096-103.122-9.216-102.218-94.51-101.436-163.058l0.18-22.226c0-12.348 0.542-25.238 1.566-38.49-25.6-18.072-30.358-60.536-10.782-104.63 11.144-24.998 27.226-43.912 45.116-53.73 14.638-40.598 37.646-88.546 71.016-118.362v-77.282c-228.774-35.48-394.782-175.104-398.576-338.824l-0.722-30.84h1025.384l-0.664 30.84zM63.488-3.764c23.612 126.134 172.212 230.158 368.76 253.23l26.564 3.132v160.586l-13.012 9.034c-23.672 16.384-47.646 57.044-65.656 111.496l-5 16.926-17.71 3.072c-3.192 1.144-12.528 9.216-19.878 25.78-4.518 10.12-6.264 18.794-6.746 24.998l30.72-8.614-5.784 45.116c-2.53 19.878-3.856 39.212-3.856 57.224l-0.18 22.89c-0.904 80.776 3.072 98.424 46.562 102.34 32.828 2.892 45.296 27.046 52.766 41.502 9.036 17.588 16.866 32.708 67.464 34.574l13.674 0.24c49.934 0 137.276-10.18 160.768-77.222 0-2.59-3.132-10.662-5.422-16.564-8.734-22.528-21.926-56.562-15.3-111.616 1.446-11.324-0.422-25.54-2.408-40.658l-5.36-48.49 26.564 2.892c0.482-6.264-0.24-16.202-4.518-28.432-5.842-17.408-14.576-26.382-14.276-27.346h-21.684l-6.866-20.6c-17.048-51.382-39.154-90.172-60.778-106.496l-11.928-9.034v-164.202l26.384-3.312c193.416-24.154 339.786-127.88 363.218-252.506h-897.084z" />
<glyph unicode="&#xe603;" glyph-name="uniE603" d="M572.236 299.098c0-22.046-12.47-40.478-30.118-50.96v-129.748h-60.236v129.688c-17.71 10.48-30.118 28.914-30.118 51.020 0 33.25 26.926 60.236 60.236 60.236 33.19 0 60.234-26.924 60.234-60.236zM903.168 450.408v-426.466c0-49.816-40.538-90.354-90.352-90.354h-601.63c-49.814 0-90.352 40.538-90.352 90.352v426.466c0 49.814 40.538 90.354 90.352 90.354h541.756v119.748c0 132.88-108.062 240.942-240.942 240.942s-240.942-108.062-240.942-240.942h-60.236c0 166.068 135.108 301.176 301.176 301.176s301.176-135.108 301.176-301.176v-119.748c49.634-0.24 89.992-40.66 89.992-90.354zM842.932 450.408c0 16.626-13.552 30.118-30.118 30.118h-601.63c-16.564 0-30.118-13.492-30.118-30.118v-426.466c0-16.626 13.552-30.118 30.118-30.118h601.63c16.566 0 30.118 13.494 30.118 30.118v426.466z" />
<glyph unicode="&#xe604;" glyph-name="uniE604" d="M128.542 650.452l84.45 155.828c65.416 99.268 196.488 126.194 293.406 61.982l-33.19-50.176c-69.21 45.72-162.816 26.504-208.656-42.706l-84.45-155.83c-47.044-71.56-27.95-165.164 41.382-210.884 68.848-45.298 145.168-32.948 199.56 32.408l46.262-38.61c-44.694-53.73-102.038-81.438-161.31-81.438-39.454 0-79.692 12.288-117.7 37.346-96.978 64.090-123.844 195.102-59.752 292.082zM243.412 476.070l-7.83-7.77 42.466-42.708 7.892 7.832c58.728 58.728 154.264 58.728 212.932 0s58.73-154.264 0-212.932l-182.092-182.152c-58.728-58.73-154.264-58.73-212.932 0s-58.728 154.264 0 212.932l63.73 63.788-42.586 42.586-63.728-63.85c-82.162-82.16-82.162-215.944 0-298.104 41.14-41.14 95.050-61.622 149.082-61.622s107.942 20.54 149.082 61.62l182.092 182.152c82.162 82.162 82.162 215.944 0 298.104-82.342 82.342-216.064 82.162-298.104 0.12zM660.36 538.354h245.4v60.234h-245.4v-60.234zM632.168 457.216l117.52-67.884 30.118 52.104-117.52 67.884-30.118-52.104zM647.528 890.368l-95.172-164.864 52.104-30.118 95.172 164.804-52.104 30.178zM955.754 795.86l-30.118 52.104-300.694-173.598 30.118-52.104 300.696 173.598z" />
<glyph unicode="&#xe605;" glyph-name="uniE605" d="M658.674 838.566c-13.13 52.344-60.174 91.318-116.556 91.318-56.14 0-103.002-38.73-116.314-91.318h-214.98v-60.236h662.588v60.236h-214.74zM542.118 869.648c23.010 0 42.466-13.312 52.706-31.082h-104.388c10.36 18.25 29.214 31.082 51.682 31.082zM783.058 719.058h60.236v-633.434c0-49.816-40.538-90.352-90.352-90.352h-421.646c-49.814 0-90.354 40.538-90.354 90.352v633.434h60.236v-633.434c0-16.566 13.492-30.118 30.118-30.118h421.646c16.626 0 30.118 13.552 30.118 30.118v633.434zM481.882 658.824v-481.882h-60.236v481.882h60.236zM662.588 658.824v-481.882h-60.236v481.882h60.236z" />
<glyph unicode="&#xe606;" glyph-name="uniE606" d="M692.706 350.66c182.694 0 331.294 136.674 331.294 304.67s-148.6 304.67-331.294 304.67c-115.17 0-222.45-56.5-282.142-146.432-42.466 24.034-90.112 36.624-139.504 36.624-149.444 0-271.060-112.038-271.060-249.796 0-137.698 121.614-249.736 271.060-249.736 11.204 0 22.588 0.784 34.514 2.23 39.274-35.418 91.678-55.476 146.19-55.476 60.356 0 116.194 23.312 156.13 64.452 29.394-7.528 57.284-11.204 84.812-11.204zM586.994 430.832l-12.77-16.144c-28.37-35.72-74.15-57.044-122.458-57.044-43.61 0-85.174 17.468-114.146 48.008l-11.084 11.626-15.902-2.77c-12.89-2.23-25.962-3.614-39.574-3.614-116.254 0-210.824 84.992-210.824 189.44 0 104.508 94.57 189.56 210.824 189.56 47.706 0 93.304-14.818 131.856-42.948l28.43-20.662 16.084 31.322c44.454 86.318 140.71 142.154 245.278 142.154 149.444 0 271.058-109.628 271.058-244.494 0-134.746-121.616-244.436-271.058-244.436-27.288 0-55.476 4.518-86.076 13.914l-19.636 6.084zM692.706 327.528c-66.44 0-120.472-54.030-120.472-120.472s54.030-120.472 120.472-120.472 120.472 54.030 120.472 120.472-54.030 120.472-120.472 120.472zM692.706 146.824c-33.19 0-60.236 26.986-60.236 60.236s27.046 60.236 60.236 60.236 60.236-26.986 60.236-60.236-27.046-60.236-60.236-60.236zM918.588 116.706c-41.502 0-75.294-33.792-75.294-75.294s33.792-75.294 75.294-75.294 75.294 33.792 75.294 75.294-33.792 75.294-75.294 75.294zM903.528 41.412c0 8.312 6.746 15.058 15.058 15.058s15.058-6.746 15.058-15.058c0-16.566-30.118-16.566-30.118 0z" />
<glyph unicode="&#xe607;" glyph-name="uniE607" d="M1025.204 478.118h-123.182c-14.758 192.392-169.020 346.052-361.654 360.026v124.206h-60.236v-124.386c-191.066-15.54-343.462-168.598-358.158-359.846h-123.18v-60.234h123.18c14.698-191.248 167.092-344.306 358.098-359.846v-122.038h60.234v121.856c192.632 13.914 346.894 167.576 361.654 360.026h123.18v60.236zM540.37 118.092v119.086h-60.236v-118.904c-157.878 15.178-283.588 141.552-297.924 299.61h117.76v60.236h-117.76c14.336 158.058 140.048 284.43 297.924 299.61v-116.556h60.236v116.736c159.442-13.674 286.962-140.528 301.418-299.792h-117.76v-60.236h117.76c-14.456-159.262-141.976-286.118-301.416-299.79z" />
<glyph unicode="&#xe608;" glyph-name="uniE608" d="M539.288 899.284l-238.952-173.598v-731.256l240.098 168.298 243.412-167.754v730.956l-244.556 173.356zM723.668 109.658l-183.416 126.494-179.622-125.952v584.824l179.2 130.168 183.898-130.408v-585.126zM436.948 598.528c0-58.126 47.284-105.412 105.412-105.412s105.412 47.284 105.412 105.412-47.284 105.412-105.412 105.412-105.412-47.284-105.412-105.412zM542.36 643.704c24.876 0 45.176-20.298 45.176-45.176s-20.298-45.176-45.176-45.176-45.176 20.298-45.176 45.176 20.3 45.176 45.176 45.176z" />
<glyph unicode="&#xe609;" glyph-name="uniE609" d="M557.176 86.588c0-24.998-20.178-45.176-45.176-45.176s-45.176 20.178-45.176 45.176 20.178 45.176 45.176 45.176 45.176-20.178 45.176-45.176zM963.764 869.648v-843.294c0-49.816-37.648-90.352-83.848-90.352h-735.834c-46.2 0-83.848 40.538-83.848 90.352v843.294c0 49.814 37.648 90.352 83.848 90.352h735.894c46.14 0 83.788-40.538 83.788-90.352zM903.528 869.648c0 16.324-10.782 30.118-23.612 30.118h-735.834c-12.83 0-23.612-13.794-23.612-30.118v-843.294c0-16.324 10.782-30.118 23.612-30.118h735.894c12.77 0 23.552 13.794 23.552 30.118v843.294zM180.706 839.528h662.588v-662.588h-662.588v662.588zM240.942 237.176h542.118v542.118h-542.118v-542.118z" />
<glyph unicode="&#xe60a;" glyph-name="uniE60A" d="M1002.736 537.328h-374.966l-115.772 356.594-115.832-356.594h-374.904l303.286-220.34-115.772-356.594 303.224 220.402 303.286-220.402-115.772 356.594 303.224 220.342zM700.716 118.092l-188.716 137.216-188.716-137.156 72.102 221.966-188.718 136.976h233.29l72.040 221.908 72.040-221.908h233.29l-188.716-137.034 72.102-221.966z" />
<glyph unicode="&#xe60b;" glyph-name="uniE60B" d="M391.528 779.294c-85.896 0-165.164-46.862-207.992-120.472h-63.066v-632.472c0-49.814 40.538-90.352 90.354-90.352h361.412c49.814 0 90.352 40.538 90.352 90.352v632.472h-63.066c-42.826 73.548-122.216 120.472-207.992 120.472zM391.528 719.058c51.742 0 100.712-22.648 134.566-60.234h-269.072c33.792 37.586 82.702 60.234 134.504 60.234zM602.352 26.352c0-16.566-13.494-30.118-30.118-30.118h-361.412c-16.626 0-30.118 13.552-30.118 30.118v572.236h421.646v-572.236zM481.882 960h-180.706v-180.706h180.706v180.706zM421.646 839.528h-60.236v60.236h60.236v-60.236zM719.51 868.984l188.898-31.202-9.818-59.392-361.412 59.634 5.12 30.962-5.12 30.96 361.412 59.634 9.818-59.392-188.898-31.202z" />
<glyph unicode="&#xe60c;" glyph-name="uniE60C" d="M692.706 719.058c0 99.63-81.076 180.706-180.706 180.706s-180.706-81.076-180.706-180.706c0-89.328 65.296-163.238 150.588-177.634v-484.954h-120.472v-60.236h301.176v60.236h-120.472v484.954c85.294 14.396 150.588 88.306 150.588 177.634zM391.528 719.058c0 66.44 54.032 120.472 120.472 120.472s120.472-54.030 120.472-120.472-54.030-120.472-120.472-120.472-120.472 54.030-120.472 120.472zM271.3 827.964c-22.77-27.708-34.756-60.476-34.756-94.81s11.986-67.102 34.756-94.81l-46.622-38.31c-31.624 38.61-48.368 84.63-48.368 133.060s16.746 94.51 48.368 133.060l46.622-38.188zM120.472 733.094c0-64.994 23.312-126.254 67.404-176.972l-45.418-39.514c-53.068 60.958-82.222 137.94-82.222 216.486s29.154 155.528 82.222 216.546l45.418-39.514c-44.092-50.778-67.404-112.038-67.404-177.032zM847.692 733.094c0-48.49-16.746-94.45-48.428-133.060l-46.562 38.25c22.77 27.708 34.756 60.476 34.756 94.81s-11.986 67.102-34.756 94.81l46.562 38.25c31.684-38.552 48.428-84.57 48.428-133.060zM963.764 733.094c0-78.608-29.154-155.528-82.222-216.546l-45.418 39.514c44.092 50.84 67.404 112.038 67.404 177.032s-23.312 126.252-67.404 176.972l45.418 39.514c53.068-60.958 82.222-137.88 82.222-216.486z" />
<glyph unicode="&#xe60d;" glyph-name="uniE60D" d="M165.646 207.058c-58.128 0-105.412-47.284-105.412-105.412s47.284-105.412 105.412-105.412 105.412 47.284 105.412 105.412-47.284 105.412-105.412 105.412zM165.646 56.472c-24.938 0-45.176 20.298-45.176 45.176s20.238 45.176 45.176 45.176 45.176-20.298 45.176-45.176-20.24-45.176-45.176-45.176zM677.648 207.058c-58.126 0-105.412-47.284-105.412-105.412s47.284-105.412 105.412-105.412 105.412 47.284 105.412 105.412-47.284 105.412-105.412 105.412zM677.648 56.472c-24.938 0-45.176 20.298-45.176 45.176s20.24 45.176 45.176 45.176 45.176-20.298 45.176-45.176-20.24-45.176-45.176-45.176zM805.406 839.528l-18.192-120.472h-791.672l67.344-484.050h717.582l62.524 449.536 14.216 94.75h166.792v60.234h-218.594zM778.6 658.824l-8.374-60.236h-697.164l-8.374 60.236h713.908zM115.29 295.244l-33.792 243.11h680.358l-33.792-243.11h-612.774z" />
<glyph unicode="&#xe60e;" glyph-name="uniE60E" d="M165.646 207.058c-58.128 0-105.412-47.284-105.412-105.412s47.284-105.412 105.412-105.412 105.412 47.284 105.412 105.412-47.284 105.412-105.412 105.412zM165.646 56.472c-24.878 0-45.176 20.298-45.176 45.176s20.298 45.176 45.176 45.176 45.176-20.298 45.176-45.176-20.3-45.176-45.176-45.176zM677.648 207.058c-58.126 0-105.412-47.284-105.412-105.412s47.284-105.412 105.412-105.412 105.412 47.284 105.412 105.412-47.284 105.412-105.412 105.412zM677.648 56.472c-24.876 0-45.176 20.298-45.176 45.176s20.298 45.176 45.176 45.176 45.176-20.298 45.176-45.176-20.298-45.176-45.176-45.176zM805.346 839.528l-18.13-120.472h-791.672l67.284-484.050h717.644l62.826 451.764 13.914 92.522h166.792v60.234h-218.654zM728.004 295.244h-612.712l-50.598 363.58h713.908l-50.598-363.58zM662.588 357.648h-481.882v239.074h60.236v-178.838h361.412v178.9h60.236v-239.134zM240.942 781.162h-60.234v118.602h481.882v-114.808h-60.236v54.572h-361.412v-58.368z" />
<glyph unicode="&#xe60f;" glyph-name="uniE60F" d="M512 600.274c-83.004 0-150.588-67.584-150.588-150.588s67.584-150.588 150.588-150.588 150.588 67.584 150.588 150.588-67.584 150.588-150.588 150.588zM512 359.334c-49.814 0-90.354 40.538-90.354 90.354s40.538 90.354 90.354 90.354 90.352-40.538 90.352-90.354-40.538-90.354-90.354-90.354zM1020.386 391.018c2.23 19.336 3.614 38.852 3.614 58.668s-1.384 39.334-3.614 58.668l-155.89 46.864c-7.168 24.214-16.746 47.404-28.552 69.21l77.040 143.178c-24.456 30.72-52.344 58.61-83.126 83.126l-143.178-77.1c-21.866 11.806-45.056 21.322-69.27 28.552l-46.744 155.89c-19.274 2.23-38.792 3.614-58.668 3.614s-39.394-1.384-58.668-3.614l-46.742-155.89c-24.274-7.168-47.526-16.746-69.272-28.612l-143.18 77.1c-30.78-24.456-58.67-52.344-83.064-83.126l77.040-143.058c-11.806-21.806-21.324-45.056-28.552-69.272l-155.95-46.862c-2.23-19.274-3.614-38.792-3.614-58.668s1.386-39.394 3.614-58.67l155.89-46.744c7.228-24.274 16.746-47.526 28.552-69.332l-77.040-143.12c24.456-30.78 52.344-58.668 83.126-83.126l143.178 77.040c21.806-11.806 45.056-21.322 69.272-28.552l46.742-155.89c19.336-2.23 38.852-3.614 58.668-3.614s39.394 1.384 58.668 3.614l46.744 155.89c24.216 7.228 47.466 16.746 69.27 28.552l143.12-77.040c30.78 24.516 58.668 52.404 83.126 83.184l-76.98 143.12c11.806 21.804 21.322 45.056 28.552 69.27l155.89 46.744zM816.068 392.644l-9.276-31.202c-6.024-20.298-14.034-39.754-23.852-57.766l-15.42-28.612 15.36-28.612 57.344-106.616c-5.962-6.326-12.106-12.47-18.432-18.432l-135.108 72.824-28.612-15.42c-18.13-9.818-37.586-17.77-57.826-23.852l-31.202-9.276-9.336-31.202-34.876-116.376c-4.336-0.12-8.614-0.182-12.83-0.182s-8.492 0.060-12.83 0.182l-34.876 116.376-9.336 31.202-31.202 9.276c-20.238 6.024-39.694 14.034-57.766 23.852l-28.612 15.42-135.228-72.704c-6.264 5.962-12.468 12.106-18.432 18.432l72.764 135.168-15.42 28.612c-9.758 18.072-17.77 37.528-23.854 57.826l-9.216 31.142-147.516 44.212c-0.18 4.336-0.24 8.614-0.24 12.77 0 4.216 0.060 8.492 0.24 12.83l147.456 44.214 9.276 31.202c6.024 20.298 14.034 39.754 23.854 57.766l15.42 28.612-72.764 135.228c5.962 6.264 12.106 12.468 18.372 18.432l135.348-72.884 28.672 15.6c17.89 9.758 37.286 17.77 57.584 23.794l31.202 9.276 9.336 31.202 34.876 116.376c4.396 0.060 8.674 0.12 12.89 0.12s8.494-0.060 12.83-0.18l34.876-116.376 9.336-31.202 31.202-9.276c20.178-6.024 39.696-14.034 57.826-23.852l28.612-15.36 135.168 72.764c6.264-5.962 12.47-12.106 18.432-18.432l-57.404-106.616-15.36-28.612 15.48-28.612c9.818-18.072 17.77-37.466 23.794-57.644l9.276-31.202 31.202-9.336 116.376-34.998c0.060-4.336 0.12-8.614 0.12-12.83s-0.060-8.494-0.24-12.83l-147.456-44.212z" />
<glyph unicode="&#xe610;" glyph-name="uniE610" d="M1000.148 4.186l-311.596 311.596c58.73 68.488 94.51 157.274 94.51 254.374 0 215.884-175.646 391.528-391.528 391.528-104.568 0-202.932-40.72-276.962-114.628-73.91-73.968-114.628-172.332-114.568-276.902 0-215.884 175.646-391.528 391.528-391.528 97.098 0 185.946 35.78 254.434 94.51l311.596-311.596 42.586 42.648zM391.528 238.864c-182.634 0-331.294 148.6-331.294 331.294-0.060 88.546 34.394 171.73 96.978 234.254 62.524 62.584 145.77 97.038 234.314 97.038 182.634 0 331.294-148.6 331.294-331.294 0-182.634-148.66-331.294-331.294-331.294z" />
<glyph unicode="&#xe611;" glyph-name="uniE611" d="M1000.148 2.5l-311.596 311.596c58.73 68.488 94.51 157.214 94.51 254.374 0 215.884-175.646 391.528-391.528 391.528-104.63 0-202.932-40.72-276.902-114.688-73.968-73.908-114.628-172.274-114.628-276.842 0-215.884 175.646-391.528 391.528-391.528 97.098 0 185.886 35.78 254.434 94.51l311.596-311.596 42.586 42.648zM391.528 237.176c-182.694 0-331.294 148.6-331.294 331.294 0 88.546 34.394 171.73 96.978 234.316 62.584 62.524 145.77 96.978 234.314 96.978 182.694 0 331.294-148.6 331.294-331.294s-148.6-331.294-331.294-331.294zM421.646 598.588h120.47v-60.234h-120.472v-120.472h-60.236v120.472h-120.472v60.236h120.472v120.472h60.236v-120.472z" />
<glyph unicode="&#xe612;" glyph-name="uniE612" d="M1000.148 4.186l-311.596 311.596c58.73 68.488 94.51 157.274 94.51 254.374 0 215.884-175.646 391.528-391.528 391.528-104.568 0-202.932-40.72-276.962-114.628-73.91-73.968-114.628-172.332-114.568-276.902 0-215.884 175.646-391.528 391.528-391.528 97.098 0 185.946 35.78 254.434 94.51l311.596-311.596 42.586 42.648zM391.528 238.864c-182.634 0-331.294 148.6-331.294 331.294-0.060 88.546 34.394 171.73 96.978 234.254 62.524 62.584 145.77 97.038 234.314 97.038 182.634 0 331.294-148.6 331.294-331.294 0-182.634-148.66-331.294-331.294-331.294zM240.942 600.274h301.176v-60.236h-301.176v60.236z" />
<glyph unicode="&#xe613;" glyph-name="uniE613" d="M783.058 297.412c-32.828 0-63.188-9.456-89.75-24.818l-139.866 147.818 377.072 398.396-43.792 41.442-374.724-395.986-374.844 395.986-43.73-41.442 377.072-398.396-139.866-147.758c-26.504 15.3-56.922 24.756-89.69 24.756-99.63 0-180.706-81.076-180.706-180.706s81.076-180.706 180.706-180.706 180.706 81.076 180.706 180.706c0 44.996-17.168 85.774-44.454 117.4l134.806 142.456 134.808-142.456c-27.346-31.684-44.454-72.404-44.454-117.4 0-99.63 81.076-180.706 180.706-180.706s180.706 81.076 180.706 180.706-81.076 180.706-180.706 180.706zM240.942-3.764c-66.44 0-120.472 54.030-120.472 120.472s54.032 120.472 120.472 120.472 120.472-54.030 120.472-120.472-54.032-120.472-120.472-120.472zM783.058-3.764c-66.44 0-120.472 54.030-120.472 120.472s54.030 120.472 120.472 120.472 120.472-54.030 120.472-120.472-54.030-120.472-120.472-120.472z" />
<glyph unicode="&#xe614;" glyph-name="uniE614" d="M301.176 960v-1024h421.646v1024h-421.646zM662.588-3.764h-301.176v59.272h120.472v60.236h-120.472v61.198h60.236v60.236h-60.236v60.236h120.472v60.236h-120.472v59.272h60.236v60.236h-60.236v60.236h120.472v60.236h-120.472v61.198h60.236v60.236h-60.236v60.234h120.472v60.236h-120.472v60.236h301.176v-903.528z" />
<glyph unicode="&#xe615;" glyph-name="uniE615" d="M270.576 960h-119.508c-49.814 0-90.352-40.538-90.352-90.352v-641.928l151.854-298.526 148.42 298.706v641.746c-0.060 49.816-40.598 90.352-90.414 90.352zM151.070 899.764h119.508c16.564 0 30.118-13.552 30.118-30.118v-61.38h-179.742v61.38c0 16.566 13.492 30.118 30.118 30.118zM120.952 685.928v62.102h179.742v-62.102h-179.742zM237.808 115.442h-52.406l-64.452 126.736v383.518h60.236v-390.384h60.236v390.384h59.272v-383.7l-62.886-126.554zM481.882 960v-1024h421.646v1024h-421.646zM843.294-3.764h-301.176v59.272h120.472v60.236h-120.472v61.198h60.236v60.236h-60.236v60.236h120.472v60.236h-120.472v59.272h60.236v60.236h-60.236v60.236h120.472v60.236h-120.472v61.198h60.236v60.236h-60.236v60.234h120.472v60.236h-120.472v60.236h301.176v-903.528z" />
<glyph unicode="&#xe616;" glyph-name="uniE616" d="M724.992 959.096l-724.088-724.088 298.166-298.104 724.028 724.028-298.104 298.164zM86.076 235.008l41.924 41.924 85.174-85.174 42.586 42.586-85.174 85.174 43.308 43.308 42.586-42.586 42.586 42.586-42.586 42.586 42.586 42.586 85.174-85.174 42.586 42.586-85.174 85.174 41.924 41.924 42.586-42.586 42.586 42.586-42.586 42.586 42.586 42.586 85.174-85.174 42.586 42.586-85.174 85.174 43.25 43.25 42.586-42.586 42.586 42.586-42.586 42.586 42.586 42.586 85.232-85.174 42.586 42.586-85.232 85.174 42.648 42.646 212.932-212.992-638.856-638.856-212.992 212.932z" />
<glyph unicode="&#xe617;" glyph-name="uniE617" d="M214.558 899.764v-931.178l282.262 196.97 286.238-196.366v930.576h-568.5zM722.824 83.516l-226.244 155.288-221.726-154.684v755.41h447.97v-756.014z" />
<glyph unicode="&#xe618;" glyph-name="uniE618" d="M603.98 353.19v606.81h-364.664v-606.99l181.972 123.664 182.694-123.482zM299.55 466.794v432.972h244.254v-433.152l-122.7 82.884-121.556-82.704zM963.764 899.342v-903.108h-903.528v903.108h118.904v-60.236h-58.668v-782.636h783.058v782.636h-241.242v60.236h301.478z" />
<glyph unicode="&#xe619;" glyph-name="uniE619" d="M361.412 478.118h-361.412v361.412h60.234v-247.508c61.018 192.332 243.11 330.33 451.764 330.33 211.184 0 398.818-142.154 456.222-345.69l-58.006-16.324c-50.116 177.694-213.896 301.838-398.216 301.838-194.318-0.060-362.376-137.096-404.058-323.824h253.47v-60.236zM662.588 417.882v-60.236h253.47c-41.744-186.79-209.558-323.764-404.058-323.764-184.44 0-348.16 124.144-398.216 301.84l-58.006-16.324c57.344-203.534 244.978-345.69 456.222-345.69 208.354 0 390.024 137.336 451.764 330.21v-247.448h60.236v361.412h-361.412z" />
<glyph unicode="&#xe61a;" glyph-name="uniE61A" d="M963.764 417.882h-421.648v-421.648h-60.236v421.646h-421.646v60.236h421.646v421.648h60.236v-421.648h421.646v-60.236z" />
<glyph unicode="&#xe61b;" glyph-name="uniE61B" d="M722.824 688.942c0 116.254-94.568 210.824-210.824 210.824s-210.824-94.57-210.824-210.824c0-105.112 77.582-191.85 178.418-207.512v-485.196h60.236v484.714c103.002 13.734 182.996 101.316 182.996 207.992zM512 538.354c-83.064 0-150.588 67.524-150.588 150.588s67.524 150.588 150.588 150.588 150.588-67.524 150.588-150.588-67.524-150.588-150.588-150.588zM602.352 658.824h-60.236c0 33.25-26.986 60.234-60.236 60.234v60.236c66.44 0 120.472-54.032 120.472-120.472z" />
<glyph unicode="&#xe61c;" glyph-name="uniE61C" d="M935.394 787.908l-84.51 84.57c-34.034 34.094-93.666 34.094-127.818 0l-545.552-545.61-103.724-318.524 316.116 106.314 545.432 545.49c35.298 35.178 35.298 92.52 0.060 127.76zM186.368 159.232l38.852 119.206 116.496-116.554-118.242-39.754-37.104 37.106zM262.324 326.446l330.872 330.872 127.158-127.096-330.932-330.932-127.096 127.158zM635.784 699.964l43.912 43.912 127.158-127.096-43.912-43.912-127.158 127.096zM892.808 702.736l-43.37-43.37-127.158 127.096 43.37 43.43c11.384 11.384 31.202 11.384 42.586 0l84.51-84.57c11.806-11.806 11.806-30.84 0.060-42.586z" />
<glyph unicode="&#xe61d;" glyph-name="uniE61D" d="M993.822 848.986l-84.51 84.51c-34.092 34.094-93.666 34.094-127.818 0l-453.932-453.932-103.724-318.464 316.176 106.316 453.812 453.812c17.048 17.048 26.442 39.754 26.442 63.91s-9.398 46.802-26.442 63.85zM336.354 311.99l38.43 117.88 115.652-115.592-116.978-39.334-37.106 37.044zM411.528 478.358l240.098 240.098 127.096-127.096-240.098-240.098-127.096 127.096zM694.212 761.044l43.912 43.912 127.096-127.096-43.912-43.912-127.096 127.096zM951.236 763.814l-43.37-43.43-127.096 127.096 43.37 43.43c11.446 11.384 31.262 11.384 42.586 0l84.51-84.51c5.662-5.722 8.794-13.252 8.794-21.322s-3.132-15.542-8.794-21.264zM903.528 508.236h60.236v-572.236h-963.764v903.528h451.764v-60.236h-391.528v-783.058h843.294v512z" />
<glyph unicode="&#xe61e;" glyph-name="uniE61E" d="M903.528 839.528v120.472h-783.058v-120.472h-31.082c-49.272 0-89.388-40.658-89.388-90.654v-180.104c0-49.996 40.116-90.654 89.388-90.654h362.858c16.564 0 30.118-13.552 30.118-30.118v-90.352h-60.716v-421.646h180.706v421.646h-59.754v90.352c0 49.814-40.538 90.352-90.354 90.352h-362.858c-16.022 0-29.154 13.674-29.154 30.42v180.104c0 16.746 13.132 30.418 29.154 30.418h31.082v-180.706h783.058v180.706h60.236v60.236h-60.236zM542.118-3.764h-60.236v301.176h60.236v-301.176zM843.294 658.824h-662.588v240.94h662.588v-240.94z" />
<glyph unicode="&#xe61f;" glyph-name="uniE61F" d="M1005.99 368.61l-534.168 537.54-8.072-8.010c-40.238 39.816-93.486 61.8-150.168 61.862 0 0 0 0-0.060 0-57.104 0-110.894-22.288-151.312-62.706-40.478-40.418-62.766-94.148-62.766-151.432 0-56.682 22.046-109.93 61.862-150.168l-133-133.060c-18.252-18.312-28.31-42.526-28.31-68.248 0-25.842 10-49.996 28.13-68.066l289.792-292.682c18.19-18.192 42.406-28.25 68.126-28.25 25.842 0 50.056 10.12 68.248 28.37l334.788 334.788 216.908 0.060zM159.684 745.924c0 41.080 16.022 79.692 45.116 108.786 29.094 29.032 67.644 45.056 108.724 45.056 0.060 0 0.060 0 0.060 0 40.598 0 78.666-15.782 107.58-44.212l-217.208-217.27c-28.492 28.974-44.272 67.042-44.272 107.64zM411.588 76.288c-6.808-6.808-15.962-10.662-25.6-10.662s-18.734 3.736-25.418 10.48l-219.016 221.304h491.158l-221.124-221.124zM692.948 357.648h-611.086l-11.022 11.204c-6.866 6.808-10.6 15.842-10.6 25.48 0 9.698 3.796 18.794 10.662 25.72l400.806 400.806 389.602-392.072-97.22-0.060-71.138-71.078zM944.972 239.646l-24.516 36.382-25.178-36.020c-19.216-27.528-82.1-121.134-82.1-168.538 0-58.126 47.284-105.412 105.412-105.412s105.412 47.346 105.412 105.472c0 47.104-60.476 140.59-79.028 168.116zM918.588 26.352c-24.876 0-45.176 20.298-45.176 45.176 0 14.456 21.022 55.416 46.14 95.834 24.094-40.358 44.212-81.258 44.212-95.834 0-24.876-20.298-45.176-45.176-45.176z" />
<glyph unicode="&#xe620;" glyph-name="uniE620" d="M512 929.882c-265.698 0-481.882-216.184-481.882-481.882s216.184-481.882 481.882-481.882 481.882 216.184 481.882 481.882-216.184 481.882-481.882 481.882zM512 869.648c105.412 0 201.668-39.154 275.698-103.364l-593.92-593.98c-64.272 73.968-103.424 170.284-103.424 275.698 0 232.448 189.14 421.646 421.646 421.646zM512 26.352c-105.412 0-201.668 39.154-275.698 103.364l593.92 593.98c64.27-73.968 103.424-170.284 103.424-275.698 0-232.448-189.14-421.646-421.646-421.646z" />
<glyph unicode="&#xe621;" glyph-name="uniE621" d="M752.942 960h-481.882c-49.814 0-90.354-40.538-90.354-90.352v-843.294c0-49.816 40.538-90.352 90.354-90.352h481.882c49.816 0 90.352 40.538 90.352 90.352v843.294c0 49.814-40.538 90.352-90.352 90.352zM271.060 899.764h481.882c16.626 0 30.118-13.492 30.118-30.118v-90.354h-542.118v90.354c0 16.626 13.492 30.118 30.118 30.118zM783.058 719.058v-481.882h-542.118v481.882h542.118zM752.942-3.764h-481.882c-16.626 0-30.118 13.494-30.118 30.118v150.588h542.118v-150.588c0-16.626-13.494-30.118-30.118-30.118zM542.118 86.588c0-16.626-13.494-30.118-30.118-30.118s-30.118 13.494-30.118 30.118 13.492 30.118 30.118 30.118 30.118-13.494 30.118-30.118z" />
<glyph unicode="&#xe622;" glyph-name="uniE622" d="M903.528 478.118v-60.234h-783.058v60.236h783.058z" />
<glyph unicode="&#xe623;" glyph-name="uniE623" d="M512 960c-166.068 0-301.176-135.108-301.176-301.176 0-82.824 33.43-160.166 94.088-217.812 5.12-4.938 10.842-9.276 16.626-13.612l6.204-4.698c10.782-8.494 22.226-15.48 33.672-22.346v-434.236l149.322 114.508 151.852-114.508v434.236c11.446 6.866 22.95 13.914 33.732 22.408l6.204 4.638c5.784 4.336 11.446 8.674 16.626 13.612 60.596 57.644 94.028 134.986 94.028 217.812 0 166.068-135.108 301.176-301.176 301.176zM602.352 87.010l-91.918 69.332-88.788-68.126v254.494c29.034-10.058 59.392-15.178 90.354-15.178s61.32 5.12 90.354 15.178v-255.7zM677.586 484.622c-3.432-3.312-7.288-6.084-11.144-8.856l-7.408-5.662c-87.040-68.366-207.088-68.308-294.008-0.060l-7.468 5.722c-3.856 2.832-7.71 5.602-11.144 8.856-48.61 46.2-75.354 108.002-75.354 174.2 0 132.88 108.062 240.942 240.94 240.942s240.942-108.062 240.942-240.942c0-66.198-26.744-128-75.354-174.2zM659.576 748.332l11.082-59.15-109.808-20.54 69.030-116.676-51.862-30.72-65.476 110.592-65.656-110.532-51.742 30.72 69.392 116.856-106.978 20.298 11.204 59.15 113.122-21.384v112.58h60.236v-113.122l117.458 21.926z" />
<glyph unicode="&#xe624;" glyph-name="uniE624" d="M512 960c-166.068 0-301.176-135.108-301.176-301.176 0-82.824 33.43-160.166 94.088-217.812 5.12-4.938 10.842-9.276 16.626-13.612l6.204-4.698c10.782-8.494 22.226-15.48 33.672-22.346v-434.236l149.322 114.508 151.852-114.508v434.236c11.446 6.866 22.95 13.914 33.732 22.408l6.204 4.638c5.784 4.336 11.446 8.674 16.626 13.612 60.596 57.644 94.028 134.986 94.028 217.812 0 166.068-135.108 301.176-301.176 301.176zM602.352 87.010l-91.918 69.332-88.788-68.126v254.494c29.034-10.058 59.392-15.178 90.354-15.178s61.32 5.12 90.354 15.178v-255.7zM677.586 484.622c-3.432-3.312-7.288-6.084-11.144-8.856l-7.408-5.662c-87.040-68.366-207.088-68.308-294.008-0.060l-7.468 5.722c-3.856 2.832-7.71 5.602-11.144 8.856-48.61 46.2-75.354 108.002-75.354 174.2 0 132.88 108.062 240.942 240.94 240.942s240.942-108.062 240.942-240.942c0-66.198-26.744-128-75.354-174.2zM617.412 658.824c0-58.188-47.224-105.412-105.412-105.412s-105.412 47.224-105.412 105.412 47.224 105.412 105.412 105.412 105.412-47.224 105.412-105.412z" />
<glyph unicode="&#xe625;" glyph-name="uniE625" d="M641.264 899.764h-46.26c-13.976 35.418-46.322 60.236-83.908 60.236h-148.6c-17.588 0-31.926-5.422-42.526-16.144-19.034-19.096-18.914-46.442-18.794-75.474v-709.512l111.496-140.048h8.976v-82.824l60.236 41.442v41.442h8.856l111.616 140.048v680.6h38.912c20.298 0 21.322-32.526 21.322-39.032v-256.964h60.236v256.964c0.060 58.428-33.49 99.268-81.558 99.268zM362.496 899.764h148.6c17.168 0 31.082-17.528 31.082-39.032v-201.908h-180.766v209.86c0 11.686-0.12 29.336 1.084 31.082zM461.824 79.058h-20.058l-80.294 100.894-0.060 418.634h180.706v-418.634l-80.294-100.894z" />
<glyph unicode="&#xe626;" glyph-name="uniE626" d="M943.526 617.624l-32.768 32.768c4.698 10.782 7.65 22.168 8.374 33.852 1.566 26.202-7.288 50.296-25.058 68.066l-105.11 105.11c-12.408 12.408-26.322 18.674-41.382 18.674-27.046 0-46.322-19.456-66.74-40.118l-544.286-544.286-20.18-177.996 6.326-6.264-58.548-58.548 71.862-13.372 29.336 29.274 6.264-6.264 177.936 20.058 523.866 523.928 27.466-27.466c4.336-4.336 5.662-8.674 4.578-14.758-1.566-8.494-7.77-18.674-17.048-27.95l-181.67-181.73 42.586-42.586 181.67 181.73c18.25 18.19 29.938 38.852 33.732 59.634 4.698 25.66-2.832 49.934-21.202 68.246zM321.836 136.162l-128.182-14.518-14.156 14.154 14.576 128.060 338.644 338.644 127.76-127.76-338.642-338.584zM703.066 517.332l-127.76 127.76 148.42 148.42c8.192 8.374 20.6 20.902 22.648 21.324l105.11-105.112c7.228-7.228 7.77-16.744 7.528-21.744-0.602-10.12-5.302-19.938-13.13-27.83l-142.818-142.818z" />
<glyph unicode="&#xe627;" glyph-name="uniE627" d="M912.324 426.678l-370.206 370.266v-800.708h-60.236v800.708l-370.206-370.266-42.646 42.646 442.97 442.91 442.97-442.97-42.648-42.586z" />
<glyph unicode="&#xe628;" glyph-name="uniE628" d="M946.116 449.688l-442.97-442.97-42.586 42.586 370.206 370.206h-770.53v60.236h770.59l-370.266 370.326 42.586 42.586 442.97-442.97z" />
<glyph unicode="&#xe629;" glyph-name="uniE629" d="M963.764 419.568h-770.59l370.206-370.206-42.586-42.586-442.91 442.91 442.97 442.97 42.586-42.586-370.266-370.266h770.59v-60.236z" />
<glyph unicode="&#xe62a;" glyph-name="uniE62A" d="M954.97 426.678l-442.97-442.91-442.97 442.91 42.586 42.586 370.266-370.206v800.708h60.234v-800.708l370.206 370.206 42.648-42.586z" />
<glyph unicode="&#xe62b;" glyph-name="uniE62B" d="M572.236 299.098c0-22.046-12.47-40.478-30.118-50.96v-129.748h-60.236v129.688c-17.71 10.48-30.118 28.914-30.118 51.020 0 33.25 26.926 60.236 60.236 60.236 33.19 0 60.234-26.924 60.234-60.236zM901.422 450.408v-426.466c0-49.816-40.538-90.354-90.352-90.354h-601.69c-49.814 0-90.352 40.538-90.352 90.352v426.466c0 49.814 40.538 90.354 90.352 90.354h1.446v119.748c0 166.068 135.108 301.176 301.176 301.176s301.176-135.108 301.176-301.176v-119.99c48.85-1.084 88.246-41.020 88.246-90.112zM271.060 540.762h481.882v119.748c0 132.88-108.062 240.942-240.942 240.942s-240.942-108.062-240.942-240.942v-119.748zM841.186 450.408c0 15.902-12.47 28.552-28.010 29.696v-0.24h-602.352v0.664h-1.446c-16.564 0-30.118-13.492-30.118-30.118v-426.466c0-16.626 13.552-30.118 30.118-30.118h601.69c16.566 0 30.118 13.494 30.118 30.118v426.466z" />
<glyph unicode="&#xe62c;" glyph-name="uniE62C" d="M118.724 841.576l318.524-849.378 73.004 457.848 457.848 73.004-849.378 318.524zM457.668 502.694l-44.032-275.998-191.97 511.94 511.94-191.97-275.938-43.972z" />
<glyph unicode="&#xe62d;" glyph-name="uniE62D" d="M782.034 541.966l-56.5-56.5-42.586 42.586 56.5 56.5c58.73 58.728 58.73 154.264 0 212.932s-154.264 58.728-212.932 0l-179.924-179.984c-58.728-58.73-58.728-154.264 0-212.932s154.264-58.73 212.932 0l42.586-42.586c-41.14-41.14-95.050-61.62-149.082-61.62s-107.942 20.54-149.022 61.62c-82.162 82.162-82.162 215.944 0 298.104l179.924 179.924c82.222 82.222 215.882 82.222 298.104 0 82.222-82.102 82.222-215.884 0-298.044zM363.942 476.070l-7.832-7.77 42.466-42.708 7.892 7.832c58.728 58.728 154.262 58.728 212.932 0s58.73-154.264 0-212.932l-182.092-182.212c-58.728-58.73-154.264-58.73-212.932 0s-58.73 154.264 0 212.932l63.73 63.788-42.586 42.586-63.728-63.788c-82.162-82.162-82.162-215.944 0-298.104 41.14-41.14 95.050-61.622 149.082-61.622s107.942 20.54 149.082 61.62l182.092 182.152c82.162 82.162 82.162 215.944 0 298.104-82.28 82.342-216.004 82.162-298.104 0.12z" />
<glyph unicode="&#xe62e;" glyph-name="uniE62E" d="M0 960v-1024h1024v1024h-1024zM60.234 598.588h542.118v-602.352h-542.118v602.352zM963.764-3.764h-301.176v602.352h301.176v-602.352zM60.234 658.824v240.94h903.528v-240.94h-903.528z" />
<glyph unicode="&#xe62f;" glyph-name="uniE62F" d="M783.058 899.764h-783.058v-662.588h783.058v662.588zM722.824 297.412h-662.588v542.118h662.588v-542.118zM1024 658.824v-662.588h-783.058v182.572h60.236v-122.338h662.588v542.118h-121.434v60.236h181.67z" />
<glyph unicode="&#xe630;" glyph-name="uniE630" d="M662.588 899.764h-662.588v-542.118h662.588v542.118zM602.352 417.882h-542.118v421.648h542.118v-421.648zM843.294 176.942h-662.588v119.326h60.236v-59.092h542.118v421.648h-59.874v60.234h120.11v-542.118zM1024 538.354v-542.118h-662.588v119.326h60.236v-59.092h542.118v421.646h-59.874v60.234h120.108z" />
<glyph unicode="&#xe631;" glyph-name="uniE631" d="M892.144 580.578l42.586 42.586-104.388 104.388 45.598 45.356-42.466 42.706-490.678-488.328c-29.154 20.24-64.452 32.226-102.582 32.226-99.63 0-180.706-81.076-180.706-180.706s81.076-180.706 180.706-180.706 180.706 81.076 180.706 180.706c0 39.816-13.372 76.378-35.238 106.254l317.080 315.512 104.688-104.69 42.586 42.586-104.63 104.568 42.226 42.044 104.508-104.508zM240.158 58.338c-66.44 0-120.472 54.030-120.472 120.472s54.032 120.472 120.472 120.472 120.472-54.030 120.472-120.472-54.032-120.472-120.472-120.472z" />
<glyph unicode="&#xe632;" glyph-name="uniE632" d="M512 136.162l-292.322 290.936 42.466 42.706 219.738-218.714v650.36h60.234v-650.36l219.678 218.654 42.466-42.706-292.262-290.876zM963.764 416.076v-389.722c0-16.626-13.494-30.118-30.118-30.118h-843.294c-16.626 0-30.118 13.494-30.118 30.118v390.024h-60.234v-390.024c0-49.816 40.538-90.352 90.352-90.352h843.294c49.816 0 90.352 40.538 90.352 90.352v389.722h-60.236z" />
<glyph unicode="&#xe633;" glyph-name="uniE633" d="M60.234 899.764v-903.528h903.528v903.528h-903.528zM903.528 56.472h-783.058v120.472h783.058v-120.472zM120.472 237.176v602.352h783.058v-602.352h-783.058zM855.522 347.708l-41.984-43.188-145.588 141.492-93.606-100.954-149.746 265.94-204.86-299.672-49.754 33.972 259.614 379.664 156.852-278.408 79.33 85.654 189.74-184.5z" />
<glyph unicode="&#xe634;" glyph-name="uniE634" d="M752.942 920.366c-104.75 0-195.826-59.754-240.942-146.914-45.116 87.16-136.192 146.914-240.942 146.914-149.444 0-271.060-121.616-271.060-271.058 0-20.662 2.892-42.104 9.276-67.344l6.566-21.144c86.258-262.264 461.342-565.79 477.304-578.5l18.854-15.178 18.854 15.178c16.986 13.674 417.19 337.198 477.486 579.102l6.746 22.168c6.084 24.214 8.914 45.116 8.914 65.716 0 149.444-121.616 271.060-271.060 271.060zM957.078 599.794l-6.808-22.286c-48.73-195.524-358.158-465.438-438.272-532.662-77.222 65.236-368.76 321.476-438.814 534.408l-6.024 19.034c-4.638 18.732-6.926 35.418-6.926 51.020 0 116.254 94.568 210.824 210.824 210.824s210.824-94.63 210.824-210.824v-15.178h60.236v15.178c0 116.254 94.568 210.824 210.824 210.824s210.824-94.57 210.824-210.824c0-15.54-2.288-31.744-6.686-49.512z" />
<glyph unicode="&#xe635;" glyph-name="uniE635" d="M9.216 581.962c-6.326 25.24-9.216 46.682-9.216 67.344 0 149.444 121.614 271.058 271.060 271.058 104.748 0 195.824-59.752 240.94-146.914 45.116 87.16 136.192 146.914 240.942 146.914 149.444 0 271.058-121.616 271.058-271.058 0-20.6-2.832-41.442-8.856-65.716l-6.808-22.168c-4.88-19.938-13.734-43.43-27.288-72.222l-54.452 25.66c11.806 25.178 19.396 45.116 23.794 62.704l6.746 22.226c4.398 17.77 6.626 33.974 6.626 49.514 0 116.254-94.568 210.824-210.824 210.824s-210.824-94.63-210.824-210.824h-60.236c0 116.254-94.57 210.824-210.824 210.824s-210.824-94.63-210.824-210.824c0-15.602 2.29-32.286 6.986-51.020l6.024-19.034c5.662-17.288 14.156-37.224 26.564-62.222l-53.97-26.866c-13.734 27.708-23.252 50.176-29.996 70.656l-6.626 21.144zM511.94 43.76c-48.55 38.13-186.85 152.576-299.73 301.96l-48.008-36.382c144.204-190.764 322.5-322.38 329.968-327.86l17.95-13.13 17.83 13.252c7.77 5.722 191.97 143 333.462 327.56l-47.768 36.682c-111.316-145.106-254.134-262.988-303.706-302.080zM853.654 513.356l-170.586-120.472-170.586 120.472-170.646-120.472-170.888 120.41-188.296-132.638 34.696-49.272 153.6 108.302 170.888-120.53 170.646 120.472 170.586-120.472 170.586 120.472 152.938-108.182 34.816 49.152-187.752 132.76z" />
<glyph unicode="&#xe636;" glyph-name="uniE636" d="M843.294 694.784v-437.188c0-51.562-20.298-112.46-38.25-166.13-10.782-32.408-21.986-65.836-21.986-80.174v-45.176c0-16.626-13.494-30.118-30.118-30.118s-30.118 13.494-30.118 30.118v45.176c0 24.094 11.082 57.224 25.118 99.208 15.6 46.984 35.116 105.352 35.116 147.096v437.188c0 16.566-12.408 29.094-28.792 29.094-16.746 0-30.84-12.65-31.384-28.19 0-0.182-0.12-0.36-0.12-0.542l0.060-232.508c0-16.626-13.494-30.118-30.118-30.118s-30.118 13.494-30.118 30.118l-0.060 246.122c0 0.3 0.182 0.542 0.182 0.904v84.69c0 13.976-8.432 29.094-26.866 29.094-16.504 0-31.804-12.65-32.768-27.106-0.060-0.784-0.602-1.506-0.722-2.348v-269.854c0-16.626-13.494-30.118-30.118-30.118s-30.118 13.432-30.118 30.118v294.912c0 1.324 0.602 2.53 0.784 3.794v47.886c0 15.722-14.518 29.034-31.624 29.034-16.806 0-29.938-12.71-29.938-29.034v-52.164c0.12-0.904 0.542-1.688 0.542-2.65v0-294.912c0-16.626-13.492-30.118-30.118-30.118s-30.118 13.492-30.118 30.118v0 276.6c0 0.24-0.18 0.422-0.24 0.664-1.988 14.336-14.938 25.178-30.118 25.178-16.806 0-30.418-13.072-30.418-29.094v-343.642c0-12.528-7.71-23.732-19.396-28.13-11.504-4.398-24.878-1.206-33.19 8.132l-67.284 75.534c-23.672 27.648-39.514 18.732-45.356 15.36-6.986-3.916-11.986-10.3-13.974-17.89-1.928-7.288-0.842-14.938 3.012-21.504l198.296-422.188c2.772-4.398 9.516-9.336 17.71-11.324 13.552-3.254 23.010-15.36 23.010-29.274v-53.308c0-16.626-13.492-30.118-30.118-30.118s-30.118 13.494-30.118 30.118v32.888c-13.914 7.71-25.48 18.914-33.732 32.828l-198.234 422.25c-10.842 18.010-14.156 42.044-8.072 65.114 6.204 23.312 21.324 42.766 42.526 54.814 40.718 22.95 85.656 12.408 120.472-28.19l14.276-16.024v264.552c0 49.272 40.658 89.328 90.654 89.328 10.48 0 20.662-1.806 30.118-5.12 4.036 45.598 42.766 81.438 89.812 81.438 48.248 0 87.884-36.382 91.618-82.342 10.3 3.856 21.444 6.024 33.010 6.024 48.85 0 87.1-39.212 87.1-89.328v-15.782c9.818 3.554 20.36 5.48 31.322 5.48 49.876 0.060 88.968-39.154 88.968-89.27z" />
<glyph unicode="&#xe637;" glyph-name="uniE637" d="M918.106 633.524l-71.56-485.736c-7.108-36.864-23.432-53.006-35.298-64.812-11.504-11.446-19.154-19.034-19.154-56.2v-60.658c0-16.626-13.494-30.118-30.118-30.118s-30.118 13.494-30.118 30.118v60.658c0 57.524 16.746 78.848 36.984 98.906 9.336 9.276 14.938 14.878 18.312 32.166l71.38 484.232c1.084 7.41 3.072 32.528-16.444 35.238-6.746 0.964-12.228-0.12-16.566-3.432-5.784-4.278-9.88-12.588-11.324-22.77l-29.938-199.74c-1.506-10.3-8.312-19.034-17.83-23.192s-20.54-3.012-29.154 2.952c-3.012-0.482-8.072 1.384-13.13 4.698-9.156 5.842-14.396 16.144-13.794 26.986l17.168 318.404c1.384 16.746-10.24 30.66-26.022 32.046-7.65 0.722-15-1.688-20.842-6.566-5.904-4.94-9.398-11.806-10.058-19.336l-27.89-288.046c-1.566-16.202-14.396-27.95-31.986-27.166-4.88 0.3-9.818 0.602-14.818 0.664-16.202 0.36-29.214 13.432-29.514 29.576l-6.928 368.58c0 16.144-12.65 28.792-28.19 28.792s-28.19-12.65-28.19-28.19l-7.108-396.71c-0.24-11.444-6.868-21.806-17.226-26.684-3.736-1.806-7.348-3.614-10.782-5.542-8.856-5.060-19.638-5.24-28.672-0.482-9.036 4.698-15.118 13.674-16.142 23.794l-31.022 320.994c-0.664 7.89-4.216 14.758-10 19.638-5.844 4.878-13.734 7.108-20.782 6.566-7.59-0.664-14.396-4.216-19.274-10.058-4.82-5.784-7.168-13.13-6.504-20.66l30.298-427.49c0.964-13.13-6.808-25.418-19.096-30.178-12.408-4.818-26.382-1.024-34.514 9.336l-93.426 117.64c-12.228 20.48-33.852 26.202-50.598 16.504-8.192-4.76-14.034-12.348-16.444-21.444-2.408-9.034-1.206-18.552 3.614-26.684l212.57-366.652c4.82-8.374 12.71-14.216 22.106-16.504 13.492-3.254 23.010-15.36 23.010-29.274v-41.562c0-16.626-13.492-30.118-30.118-30.118s-30.118 13.494-30.118 30.118v21.082c-15.3 8.252-28.010 20.54-36.984 36.020l-212.632 366.652c-12.83 22.046-16.264 47.768-9.638 72.404 6.504 24.696 22.348 45.298 44.514 58.126 45.658 26.324 104.086 10.662 130.348-34.876l30.478-38.19-23.432 330.27c-2.048 23.010 5.18 46.020 20.36 64.212 15.178 18.072 36.622 29.214 60.176 31.322 23.914 2.168 46.682-5.24 64.872-20.48 8.794-7.408 15.842-16.202 21.082-25.962l0.844 45.356c0 48.308 39.694 87.944 88.424 87.944s88.424-39.696 88.424-88.486l0.842-44.936c5.302 9.818 12.408 18.674 21.264 26.142 18.25 15.3 41.442 22.648 64.934 20.48 48.85-4.278 85.052-47.464 80.776-96.256l-3.192-58.91c1.566 1.384 3.254 2.712 4.88 3.976 17.348 13.010 38.37 18.072 61.32 14.938 47.284-6.566 75.174-49.152 67.584-103.424z" />
<glyph unicode="&#xe638;" glyph-name="uniE638" d="M841.066 622.682v-352.014c0-46.802-23.070-74.752-39.936-95.112-14.096-17.106-21.444-26.684-21.444-41.802v-107.4c0-16.626-13.494-30.118-30.118-30.118s-30.118 13.494-30.118 30.118v107.4c0 37.528 19.576 61.198 35.298 80.174 14.576 17.65 26.142 31.562 26.142 56.682v352.074c0 18.794-16.144 36.504-33.19 36.504-19.818 0-24.034-3.072-24.216-3.192-3.976-5.36-3.856-34.274-3.794-57.584 0.060-11.384 0.12-24.094-0.12-38.070-0.24-16.504-12.83-28.792-30.36-29.696-16.504 0.12-29.876 13.552-29.876 30.118v127.7c0 18.492-13.372 32.406-31.082 32.406-16.264 0-28.19-12.106-29.636-29.394v-120.65c0-16.626-13.494-30.118-30.118-30.118s-30.118 13.494-30.118 30.118v0 121.132c0 0.182-0.12 0.362-0.12 0.602v46.562c0 3.976-0.842 38.672-28.552 38.672-27.106 0-31.202-24.216-31.202-38.672v-42.344c0-1.688-0.664-3.254-0.964-4.88v-156.25c0-16.626-13.492-30.118-30.118-30.118s-30.118 13.492-30.118 30.118v0 161.672c-2.892 11.686-11.324 23.492-28.070 23.492-17.226 0-31.744-15.722-31.744-34.334v-201.788c0-0.422-0.36-0.784-0.36-1.204v-66.32c0-16.626-13.492-30.118-30.118-30.118s-30.118 13.494-30.118 30.118v50.236c-10.6 3.856-25.962 6.988-34.756 5-7.108-1.384-14.276-7.65-18.734-16.324-3.554-6.808-8.312-20.902-0.542-38.37l102.28-223.894c0.964-2.108 1.626-4.278 2.108-6.504 3.372-16.566 18.794-27.466 35.418-25.962 8.372 1.084 16.926-1.808 23.31-7.528 6.324-5.722 10-13.854 10-22.408v-105.050c0-16.626-13.492-30.118-30.118-30.118s-30.118 13.494-30.118 30.118v77.462c-32.286 8.374-58.368 33.792-66.68 67.764l-101.134 221.366c-13.252 29.876-12.468 62.824 1.928 90.774 12.89 24.878 35.418 42.706 60.296 47.766 12.65 2.59 29.756 1.868 46.682-1.566v43.37c0 0.602 0.3 1.144 0.36 1.748v111.434c0 52.164 41.322 94.568 91.978 94.568 12.048 0 23.612-2.408 34.094-6.746 11.988 38.792 44.152 63.668 86.318 63.668 40.236 0 71.8-25.418 83.668-63.91 10.722 4.518 22.468 6.986 34.876 6.986 41.502 0 75.776-26.744 87.16-64.572 11.024 2.408 22.226 2.952 32.286 2.952 50.718 0 93.486-44.274 93.486-96.738z" />
<glyph unicode="&#xe639;" glyph-name="uniE639" d="M481.882 719.058l-117.94 120.472h-363.942v-903.528h1024v783.058h-542.118zM338.642 779.294l117.94-120.472h507.18v-122.096l-903.528 1.566v241.002h278.408zM60.234-3.764v481.822l903.528-1.566v-480.256h-903.528z" />
<glyph unicode="&#xe63a;" glyph-name="uniE63A" d="M783.058 357.164v556.454l-715.534-278.226 715.534-278.226zM722.824 445.168l-489.17 190.224 489.17 190.282v-380.506zM903.528 960v-1024h-60.236v1024h60.236z" />
<glyph unicode="&#xe63b;" glyph-name="uniE63B" d="M903.528 960v-1024h-60.236v1024h60.236zM91.978 901.21h691.080v-481.882h-692.104l175.346 238.050-174.32 243.832zM722.824 840.976h-513.688l131.614-184.080-130.59-177.332h512.664v361.412z" />
<glyph unicode="&#xe63c;" glyph-name="uniE63C" d="M903.528 960v-1024h-60.236v1024h60.236zM300.214 899.764h481.882v-481.882h-300.214v-120.472h-421.646v481.882h239.976v120.472zM421.646 417.882h-120.472v301.176h-180.706v-361.412h301.176v60.236zM360.448 839.528v-60.236h0.964v-301.176h360.448v361.412h-361.412z" />
<glyph unicode="&#xe63d;" glyph-name="uniE63D" d="M1021.892 428.904c-77.342 196.788-282.322 329.066-509.892 329.066s-432.55-132.278-509.892-329.066c-2.77-7.048-2.77-14.938 0-21.986 77.402-196.85 282.322-329.126 509.892-329.126s432.49 132.216 509.892 329.064c2.83 7.108 2.83 14.938 0 22.046zM512 138.028c-198.656 0-377.616 111.976-449.296 279.854 71.62 167.876 250.58 279.854 449.296 279.854s377.674-111.978 449.296-279.854c-71.68-167.816-250.64-279.854-449.296-279.854zM512 637.32c-121.014 0-219.438-98.424-219.438-219.436s98.424-219.438 219.496-219.438c120.952 0 219.438 98.424 219.438 219.438s-98.486 219.438-219.498 219.438zM512 258.68c-87.822 0-159.262 71.438-159.262 159.202s71.498 159.202 159.262 159.202c87.764 0 159.202-71.438 159.202-159.202s-71.38-159.202-159.202-159.202zM512 499.622c-45.056 0-81.74-36.682-81.74-81.738s36.682-81.74 81.74-81.74 81.74 36.682 81.74 81.74-36.682 81.74-81.74 81.74zM512 396.378c-11.866 0-21.504 9.638-21.504 21.504s9.638 21.504 21.504 21.504 21.504-9.638 21.504-21.504-9.638-21.504-21.504-21.504z" />
<glyph unicode="&#xe63e;" glyph-name="uniE63E" d="M262.566 601.24l-43.248 41.984 292.682 301.478 292.682-301.478-43.25-41.924-219.318 225.882v-648.554h-60.236v648.552l-219.318-225.942zM963.764 416.076v-389.722c0-16.626-13.494-30.118-30.118-30.118h-843.294c-16.626 0-30.118 13.494-30.118 30.118v390.024h-60.234v-390.024c0-49.816 40.538-90.352 90.352-90.352h843.294c49.816 0 90.352 40.538 90.352 90.352v389.722h-60.236z" />
<glyph unicode="&#xe63f;" glyph-name="uniE63F" d="M361.412 53.88v424.238h-60.236v-424.238l-219.618 219.618-42.586-42.586 292.322-292.322 292.382 292.382-42.586 42.586-219.678-219.678zM330.572 24.486h1.384l-0.664-0.722-0.724 0.722zM942.442 622.442l-219.618 219.678v-427.43h-60.236v427.43l-219.618-219.678-42.646 42.646 292.382 292.322 292.382-292.382-42.648-42.586z" />
<glyph unicode="&#xe640;" glyph-name="uniE640" d="M120.472 297.412h783.058v481.882h-783.058v-481.882zM180.706 719.058h662.588v-361.412h-662.588v361.412zM933.648 899.764h-843.294c-49.814 0-90.352-38.43-90.352-85.716v-611.628c0-47.284 40.538-85.716 90.352-85.716h843.294c49.814 0 90.352 38.43 90.352 85.716v611.63c0 47.284-40.538 85.716-90.352 85.716zM963.764 202.422c0-14.096-13.552-25.48-30.118-25.48h-843.294c-16.564 0-30.118 11.384-30.118 25.48v611.63c0 14.096 13.552 25.48 30.118 25.48h843.294c16.566 0 30.118-11.384 30.118-25.48v-611.63zM301.176 56.472h421.646v-60.236h-421.646v60.236z" />
<glyph unicode="&#xe641;" glyph-name="uniE641" d="M1023.94 899.764h-135.952c0.060 10.12 0.482 19.758 0.482 30.118v30.118h-752.942v-30.118c0-9.638 0.242-20.058 0.3-30.118h-135.77l-0.060-30.058c-0.18-65.416 3.734-132.456 11.746-199.38 21.202-176.91 76.558-381.952 168.358-426.888 11.686-5.784 23.794-8.674 35.9-8.674 14.336 0 28.854 4.096 42.586 12.408l12.588 8.432c50.176-76.92 118.664-128.842 210.702-138.42v-120.952h-177.876v-60.236h421.648v60.236h-183.538v120.29c85.232 8.976 155.708 56.32 210.402 139.264l14.096-9.336c13.010-7.832 26.924-11.686 41.020-11.686 12.106 0 24.336 2.89 36.262 8.734 91.798 44.936 147.154 249.976 168.358 426.888 8.010 66.86 11.926 133.962 11.746 199.378l-0.060 29.998zM240.218 307.41l-13.794-9.276c-6.746-3.976-12.288-4.216-19.758-0.602-47.284 23.192-108.906 161.13-135.108 380.024-6.504 54.212-10.18 108.544-11.082 161.972h76.68c5.842-176.128 30.902-389.602 107.942-539.466l-4.878 7.35zM512 174.472c-273.468 0-313.164 484.894-316.056 725.294h632.11c-2.952-284.37-50.476-725.294-316.056-725.294zM952.44 677.558c-26.264-218.894-87.822-356.834-135.108-380.024-7.408-3.674-13.010-3.494-18.552-0.182l-15.058 10.058-6.986-10.48c64.994 122.76 102.822 305.152 110.29 542.6h76.558c-0.964-53.428-4.638-107.76-11.144-161.972z" />
<glyph unicode="&#xe642;" glyph-name="uniE642" d="M760.53 553.834l-245.942 401.95-253.652-402.072-271 230.882 104.748-788.36h834.56l104.69 787.576-273.408-229.978zM147.396 56.472l-8.010 60.236h745.172l-8.010-60.236h-729.148zM892.568 176.942h-761.134l-61.14 460.018 204.558-174.2 238.952 378.88 231.966-379 208.052 175.044-61.26-460.74z" />
<glyph unicode="&#xe643;" glyph-name="uniE643" d="M1024 869.648v-480.014c0-49.816-40.538-90.352-90.352-90.352h-30.6v60.236h30.6c16.626 0 30.118 13.552 30.118 30.118v480.014c0 16.566-13.494 30.118-30.118 30.118h-843.294c-16.626 0-30.118-13.552-30.118-30.118v-480.014c0-16.566 13.492-30.118 30.118-30.118h90.354v-174.2l107.158 94.51 39.816-45.176-207.21-182.814v247.448h-30.118c-49.814 0-90.352 40.538-90.352 90.352v480.014c0 49.814 40.538 90.352 90.352 90.352h843.294c49.814 0 90.352-40.538 90.352-90.352zM844.5 385.356v-183.296c0-49.816-40.538-90.352-90.352-90.352h-30.118v-184.562l-220.884 184.562h-51.38c-49.814 0-90.354 40.538-90.354 90.352v183.296c0 49.816 40.538 90.354 90.354 90.354h302.38c49.816 0 90.352-40.538 90.352-90.354zM784.264 385.356c0 16.566-13.494 30.118-30.118 30.118h-302.38c-16.626 0-30.118-13.552-30.118-30.118v-183.296c0-16.566 13.492-30.118 30.118-30.118h73.306l138.722-116.014v116.014h90.352c16.626 0 30.118 13.552 30.118 30.118v183.296z" />
<glyph unicode="&#xe644;" glyph-name="uniE644" d="M933.648 960h-843.294c-49.814 0-90.352-40.538-90.352-90.352v-602.352c0-49.816 40.538-90.352 90.352-90.352h30.118v-247.084l282.382 247.086h530.794c49.814 0 90.352 40.538 90.352 90.352v602.352c0 49.816-40.538 90.352-90.352 90.352zM963.764 267.294c0-16.566-13.494-30.118-30.118-30.118h-553.442l-199.498-174.562v174.562h-90.352c-16.626 0-30.118 13.552-30.118 30.118v602.352c0 16.566 13.492 30.118 30.118 30.118h843.294c16.626 0 30.118-13.552 30.118-30.118v-602.352z" />
<glyph unicode="&#xe645;" glyph-name="uniE645" d="M933.648 960h-843.294c-49.814 0-90.352-40.538-90.352-90.352v-602.352c0-49.816 40.538-90.352 90.352-90.352h30.118v-247.084l282.382 247.086h530.794c49.814 0 90.352 40.538 90.352 90.352v602.352c0 49.816-40.538 90.352-90.352 90.352zM963.764 267.294c0-16.566-13.494-30.118-30.118-30.118h-553.442l-199.498-174.562v174.562h-90.352c-16.626 0-30.118 13.552-30.118 30.118v602.352c0 16.566 13.492 30.118 30.118 30.118h843.294c16.626 0 30.118-13.552 30.118-30.118v-602.352zM180.706 779.294h662.588v-60.236h-662.588v60.236zM180.706 658.824h662.588v-60.236h-662.588v60.236zM180.706 538.354h361.412v-60.236h-361.412v60.236z" />
<glyph unicode="&#xe646;" glyph-name="uniE646" d="M554.586 448l400.324-400.324-42.586-42.586-400.324 400.324-400.324-400.324-42.586 42.586 400.324 400.324-400.384 400.324 42.586 42.586 400.384-400.324 400.324 400.324 42.586-42.586-400.324-400.324z" />
<glyph unicode="&#xe647;" glyph-name="uniE647" d="M724.088 704.964v-511.88h-60.236v511.88c0 65.716-48.128 136.494-153.842 136.494-116.918 0-148.12-85.776-148.12-136.494v-489.17h0.422v-87.764c0-37.346 41.742-72.644 85.896-72.644 50.838 0 94.388 41.14 94.388 74.752v16.264h-0.182l0.482 458.812c0 52.646-14.878 52.646-28.070 52.646-22.226 0-32.95-2.108-32.95-49.574v-309.972h-60.236v309.972c0 27.166 0 109.808 93.184 109.808 40.298 0 88.304-19.576 88.304-112.942l-0.422-387.312h0.12v-87.764c0-70.656-73.728-134.986-154.624-134.986-77.824 0-146.13 62.102-146.13 132.88v4.456h-0.422v572.536c0 94.75 65.176 196.728 208.354 196.728 140.528-0.060 214.076-98.966 214.076-196.728z" />
<glyph unicode="&#xe648;" glyph-name="uniE648" d="M985.088 243.442l-42.586-42.586-430.502 430.442-430.44-430.442-42.586 42.586 473.028 473.028 473.088-473.028z" />
<glyph unicode="&#xe649;" glyph-name="uniE649" d="M795.528 449.688l-473.088-473.088-42.586 42.586 430.44 430.44-430.44 430.562 42.586 42.586 473.088-473.088z" />
<glyph unicode="&#xe64a;" glyph-name="uniE64A" d="M313.644 449.748l430.442-430.502-42.586-42.586-473.028 473.088 473.088 473.028 42.586-42.586-430.502-430.442z" />
<glyph unicode="&#xe64b;" glyph-name="uniE64B" d="M985.088 654.306l-473.148-473.088-473.028 473.088 42.586 42.586 430.38-430.442 430.562 430.502 42.648-42.646z" />
<glyph unicode="&#xe64c;" glyph-name="uniE64C" d="M928.708 853.144l-532.058-812.274-296.238 264.192 40.116 44.936 244.014-217.69 493.81 753.846 50.356-33.010z" />
<glyph unicode="&#xe64d;" glyph-name="uniE64D" d="M843.294 612.984h60.236v-616.75h-843.294v843.294h505.554v-60.236h-445.32v-722.824h722.824v556.514zM292.382 469.322l-42.646-42.648 206.848-206.848 457.004 693.428-50.296 33.19-416.346-631.748-154.564 154.624z" />
<glyph unicode="&#xe64e;" glyph-name="uniE64E" d="M358.882 779.294v60.236h-175.646v-60.236h-183.236v-722.824h1024v722.824h-665.118zM963.764 116.706h-903.528v421.648h394.964c-20.782-35.6-33.55-76.44-33.55-120.472 0-132.88 108.062-240.942 240.942-240.942s240.942 108.062 240.942 240.942c0 44.032-12.77 84.872-33.552 120.472h93.786v-421.646zM843.294 417.882c0-99.63-81.076-180.706-180.706-180.706s-180.706 81.076-180.706 180.706 81.076 180.706 180.706 180.706 180.706-81.076 180.706-180.706zM820.284 598.588c-42.406 36.984-97.1 60.236-157.696 60.236s-115.29-23.25-157.696-60.236h-444.656v120.472h903.528v-120.472h-143.48z" />
<glyph unicode="&#xe64f;" glyph-name="uniE64F" d="M992.014 826.158h-116.072c-17.588 0-31.986-14.096-31.986-31.384v-40.178l-662.288-242.748v16.264c0 25.902-21.564 47.044-48.008 47.044h-85.656c-26.444 0-48.008-21.144-48.008-47.044v-282.384c0-25.842 21.564-47.044 48.008-47.044h85.656c26.384 0 48.008 21.202 48.008 47.044v19.938l62.284-11.384c-1.384-9.818-2.288-19.638-2.288-29.576 0-114.266 94.026-207.27 209.558-207.27 99.81 0 182.514 67.946 203.596 161.552l189.14-34.696v-39.696c0-17.288 14.396-31.384 31.986-31.384h116.072c17.59 0 31.986 14.096 31.986 31.384v690.176c0 17.288-14.396 31.384-31.986 31.384zM451.224 77.674c-82.342 0-149.324 65.958-149.324 147.034 0 6.264 1.626 12.348 2.408 18.552l291.538-53.49c-15.902-65.174-74.39-112.098-144.626-112.098zM963.764 133.452h-59.572v61.018l-782.758 143.54v-79.028h-61.198v256h61.198v-89.39l782.758 286.9v53.43h59.572v-632.472z" />
<glyph unicode="&#xe650;" glyph-name="uniE650" d="M958.524 852.662l-391.528-572.236-49.694 33.972 391.528 572.236 49.694-33.972zM542.118 117.188c0-66.44-54.032-120.472-120.472-120.472-12.228 0-32.406-0.904-32.586-0.904h-328.524l274.25 206.668c9.036 6.264 51.742 35.178 86.858 35.178 66.44 0 120.47-54.030 120.47-120.472zM481.882 117.188c0 33.19-27.046 60.236-60.236 60.236-10.54 0-35.058-12.228-51.382-23.672l-129.688-97.762h146.552c3.796 0.182 22.648 0.964 34.514 0.964 33.19 0 60.236 27.046 60.236 60.236z" />
<glyph unicode="&#xe651;" glyph-name="uniE651" d="M421.646 176.942v90.352h60.236v-30.118h60.234v30.118h60.236v-90.352h-180.706zM1024 297.412h-60.236v-361.412h-903.528v361.412h-60.234v481.882h217.812c56.5 110.23 168.96 180.706 294.188 180.706s237.75-70.536 294.19-180.706h217.81v-481.882zM287.262 779.294h449.596c-49.694 74.27-133.12 120.472-224.798 120.472s-175.104-46.26-224.798-120.472zM903.528 297.412h-783.058v-301.176h783.058v301.176zM963.764 719.058h-903.528v-361.412h903.528v361.412z" />
<glyph unicode="&#xe652;" glyph-name="uniE652" d="M862.148 838.808h-430.802l-140.408-422.49h100.352l-121.072-364.544 571.212 484.954h-174.924l195.644 302.080zM677.466 476.49l-282.322-239.676 79.63 239.676h-100.292l100.292 302.080h276.6l-195.644-302.080h121.736z" />
<glyph unicode="&#xe653;" glyph-name="uniE653" d="M712.584 478.118l-230.46-435.682-53.248 28.13 183.718 347.318h-307.742l295.152 438.452 49.934-33.672-231.966-344.546h294.61z" />
<glyph unicode="&#xe654;" glyph-name="uniE654" d="M542.118 839.528v120.472h-60.236v-120.472h-421.646v-602.352h903.528v602.352h-421.646zM903.528 297.412h-783.058v481.882h783.058v-481.882zM210.824 176.942h602.352v-60.236h-155.648l90.594-140.106-50.598-32.708-111.736 172.816h-43.672v-180.706h-60.236v180.706h-42.888l-112.58-172.876-50.476 32.828 91.196 140.048h-156.312v60.236z" />
<glyph unicode="&#xe655;" glyph-name="uniE655" d="M783.058 719.058v144.202c0 53.308-44.394 96.738-98.966 96.738h-343.282c-54.512 0-98.906-43.43-98.906-96.738v-144.202h-181.67v-783.058h903.528v783.058h-180.706zM302.14 863.262c0 20.12 17.348 36.504 38.67 36.504h343.282c21.384 0 38.73-16.384 38.73-36.504v-144.202h-420.682v144.202zM903.528-3.764h-783.058v481.882h783.058v-481.882zM903.528 538.354h-783.058v120.472h121.434v-38.73h60.234v38.73h420.682v-38.73h60.236v38.73h120.472v-120.472z" />
<glyph unicode="&#xe656;" glyph-name="uniE656" d="M819.38 276.39l-42.526 42.648 99.028 98.846h-333.764v-333.764l98.846 99.028 42.648-42.526-171.61-171.972-171.61 171.972 42.646 42.526 98.846-99.028v333.764h-333.764l99.026-98.846-42.526-42.648-171.972 171.61 171.972 171.61 42.526-42.648-99.026-98.846h333.764v333.764l-98.846-99.028-42.646 42.526 171.61 171.972 171.61-171.972-42.648-42.526-98.846 99.028v-333.764h333.764l-99.028 98.846 42.526 42.648 171.972-171.61-171.972-171.61z" />
<glyph unicode="&#xe657;" glyph-name="uniE657" d="M701.26 233.382l43.128-42.044-232.388-238.23-232.388 238.17 43.128 42.044 159.142-163.058v755.472l-159.142-163.116-43.128 42.104 232.388 238.17 232.388-238.17-43.128-42.044-159.142 163.058v-755.53l159.142 163.178z" />
<glyph unicode="&#xe658;" glyph-name="uniE658" d="M1006.894 448l-238.17-232.388-42.044 43.128 163.058 159.142h-755.472l163.116-159.142-42.044-43.128-238.23 232.388 238.17 232.388 42.044-43.128-163.056-159.142h755.53l-163.116 159.142 42.044 43.128 238.17-232.388z" />
<glyph unicode="&#xe659;" glyph-name="uniE659" d="M963.524 276.208l0.24-279.974-280.034 0.24 0.060 60.236 177.092-0.182-348.882 348.822-348.882-348.884 177.092 0.182 0.060-60.236-280.034-0.182 0.24 280.034 60.234-0.060-0.18-177.032 348.882 348.822-348.882 348.884 0.18-177.032-60.234-0.060-0.24 279.974 280.034-0.24-0.060-60.236-177.092 0.182 348.882-348.884 348.882 348.884-177.092-0.182-0.060 60.236 280.034 0.24-0.24-280.034-60.236 0.060 0.182 177.032-348.882-348.822 348.884-348.884-0.182 177.032 60.236 0.060z" />
<glyph unicode="&#xe65a;" glyph-name="uniE65A" d="M963.764 899.946v-542.298h-60.236v439.536l-621.448-620.242-42.586 42.648 621.326 620.122h-440.68v60.236h543.624z" />
<glyph unicode="&#xe65b;" glyph-name="uniE65B" d="M740.412 176.942l-621.448 620.244v-439.536h-60.234v542.298h543.624v-60.236h-440.68l621.326-620.122-42.586-42.648z" />
<glyph unicode="&#xe65c;" glyph-name="uniE65C" d="M512 611.058l262.264-262.264-42.586-42.586-219.678 219.678-219.618-219.618-42.586 42.586 262.204 262.204zM1024 448c0-282.322-229.678-512-512-512s-512 229.678-512 512 229.676 512 512 512 512-229.678 512-512zM963.764 448c0 249.134-202.632 451.764-451.764 451.764s-451.764-202.632-451.764-451.764 202.632-451.764 451.764-451.764 451.764 202.632 451.764 451.764z" />
<glyph unicode="&#xe65d;" glyph-name="uniE65D" d="M412.854 710.264l262.204-262.264-262.264-262.264-42.586 42.586 219.678 219.678-219.678 219.618 42.646 42.648zM1024 448c0-282.322-229.678-512-512-512s-512 229.678-512 512 229.676 512 512 512 512-229.678 512-512zM963.764 448c0 249.134-202.632 451.764-451.764 451.764s-451.764-202.632-451.764-451.764 202.632-451.764 451.764-451.764 451.764 202.632 451.764 451.764z" />
<glyph unicode="&#xe65e;" glyph-name="uniE65E" d="M653.794 667.618l-219.678-219.618 219.618-219.618-42.586-42.586-262.204 262.204 262.264 262.264 42.586-42.648zM1024 448c0-282.322-229.678-512-512-512s-512 229.678-512 512 229.676 512 512 512 512-229.678 512-512zM963.764 448c0 249.134-202.632 451.764-451.764 451.764s-451.764-202.632-451.764-451.764 202.632-451.764 451.764-451.764 451.764 202.632 451.764 451.764z" />
<glyph unicode="&#xe65f;" glyph-name="uniE65F" d="M731.618 589.794l42.586-42.586-262.204-262.264-262.264 262.204 42.586 42.586 219.678-219.618 219.618 219.678zM1024 448c0-282.322-229.678-512-512-512s-512 229.678-512 512 229.676 512 512 512 512-229.678 512-512zM963.764 448c0 249.134-202.632 451.764-451.764 451.764s-451.764-202.632-451.764-451.764 202.632-451.764 451.764-451.764 451.764 202.632 451.764 451.764z" />
<glyph unicode="&#xe660;" glyph-name="uniE660" d="M512 594.192l412.854-412.854-42.586-42.586-370.266 370.266-370.206-370.206-42.586 42.586 412.792 412.792zM512 800.738l370.206-370.206 42.586 42.586-412.792 412.854-412.854-412.854 42.646-42.586 370.206 370.206z" />
<glyph unicode="&#xe661;" glyph-name="uniE661" d="M580.908 448l-412.854-412.854-42.586 42.586 370.206 370.266-370.206 370.206 42.586 42.648 412.854-412.854zM459.836 860.852l-42.586-42.646 370.206-370.206-370.206-370.206 42.586-42.586 412.792 412.792-412.792 412.854z" />
<glyph unicode="&#xe662;" glyph-name="uniE662" d="M481.098 448l370.206-370.206-42.586-42.586-412.792 412.792 412.854 412.854 42.586-42.586-370.266-370.266zM559.586 818.266l-42.586 42.586-412.854-412.852 412.854-412.854 42.586 42.586-370.206 370.266 370.206 370.266z" />
<glyph unicode="&#xe663;" glyph-name="uniE663" d="M512 318.856l-412.854 412.854 42.586 42.586 370.266-370.206 370.206 370.206 42.586-42.586-412.792-412.852zM512 112.248l-370.206 370.266-42.646-42.586 412.854-412.854 412.854 412.854-42.586 42.586-370.266-370.266z" />
<glyph unicode="&#xe664;" glyph-name="uniE664" d="M582.294 960h-461.824v-1024h783.058v704.27l-321.236 319.73zM602.352 855.070l197.15-196.246h-197.15v196.246zM180.706-3.764v903.528h180.706v-60.236h60.236v60.236h120.47v-301.176h301.176v-602.352h-662.588zM301.176 478.118h60.236v-60.234h-60.236v60.236zM361.412 478.118v60.236h60.236v-60.236h-60.236zM361.412 598.588v60.236h60.236v-60.236h-60.236zM301.176 598.588h60.236v-60.234h-60.236v60.234zM301.176 719.058h60.236v-60.234h-60.236v60.234zM361.412 719.058v60.236h60.236v-60.236h-60.236zM301.176 839.528h60.236v-60.236h-60.236v60.236zM361.412 394.452c-66.44 0-120.472-54.030-120.472-120.472s54.032-120.472 120.472-120.472c3.736 0 7.288 0.422 13.192 1.206 38.912 4.278 73.368 27.408 92.22 61.802 10 18.25 15.060 37.586 15.060 57.464 0 66.44-54.032 120.472-120.472 120.472zM413.998 245.368c-9.396-17.168-26.564-28.732-45.9-30.84l-6.746-0.842c-33.19 0-60.176 27.046-60.176 60.236s27.046 60.236 60.236 60.236 60.236-27.046 60.236-60.236c0-9.576-2.59-19.216-7.65-28.552z" />
<glyph unicode="&#xe665;" glyph-name="uniE665" d="M512.964 960c-282.322 0-512-229.678-512-512s229.676-512 512-512 512 229.678 512 512-229.736 512-512 512zM62.704 417.882h176.912c2.65-61.682 12.71-122.338 30.902-180.706h-156.792c-28.972 54.572-46.742 115.832-51.018 180.706zM239.616 478.118h-176.912c4.278 64.872 22.046 126.132 51.020 180.706h156.612c-18.132-58.368-28.13-119.024-30.72-180.706zM334.126 658.824h355.146c19.878-58.128 31.442-118.784 34.274-180.706h-423.694c2.772 61.922 14.396 122.58 34.274 180.706zM299.85 417.882h423.754c-2.952-61.922-14.518-122.578-34.456-180.706h-354.846c-19.938 58.126-31.562 118.784-34.454 180.706zM783.842 417.882h179.38c-4.278-64.874-22.046-126.134-51.020-180.706h-159.262c18.192 58.368 28.25 119.024 30.9 180.706zM783.842 478.118c-2.59 61.68-12.59 122.338-30.72 180.706h159.082c28.914-54.572 46.682-115.832 51.020-180.706h-179.38zM873.532 719.058h-141.794c-23.612 57.526-55.176 111.918-93.366 162.634 95.052-27.528 176.972-85.534 235.158-162.634zM546.576 898.078c49.634-54.030 89.39-114.448 118.784-179.020h-307.32c29.334 64.512 69.030 124.868 118.664 178.9 11.988 0.904 23.974 1.808 36.262 1.808 11.324 0 22.468-0.904 33.61-1.688zM384.482 880.912c-37.888-50.478-69.332-104.63-92.762-161.852h-139.384c57.526 76.318 138.36 133.962 232.148 161.852zM152.336 176.942h139.564c23.552-57.284 55.116-111.496 93.184-161.972-94.026 27.768-175.104 85.474-232.748 161.972zM477.426-1.958c-49.754 54.030-89.63 114.388-119.144 178.9h306.838c-29.514-64.572-69.39-124.988-119.206-179.020-10.904-0.784-21.866-1.688-32.948-1.688-12.048 0-23.794 0.904-35.538 1.808zM637.712 14.126c38.31 50.718 70.114 105.23 93.786 162.816h142.034c-58.308-77.282-140.468-135.348-235.822-162.816z" />
<glyph unicode="&#xe666;" glyph-name="uniE666" d="M656.626 185.976l58.85-12.83c-30.418-139.626-151.25-237.146-293.828-237.146-166.068 0-301.176 135.108-301.176 301.176 0 136.734 92.22 256.542 224.376 291.298l15.3-58.248c-105.654-27.83-179.442-123.662-179.442-233.050 0-132.88 108.062-240.942 240.942-240.942 114.026 0 210.642 78.004 234.978 189.74zM963.764 49.182v-60.236h-112.52l-57.524 248.048h-370.928l-32.768 486.822c-51.020 14.034-88.846 60.296-88.846 115.712 0 66.44 54.032 120.472 120.472 120.472s120.472-54.030 120.472-120.472c0-56.5-39.154-103.606-91.618-116.616l16.264-241.604 218.776 54.272 14.456-58.488-229.194-56.802 8.312-123h362.496l57.524-248.048h64.632zM421.646 779.294c33.25 0 60.236 27.046 60.236 60.236s-26.986 60.236-60.236 60.236-60.236-27.046-60.236-60.236 26.986-60.236 60.236-60.236z" />
<glyph unicode="&#xe667;" glyph-name="uniE667" d="M0 960v-240.942h1024v240.942h-1024zM963.764 779.294h-903.528v120.472h903.528v-120.472zM0 357.648h1024v240.942h-1024v-240.942zM60.234 538.354h903.528v-120.472h-903.528v120.472zM0-3.764h1024v240.942h-1024v-240.942zM60.234 176.942h903.528v-120.472h-903.528v120.472z" />
<glyph unicode="&#xe668;" glyph-name="uniE668" d="M301.176 960v-240.942h722.824v240.942h-722.824zM963.764 779.294h-602.352v120.472h602.352v-120.472zM301.176 357.648h722.824v240.942h-722.824v-240.942zM361.412 538.354h602.352v-120.472h-602.352v120.472zM301.176-3.764h722.824v240.942h-722.824v-240.942zM361.412 176.942h602.352v-120.472h-602.352v120.472zM0 719.058h240.942v240.942h-240.942v-240.942zM60.234 899.764h120.472v-120.472h-120.472v120.472zM0 357.648h240.942v240.942h-240.942v-240.942zM60.234 538.354h120.472v-120.472h-120.472v120.472zM0-3.764h240.942v240.942h-240.942v-240.942zM60.234 176.942h120.472v-120.472h-120.472v120.472z" />
<glyph unicode="&#xe669;" glyph-name="uniE669" d="M0 538.354h421.646v421.646h-421.646v-421.646zM60.234 899.764h301.176v-301.176h-301.176v301.176zM602.352 960v-421.646h421.648v421.646h-421.646zM963.764 598.588h-301.176v301.176h301.176v-301.176zM0-64h421.646v421.646h-421.646v-421.646zM60.234 297.412h301.176v-301.176h-301.176v301.176zM602.352-64h421.648v421.646h-421.646v-421.646zM662.588 297.412h301.176v-301.176h-301.176v301.176z" />
<glyph unicode="&#xe66a;" glyph-name="uniE66A" d="M421.646 719.058h60.236v-120.472h-60.236v60.236h-120.472v-481.882h60.236v-60.236h-180.706v60.236h60.234v481.882h-120.472v-60.236h-60.234v120.472h361.412zM903.528 719.058h-361.412v-120.472h60.236v60.236h120.472v-481.882h-60.236v-60.236h180.706v60.236h-60.236v481.882h120.472v-60.236h60.236v120.472h-60.236z" />
<glyph unicode="&#xe66b;" glyph-name="uniE66B" d="M1024-3.764v-60.236h-1024v60.236h1024zM481.822 857.118v-680.176h60.236v680.298l219.678-219.678 42.586 42.586-292.322 292.322-292.382-292.322 42.586-42.586 219.618 219.558z" />
<glyph unicode="&#xe66c;" glyph-name="uniE66C" d="M903.528 899.764v-60.236h-60.236v-389.060c0-182.634-148.6-331.294-331.294-331.294s-331.294 148.66-331.294 331.294v389.060h-60.234v60.236h180.706v-60.236h-60.236v-389.060c0-149.444 121.616-271.058 271.058-271.058s271.058 121.616 271.058 271.060v389.060h-60.236v60.236h180.706zM120.472-3.764h783.058v60.236h-783.058v-60.236z" />
<glyph unicode="&#xe66d;" glyph-name="uniE66D" d="M1024 779.294h-662.588v-180.706h-173.056l-71.68-240.94h-116.676v-299.792h120.59c0-0.482-0.12-0.904-0.12-1.384 0-66.44 54.032-120.472 120.472-120.472s120.472 54.030 120.472 120.472c0 0.482-0.12 0.904-0.12 1.384h301.478c-0.060-0.482-0.182-0.904-0.182-1.384 0-66.44 54.030-120.472 120.472-120.472s120.472 54.030 120.472 120.472c0 0.482-0.12 0.904-0.12 1.384h120.592v721.438zM233.29 538.354h128.12v-180.706h-181.912l53.79 180.706zM240.942-3.764c-33.19 0-60.234 27.046-60.234 60.236s27.046 60.236 60.236 60.236 60.236-27.046 60.236-60.236-27.046-60.236-60.236-60.236zM783.058-3.764c-33.19 0-60.236 27.046-60.236 60.236s27.046 60.236 60.236 60.236 60.236-27.046 60.236-60.236-27.046-60.236-60.236-60.236zM963.764 118.092h-77.764c-21.082 35.058-59.092 58.85-102.942 58.85s-81.86-23.794-102.942-58.85h-336.234c-21.082 35.058-59.092 58.85-102.942 58.85s-81.86-23.794-102.942-58.85h-77.764v179.32h361.412v421.646h542.118v-600.968z" />
<glyph unicode="&#xe66e;" glyph-name="uniE66E" d="M542.118 838.024v61.74h90.352v60.236h-240.942v-60.236h90.354v-61.74c-235.038-15.66-421.646-211.304-421.646-450.26 0-249.134 202.632-451.764 451.764-451.764s451.764 202.632 451.764 451.764c0 238.952-186.61 434.598-421.648 450.26zM512-3.764c-215.884 0-391.528 175.646-391.528 391.528s175.646 391.528 391.528 391.528 391.528-175.646 391.528-391.528-175.646-391.528-391.528-391.528zM542.118 417.882h240.942v-60.236h-301.176v240.942h60.234v-180.706z" />
<glyph unicode="&#xe66f;" glyph-name="uniE66F" d="M572.236 899.764v-30.118c0-33.25-27.046-60.236-60.236-60.236s-60.236 26.986-60.236 60.236v30.118h-210.824v-903.528h210.824v30.118c0 33.25 27.046 60.236 60.236 60.236s60.236-26.986 60.236-60.236v-30.118h210.824v903.528h-210.824zM395.324 839.528c13.432-51.864 60.656-90.354 116.676-90.354s103.242 38.49 116.676 90.354h94.148v-361.412h-421.646v361.412h94.148zM628.676 56.472c-13.372 51.864-60.596 90.352-116.676 90.352s-103.242-38.49-116.676-90.352h-94.148v361.412h421.648v-361.412h-94.148z" />
<glyph unicode="&#xe670;" glyph-name="uniE670" d="M925.696 374.212c5-12.228 7.952-28.070 7.952-48.61 0-31.684-14.456-58.488-37.406-74.27 8.312-14.096 12.288-30.178 12.288-46.26 0-33.852-18.854-62.706-47.284-77.582 4.818-11.324 7.65-25.298 7.77-42.466 0.12-27.046-7.77-48.792-23.552-64.632-16.626-16.684-40.178-25.178-69.932-25.178h-338.824c-45.416 0-76.68 24.336-99.57 42.164-13.192 10.24-25.66 19.998-34.334 19.998h-126.616c-16.626 0-30.118 13.494-30.118 30.118s13.492 30.118 30.118 30.118h126.616c29.334 0 51.622-17.348 71.32-32.648 19.456-15.12 37.828-29.456 62.584-29.456h338.824c12.77 0 22.468 2.59 27.226 7.408 4.096 4.096 6.144 11.446 6.084 21.804-0.182 26.322-5.542 31.986-61.862 31.986h-6.384c-16.626 0-30.118 13.494-30.118 30.118s13.494 30.118 30.118 30.118h75.776c18.492 0 31.924 11.866 31.924 28.19 0 27.106-27.046 31.142-43.188 31.142h-45.176c-16.626 0-30.118 13.494-30.118 30.118s13.494 30.118 30.118 30.118h86.558c19.938 0 26.986 15.058 26.986 29.154 0 29.636 0 29.636-26.442 30.418-3.072 0.060-6.264 0.302-9.398 0.422h-64.812c-16.626 0-30.118 13.494-30.118 30.118s13.494 30.118 30.118 30.118h59.15c0.422 0 0.784 0.24 1.206 0.24h38.008c17.77 0 32.286 13.674 32.286 30.418s-14.456 30.418-32.286 30.418h-268.228c-8.976 0-17.468 3.976-23.192 10.904-5.722 6.928-8.072 16.024-6.384 24.818l31.322 164.682c3.736 16.444 14.336 63.066 1.988 83.726-3.192 5.36-10.962 11.084-20.48 11.084 0 0 0 0 0 0-11.806 0-23.914-9.458-34.092-26.504l-195.224-315.272c-5.48-8.856-15.178-14.276-25.6-14.276h-154.744c-16.626 0-30.118 13.494-30.118 30.118s13.492 30.118 30.118 30.118h137.998l186.008 300.574c28.672 48.188 65.958 55.476 85.534 55.476 0 0 0 0 0.060 0 29.214 0 57.524-15.902 72.162-40.418 21.926-36.682 14.336-87.040 5.24-126.856l-24.274-127.94h231.846c51.020 0 92.52-40.658 92.52-90.654 0.060-29.996-14.938-56.682-37.948-73.186z" />
<glyph unicode="&#xe671;" glyph-name="uniE671" d="M877.508 387.704c0-16.626-13.494-30.118-30.118-30.118h-138l-186.006-300.574c-28.732-48.188-65.958-55.476-85.534-55.476 0 0-0.060 0-0.060 0-29.214 0-57.524 15.902-72.222 40.418-21.926 36.744-14.336 87.1-5.24 126.856l24.274 127.94h-231.846c-51.020 0-92.46 40.658-92.46 90.654 0 33.010 18.070 61.982 45.056 77.824-9.216 12.588-15.058 27.406-15.058 43.912 0 31.684 14.456 58.488 37.406 74.27-8.312 14.154-12.288 30.238-12.288 46.322 0 34.634 19.756 63.97 49.212 78.606-8.010 15.42-9.758 31.082-9.758 41.562 0 56.14 34.998 89.63 93.546 89.63h338.824c45.418 0 76.74-24.336 99.568-42.164 13.192-10.24 25.66-19.998 34.274-19.998h126.674c16.626 0 30.118-13.492 30.118-30.118s-13.494-30.118-30.118-30.118h-126.674c-29.336 0-51.622 17.348-71.318 32.648-19.396 15.24-37.768 29.514-62.524 29.514h-338.824c-28.13 0-33.31-9.938-33.31-29.394 0-9.518 0-31.744 61.862-31.744h6.324c16.626 0 30.118-13.492 30.118-30.118s-13.492-30.118-30.118-30.118h-75.776c-18.492 0-31.864-11.866-31.864-28.19 0-27.106 27.046-31.142 43.188-31.142h45.176c16.626 0 30.118-13.492 30.118-30.118s-13.492-30.118-30.118-30.118h-86.498c-19.878 0-26.986-15.060-26.986-29.154 0-10.12 22.046-27.528 42.466-30.902h58.188c16.626 0 30.118-13.492 30.118-30.118s-13.492-30.118-30.118-30.118h-59.212c-0.422 0-0.782-0.24-1.206-0.24h-38.008c-17.77 0-32.226-13.674-32.226-30.418s14.456-30.418 32.226-30.418h268.228c8.976 0 17.468-3.976 23.19-10.904s8.072-16.024 6.384-24.818l-31.322-164.682c-3.736-16.444-14.336-63.006-1.988-83.726 3.192-5.302 10.964-11.082 20.48-11.082 11.806 0 23.914 9.456 34.094 26.504l195.102 315.272c5.48 8.856 15.178 14.276 25.6 14.276h154.744c16.806 0 30.238-13.494 30.238-30.118z" />
<glyph unicode="&#xe672;" glyph-name="uniE672" d="M843.294 839.528v-180.706h-60.236v120.472h-240.942v-722.824h98.966v-60.236h-258.168v60.236h98.966v722.824h-240.942v-120.472h-60.234v180.706h662.588z" />
<glyph unicode="&#xe673;" glyph-name="uniE673" d="M1024-3.764v-60.236h-1024v60.236h1024zM313.404 479.562l253.23-182.272 336.896 376.53v-137.576h60.236v243.050h-243.11v-60.236h142.518l-305.394-341.232-248.712 179.14-263.348-238.292 40.418-44.634 227.268 205.524z" />
<glyph unicode="&#xe674;" glyph-name="uniE674" d="M311.176 429.75l-263.288 238.29 40.358 44.634 227.268-205.582 253.23 182.272 336.896-376.472v137.638h60.236v-243.11h-243.11v60.236h142.518l-305.334 341.234-248.772-179.14zM0-3.764v-60.236h1024v60.236h-1024z" />
<glyph unicode="&#xe675;" glyph-name="uniE675" d="M641.264 168.148l42.586-42.586-171.85-171.912-171.912 171.912 42.586 42.586 99.208-99.208v227.208h60.236v-227.208l99.148 99.208zM481.882 827.062v-227.208h60.234v227.208l99.148-99.148 42.586 42.586-171.85 171.85-171.912-171.85 42.586-42.586 99.208 99.146zM0 478.118v-60.234h1024v60.236h-1024z" />
<glyph unicode="&#xe676;" glyph-name="uniE676" d="M132.938 478.118h227.208v-60.234h-227.208l99.148-99.148-42.586-42.586-171.85 171.85 171.912 171.912 42.586-42.586-99.208-99.208zM834.5 619.912l-42.586-42.586 99.148-99.208h-227.208v-60.236h227.208l-99.148-99.148 42.586-42.586 171.85 171.85-171.85 171.912zM481.882-64h60.234v1024h-60.236v-1024z" />
<glyph unicode="&#xe677;" glyph-name="uniE677" d="M361.412 603.106h60.236v-120.472h-60.236v60.236h-120.472v-481.882h60.236v-60.236h-180.706v60.236h60.234v481.882h-120.472v-60.236h-60.234v120.47h361.412zM963.764 839.528h-602.352v-155.226h60.236v94.99h240.942v-722.824h-60.236v-60.236h180.706v60.236h-60.236v722.824h240.942v-94.99h60.234v155.226h-60.236z" />
<glyph unicode="&#xe678;" glyph-name="uniE678" d="M512 658.824c-116.254 0-210.824-94.57-210.824-210.824s94.57-210.824 210.824-210.824 210.824 94.568 210.824 210.824-94.568 210.824-210.824 210.824zM512 297.412c-83.004 0-150.588 67.584-150.588 150.588s67.584 150.588 150.588 150.588 150.588-67.584 150.588-150.588-67.584-150.588-150.588-150.588zM542.118 719.058h-60.236v180.706h60.236v-180.706zM481.882 176.942h60.234v-180.706h-60.236v180.706zM963.764 478.118v-60.234h-180.706v60.236h180.706zM240.942 417.882h-180.706v60.236h180.706v-60.236zM724.992 618.406l-42.586 42.586 127.76 127.76 42.586-42.586-127.76-127.76zM299.008 277.594l42.586-42.586-127.76-127.76-42.586 42.586 127.76 127.76zM724.992 277.594l127.76-127.76-42.586-42.586-127.76 127.76 42.586 42.586zM299.008 618.406l-127.76 127.76 42.586 42.586 127.76-127.76-42.586-42.586z" />
<glyph unicode="&#xe679;" glyph-name="uniE679" d="M503.206 740.382l292.322-292.382-292.382-292.382-42.586 42.586 219.678 219.678h-680.236v60.236h680.178l-219.618 219.618 42.646 42.648zM963.764 960v-1024h60.236v1024h-60.236z" />
<glyph unicode="&#xe67a;" glyph-name="uniE67A" d="M1024 417.822h-680.178l219.618-219.618-42.586-42.586-292.382 292.382 292.382 292.382 42.586-42.586-219.738-219.738h680.298v-60.236zM0-64h60.234v1024h-60.234v-1024z" />
<glyph unicode="&#xe67b;" glyph-name="uniE67B" d="M903.528 898.802c0-99.63-81.076-180.706-180.706-180.706s-180.706 81.076-180.706 180.706h-60.236c0-99.63-81.076-180.706-180.706-180.706s-180.706 81.076-180.706 180.706h-60.234v-412.432c0-325.572 421.768-481.882 439.778-488.328l10-3.674 10.060 3.494c18.072 6.204 443.692 155.828 443.692 490.194v410.744h-60.236zM120.472 486.43v253.228c44.152-50.116 108.844-81.8 180.706-81.8 72.040 0 136.492 32.106 180.706 82.462v-669.456c-99.93 44.996-361.412 184.742-361.412 415.562zM903.528 488.056c0-234.616-258.59-371.23-361.412-416.346v668.672c44.212-50.356 108.664-82.462 180.706-82.462 71.86 0 136.552 31.624 180.706 81.74v-251.604z" />
<glyph unicode="&#xe67c;" glyph-name="uniE67C" d="M60.234 960v-1024h903.528v1024h-903.528zM903.528-3.764h-783.058v903.528h120.472v-65.778c-34.998-12.468-60.236-45.598-60.236-84.812 0-49.814 40.538-90.352 90.354-90.352s90.354 40.538 90.354 90.352c0 39.214-25.238 72.344-60.236 84.812v65.778h180.706v-65.778c-34.998-12.468-60.236-45.598-60.236-84.812 0-49.814 40.538-90.352 90.352-90.352s90.352 40.538 90.352 90.352c0 39.214-25.24 72.344-60.236 84.812v65.778h180.706v-65.778c-34.996-12.468-60.236-45.598-60.236-84.812 0-49.814 40.538-90.352 90.352-90.352s90.352 40.538 90.352 90.352c0 39.214-25.24 72.344-60.236 84.812v65.778h120.472v-903.528zM301.176 749.176c0-16.564-13.552-30.118-30.118-30.118s-30.118 13.552-30.118 30.118 13.552 30.118 30.118 30.118 30.118-13.552 30.118-30.118zM542.118 749.176c0-16.564-13.552-30.118-30.118-30.118s-30.118 13.552-30.118 30.118 13.552 30.118 30.118 30.118 30.118-13.552 30.118-30.118zM783.058 749.176c0-16.564-13.552-30.118-30.118-30.118s-30.118 13.552-30.118 30.118 13.552 30.118 30.118 30.118 30.118-13.552 30.118-30.118z" />
<glyph unicode="&#xe67d;" glyph-name="uniE67D" d="M1024 749.176c0 136.916-263.832 210.824-512 210.824s-512-73.908-512-210.824c0-8.974 1.446-19.154 4.818-30.118h-4.818v-572.236c0-136.914 263.832-210.824 512-210.824s512 73.908 512 210.824v572.236h-4.818c3.374 10.962 4.818 21.144 4.818 30.118zM512 899.764c258.59 0 451.764-79.51 451.764-150.588 0-23.974-23.37-50.296-65.836-74.028-85.474-47.948-229.736-76.558-385.928-76.558s-300.454 28.612-385.928 76.558c-42.466 23.734-65.838 50.056-65.838 74.028 0 71.078 193.176 150.588 451.764 150.588zM512-3.764c-258.59 0-451.764 79.51-451.764 150.588v98.364c10.54-8.132 22.106-16.324 36.382-24.274 94.088-52.646 249.374-84.088 415.382-84.088 20.78 0 41.382 0.482 61.62 1.446 142.216 6.686 271.36 36.562 353.702 82.644v0c0 0.060 0.060 0.060 0.060 0.060 14.216 8.010 25.9 16.144 36.382 24.274v-98.424c0-71.078-193.174-150.588-451.764-150.588zM897.928 273.498c-85.534-47.886-229.736-76.5-385.928-76.5-19.516 0-38.912 0.482-57.946 1.326-133.36 6.144-253.17 33.25-327.98 75.114v0c-42.406 23.852-65.838 50.176-65.838 74.15v98.424c10.54-8.132 22.168-16.324 36.442-24.274 94.028-52.646 249.314-84.088 415.322-84.088s321.296 31.442 415.322 84.088c14.276 7.952 25.9 16.144 36.442 24.274v-98.424c0-23.974-23.432-50.296-65.836-74.090zM897.866 474.322c-85.474-47.888-229.678-76.5-385.868-76.5s-300.392 28.612-385.868 76.5c-42.466 23.734-65.898 50.116-65.898 74.090v98.424c10.54-8.192 22.106-16.324 36.382-24.336 94.088-52.706 249.314-84.148 415.382-84.148s321.294 31.442 415.382 84.148c14.276 8.012 25.842 16.144 36.382 24.336v-98.424c0-23.974-23.432-50.356-65.898-74.088z" />
<glyph unicode="&#xe67e;" glyph-name="uniE67E" d="M440.14 546.664c0 117.218-95.352 212.57-212.57 212.57-117.158 0-212.51-95.352-212.51-212.57 0-117.158 95.352-212.51 212.51-212.51 44.214 0 85.294 13.674 119.326 36.804-74.15-209.016-240.338-233.532-248.952-234.678l7.41-59.754c3.072 0.36 308.706 42.346 335.088 465.256l-0.784 0.060c0.060 1.626 0.482 3.132 0.482 4.82zM227.568 394.33c-83.968 0-152.276 68.308-152.276 152.274s68.308 152.336 152.276 152.336c84.028 0 152.336-68.366 152.336-152.336s-68.308-152.274-152.336-152.274zM1007.976 541.846c0.060 1.626 0.482 3.192 0.482 4.818 0 117.218-95.352 212.57-212.51 212.57s-212.51-95.352-212.51-212.57c0-117.158 95.352-212.51 212.51-212.51 44.212 0 85.294 13.674 119.326 36.804-74.090-209.016-240.34-233.532-248.952-234.678l7.408-59.754c3.072 0.36 308.706 42.346 335.088 465.256l-0.842 0.060zM795.948 394.33c-83.968 0-152.274 68.308-152.274 152.274s68.308 152.336 152.274 152.336 152.274-68.366 152.274-152.336-68.308-152.274-152.274-152.274z" />
<glyph unicode="&#xe67f;" glyph-name="uniE67F" d="M793.24 501.368c-44.212 0-85.352-13.674-119.386-36.864 74.088 209.138 240.4 233.712 249.014 234.798l-7.408 59.754c-3.072-0.362-308.766-42.406-335.088-465.318l0.904-0.060c0-1.626-0.482-3.254-0.482-4.88 0-117.158 95.352-212.51 212.51-212.51s212.51 95.352 212.51 212.51-95.414 212.57-212.57 212.57zM793.24 136.524c-84.028 0-152.274 68.308-152.274 152.274s68.308 152.274 152.274 152.274 152.274-68.308 152.274-152.274-68.308-152.274-152.274-152.274zM224.858 501.368c-44.212 0-85.294-13.674-119.326-36.864 74.088 209.138 240.338 233.712 248.952 234.798l-7.408 59.754c-3.072-0.362-308.706-42.406-335.15-465.318l0.904-0.060c0-1.626-0.482-3.254-0.482-4.88 0-117.158 95.352-212.51 212.51-212.51s212.51 95.352 212.51 212.51-95.292 212.57-212.51 212.57zM224.858 136.524c-84.028 0-152.276 68.308-152.276 152.274s68.306 152.274 152.276 152.274 152.276-68.308 152.276-152.274-68.248-152.274-152.276-152.274z" />
<glyph unicode="&#xe680;" glyph-name="uniE680" d="M863.172 478.118l-113 263.65-207.088-589.282-241.846 789.684-142.758-464.052h-158.48v-60.236h202.932l98.184 319.006 237.928-777.216 216.666 616.206 67.704-157.996h200.584v60.236z" />
<glyph unicode="&#xe681;" glyph-name="uniE681" d="M1024 598.588h-181.188v109.508l-271.24 251.904h-391.348v-361.412h-180.224v-481.882h180.706v-186.728h662.588v186.73h180.706v481.882zM601.87 849.65l140.65-130.59h-140.65v130.59zM240.46 899.764h301.176v-240.94h240.942v-60.236h-542.118v301.176zM783.058-9.788h-542.118v301.176h542.118v-301.176zM963.764 176.942h-120.472v174.682h-662.588v-174.682h-120.472v361.412h903.528v-361.412zM662.95 176.942h-361.774v60.236h361.774v-60.236zM542.118 56.472h-240.942v60.236h240.942v-60.236zM180.706 417.882h-60.234v60.236h60.234v-60.236zM301.176 417.882h-60.236v60.236h60.236v-60.236z" />
<glyph unicode="&#xe682;" glyph-name="uniE682" d="M963.764 387.764c0-249.134-202.632-451.764-451.764-451.764s-451.764 202.632-451.764 451.764c0 210.702 149.144 396.288 354.666 441.284l12.89-58.85c-178.056-38.972-307.32-199.8-307.32-382.434 0-215.884 175.646-391.528 391.528-391.528s391.528 175.646 391.528 391.528c0 182.392-129.084 343.222-306.96 382.374l12.952 58.85c205.282-45.238 354.244-230.76 354.244-441.224zM542.118 960h-60.236v-602.352h60.236v602.352z" />
<glyph unicode="&#xe683;" glyph-name="uniE683" d="M180.706 719.058v-302.020c0-165.586 148.66-300.334 331.294-300.334s331.294 134.746 331.294 300.334v302.020h-662.588zM783.058 417.038c0-132.396-121.616-240.098-271.060-240.098s-271.060 107.702-271.060 240.098v241.784h542.118v-241.784zM422.61 779.294h-60.236v180.706h60.236v-180.706zM661.624 779.294h-60.236v180.706h60.236v-180.706zM481.882 116.706h60.234v-180.706h-60.236v180.706zM662.588 478.118h-301.176v60.236h301.176v-60.236zM662.588 357.648h-301.176v60.236h301.176v-60.236z" />
<glyph unicode="&#xe684;" glyph-name="uniE684" d="M902.626 421.316l60.116-4.036c-15.842-236.122-213.836-421.044-450.74-421.044-249.134 0-451.764 202.632-451.764 451.764 0 235.218 183.538 433.092 417.912 450.5l4.456-60.054c-203.052-15.060-362.134-186.55-362.134-390.446 0-215.884 175.646-391.528 391.528-391.528 205.342 0 376.892 160.226 390.626 364.846zM1024 508.296v-30.118l-30.178-1.024h-450.68v482.906l30.178-0.060c248.532-0.542 450.68-203.234 450.68-451.704zM962.922 537.39c-13.432 190.946-167.212 345.93-359.544 361.11v-361.11h359.544z" />
<glyph unicode="&#xe685;" glyph-name="uniE685" d="M963.764 898.198h-663.070c-131.372 0-238.23-106.856-238.23-238.23s106.856-238.17 238.23-238.17h181.188v-425.562h60.236v841.728h121.374v-841.728h60.236v841.728h240.038v60.236zM481.882 481.974h-181.188c-98.184 0-177.996 79.812-177.996 177.936 0 98.184 79.812 177.996 177.996 177.996h181.188v-355.93z" />
<glyph unicode="&#xe686;" glyph-name="uniE686" d="M0 960v-1024h1024v1024h-1024zM963.764-3.764h-903.528v903.528h903.528v-903.528zM240.942 343.672v-166.73h60.234v166.73c44.454 13.13 77.162 53.85 77.162 102.46s-32.708 89.328-77.162 102.46v170.466h-60.236v-170.466c-44.454-13.132-77.162-53.85-77.162-102.46s32.708-89.39 77.162-102.46zM271.060 493.176c25.962 0 47.044-21.142 47.044-47.044s-21.082-47.044-47.044-47.044-47.044 21.082-47.044 47.044 21.082 47.044 47.044 47.044zM481.882 471.672v-294.73h60.234v294.73c44.454 13.13 77.162 53.85 77.162 102.46s-32.708 89.328-77.162 102.46v42.466h-60.236v-42.466c-44.454-13.13-77.162-53.85-77.162-102.46s32.708-89.39 77.162-102.46zM512 621.176c25.962 0 47.044-21.142 47.044-47.044s-21.082-47.104-47.044-47.104-47.044 21.144-47.044 47.104 21.082 47.044 47.044 47.044zM752.942 151.822c59.15 0 107.278 48.128 107.278 107.278 0 48.67-32.708 89.328-77.162 102.46v357.496h-60.236v-357.496c-44.454-13.13-77.16-53.85-77.16-102.46 0-59.15 48.128-107.278 107.278-107.278zM752.942 306.206c25.962 0 47.044-21.144 47.044-47.044s-21.144-47.044-47.044-47.044-47.044 21.144-47.044 47.044 21.082 47.044 47.044 47.044z" />
<glyph unicode="&#xe687;" glyph-name="uniE687" d="M513.024 962.108l-513.024-194.018v-644.096l512-192.030 512 192.030v644.036l-510.976 194.078zM908.59 747.49l-155.768-58.428-394.964 149.926 155.106 58.668 395.626-150.168zM512 598.77l-396.408 148.662 157.154 59.392 394.6-149.804-155.346-58.248zM60.234 703.818l421.646-158.118v-538.022l-421.646 158.118v538.022zM542.118 7.68v538.022l421.648 158.118v-538.022l-421.646-158.118z" />
<glyph unicode="&#xe688;" glyph-name="uniE688" d="M889.374 691.412l25.36 54.572-432.85 200.944v-595.004c-30.78 26.744-70.476 43.49-114.326 43.49-96.798 0-175.526-78.788-175.526-175.526s78.728-175.526 175.526-175.526 175.526 78.788 175.526 175.526c0 3.192-0.784 6.204-0.964 9.276v623.434l347.256-161.19zM367.556 104.6c-63.608 0-115.29 51.682-115.29 115.29s51.682 115.29 115.29 115.29 115.29-51.682 115.29-115.29-51.742-115.29-115.29-115.29z" />
<glyph unicode="&#xe689;" glyph-name="uniE689" d="M361.412 944.038v-555.49c-30.84 26.866-70.656 43.73-114.688 43.73-96.798 0-175.526-78.788-175.526-175.526s78.728-175.526 175.526-175.526c94.57 0 171.368 75.354 174.862 169.080v0 0.36c0.060 2.048 0.602 3.976 0.602 6.144s-0.482 4.036-0.542 6.084v367.074l542.118-106.074v-281.058c-30.9 27.166-70.956 44.212-115.29 44.212-96.798 0-175.526-78.788-175.526-175.526s78.728-175.526 175.526-175.526c95.472 0 172.996 76.68 175.104 171.61l0.422-0.12v706.922l-662.588 129.626zM246.724 141.462c-63.608 0-115.29 51.682-115.29 115.29s51.682 115.29 115.29 115.29c61.5 0 111.436-48.49 114.688-109.146v-12.228c-3.252-60.716-53.188-109.206-114.688-109.206zM421.646 691.29v179.622l542.118-106.134v-179.5l-542.118 106.014zM848.474-3.764c-63.608 0-115.29 51.682-115.29 115.29s51.682 115.29 115.29 115.29 115.29-51.682 115.29-115.29-51.682-115.29-115.29-115.29z" />
<glyph unicode="&#xe68a;" glyph-name="uniE68A" d="M512 960c-182.694 0-331.294-148.6-331.294-331.294v-361.412c0-182.694 148.6-331.294 331.294-331.294s331.294 148.6 331.294 331.294v361.412c0 182.694-148.6 331.294-331.294 331.294zM783.058 267.294c0-149.444-121.616-271.060-271.060-271.060s-271.060 121.616-271.060 271.058v361.412c0 149.444 121.616 271.058 271.060 271.058s271.060-121.616 271.060-271.058v-361.412zM512 749.176c-49.814 0-90.354-40.538-90.354-90.352v-120.472c0-49.814 40.538-90.352 90.354-90.352s90.352 40.538 90.352 90.354v120.472c0 49.814-40.538 90.352-90.354 90.352zM542.118 538.354c0-16.626-13.494-30.118-30.118-30.118s-30.118 13.494-30.118 30.118v120.472c0 16.626 13.492 30.118 30.118 30.118s30.118-13.492 30.118-30.118v-120.472z" />
<glyph unicode="&#xe68b;" glyph-name="uniE68B" d="M512 960c-182.694 0-331.294-148.6-331.294-331.294v-361.412c0-182.694 148.6-331.294 331.294-331.294s331.294 148.6 331.294 331.294v361.412c0 182.694-148.6 331.294-331.294 331.294zM783.058 628.706v-30.118h-240.942v298.104c135.168-15.178 240.942-128.842 240.942-267.988zM481.882 896.692v-298.104h-240.942v30.118c0 139.144 105.772 252.808 240.942 267.986zM512-3.764c-149.444 0-271.060 121.616-271.060 271.060v271.058h542.118v-271.058c0-149.444-121.616-271.058-271.060-271.058z" />
<glyph unicode="&#xe68c;" glyph-name="uniE68C" d="M645.662 383.126v0l-0.602 0.602c-0.784 0.664-1.326 1.446-2.168 2.048l-0.182-0.24-100.592 77.222v343.764c68.668-13.132 120.472-70.114 120.472-138.3l30.058-3.614 30.178 3.614c0 101.196-78.848 184.44-180.706 198.536v93.244h-60.236v-93.244c-101.858-14.094-180.706-97.34-180.706-198.536 0-56.742 25.358-110.712 69.332-148.962l-0.3-0.302 2.408-1.866c0 0 0 0 0 0v0l109.266-83.968v-343.642c-68.668 13.13-120.472 70.114-120.472 138.3h-60.236c0-101.194 78.848-184.44 180.706-198.536v-93.304h60.236v93.304c101.858 14.096 180.706 97.34 180.706 198.536 0 60.596-28.25 116.796-77.162 155.346zM410.926 563.592c-31.442 26.866-49.512 64.872-49.512 104.63 0 68.186 51.802 125.168 120.472 138.3v-297.442l-70.956 54.512zM542.118 89.48v297.322l66.5-51.14c34.154-26.924 53.972-66.018 53.972-107.88 0-68.186-51.802-125.168-120.472-138.3z" />
<glyph unicode="&#xe68d;" glyph-name="uniE68D" d="M512 237.176c149.444 0 271.058 121.616 271.058 271.060v180.706c0 139.204-105.774 252.808-240.942 267.988v3.072h-60.236v-3.072c-135.168-15.18-240.942-128.784-240.942-267.988v-180.706c0-149.444 121.614-271.060 271.060-271.060zM361.412 835.976v-116.918h60.236v159.504c18.794 8.976 38.912 15.058 60.236 18.13v-177.634h60.234v177.634c21.322-3.072 41.442-9.096 60.236-18.13v-159.504h60.236v116.918c37.164-38.008 60.236-89.812 60.236-147.034v-30.118h-421.646v30.118c0 57.224 23.070 109.086 60.236 147.034zM301.176 598.588h421.646v-90.352c0-116.254-94.568-210.824-210.824-210.824s-210.824 94.568-210.824 210.824v90.354zM903.528 538.354v-195.766c0-124.506-121.616-225.882-271.058-225.882h-90.352v-180.706h-60.236v180.706h-90.354c-149.444 0-271.060 101.376-271.060 225.882v195.764h60.236v-195.764c0-91.376 94.57-165.646 210.824-165.646h240.94c116.254 0 210.824 74.27 210.824 165.646v195.764h60.236z" />
<glyph unicode="&#xe68e;" glyph-name="uniE68E" d="M963.764 779.294v-120.472h-903.528v120.472h903.528zM60.234 357.648h903.528v120.472h-903.528v-120.472zM60.234 56.472h903.528v120.472h-903.528v-120.472z" />
<glyph unicode="&#xe68f;" glyph-name="uniE68F" d="M963.764 839.528v-120.472h-662.588v120.472h662.588zM301.176 417.882h662.588v120.472h-662.588v-120.472zM301.176 116.706h662.588v120.472h-662.588v-120.472zM120.472 839.528c-33.25 0-60.234-26.924-60.234-60.236s26.984-60.236 60.234-60.236 60.236 26.924 60.236 60.236-26.986 60.236-60.234 60.236zM120.472 538.354c-33.25 0-60.234-26.926-60.234-60.236s26.984-60.234 60.234-60.234 60.236 26.924 60.236 60.236-26.986 60.236-60.234 60.236zM120.472 237.176c-33.25 0-60.234-26.924-60.234-60.236s26.984-60.236 60.234-60.236 60.236 26.924 60.236 60.236-26.986 60.236-60.234 60.236z" />
<glyph unicode="&#xe690;" glyph-name="uniE690" d="M632.41 692.676l-295.274 85.414-337.138 1.206v-662.588h322.138l312.982-89.088 328.644 96.678v665.058l-331.354-96.678zM361.412 708.396l240.94-69.692v-539.106l-240.942 68.608v540.19zM60.234 719.058h240.94v-543.142l-240.942 1.024v542.118zM903.528 169.352l-240.942-70.898v540.25l240.942 70.296v-539.648z" />
<glyph unicode="&#xe691;" glyph-name="uniE691" d="M903.528 719.058v-4.156l-0.784 3.494-61.14-13.312c-8.374 108.604-98.424 194.68-209.136 194.68-110.894 0-201.126-86.438-209.258-195.284l-61.8 13.432v1.144h-361.412v-662.588h322.138l312.984-89.088 328.644 96.678v655h-60.236zM632.472 839.528c83.064 0 150.588-67.584 150.588-150.588 0-108.784-103.544-253.53-150.588-313.644-47.044 60.116-150.588 204.86-150.588 313.644 0 83.004 67.524 150.588 150.588 150.588zM361.412 656.294l65.114-14.154c24.818-136.674 144.926-288.408 175.826-325.632v-277.202l-240.942 68.608v548.382zM60.234 658.824h240.94v-543.142l-240.942 1.024v542.118zM662.588 38.22v278.346c30.962 37.286 151.37 189.44 175.948 326.234l64.994 14.096v-547.78l-240.942-70.898zM714.27 683.942c0 45.116-36.682 81.8-81.8 81.8s-81.8-36.682-81.8-81.8 36.682-81.86 81.8-81.86 81.8 36.682 81.8 81.86zM610.906 683.942c0 11.928 9.698 21.564 21.564 21.564s21.564-9.698 21.564-21.564-9.698-21.624-21.564-21.624-21.564 9.698-21.564 21.624z" />
<glyph unicode="&#xe692;" glyph-name="uniE692" d="M60.234 417.882c0-132.88 103.064-240.942 229.676-240.942v-60.236c-159.864 0-289.912 135.108-289.912 301.176s130.048 301.176 289.912 301.176h254.734l-99.146 99.148 42.586 42.586 171.912-171.85-171.85-171.912-42.646 42.646 99.208 99.148h-254.794c-126.616 0-229.676-108.062-229.676-240.942zM734.088 719.058v-60.234c126.616 0 229.678-108.062 229.678-240.942s-103.062-240.942-229.678-240.942h-254.794l99.148 99.148-42.586 42.586-171.85-171.85 171.912-171.912 42.586 42.586-99.208 99.208h254.736c159.926 0 289.974 135.108 289.974 301.176s-130.048 301.176-289.912 301.176z" />
<glyph unicode="&#xe693;" glyph-name="uniE693" d="M512 929.882c-182.634 0-331.294-148.6-331.294-331.294 0-263.408 295.936-607.532 308.524-622.11l22.77-26.202 22.77 26.264c12.59 14.518 308.524 358.64 308.524 622.050 0 182.694-148.66 331.294-331.294 331.294zM512 43.52c-69.030 85.774-271.060 354.124-271.060 555.068 0 149.444 121.616 271.058 271.060 271.058s271.058-121.616 271.058-271.058c0-200.764-202.028-469.294-271.060-555.068zM512 770.922c-99.63 0-180.706-81.076-180.706-180.706s81.076-180.706 180.706-180.706 180.706 81.076 180.706 180.706-81.076 180.706-180.706 180.706zM512 469.746c-66.44 0-120.472 54.032-120.472 120.472s54.032 120.472 120.472 120.472 120.472-54.032 120.472-120.472-54.030-120.472-120.472-120.472z" />
<glyph unicode="&#xe694;" glyph-name="uniE694" d="M1024 719.058v-60.234h-722.824v60.234h722.824zM180.706 688.942c0-49.816-40.538-90.354-90.352-90.354s-90.352 40.538-90.352 90.354 40.538 90.352 90.352 90.352 90.352-40.538 90.352-90.352zM120.472 688.942c0 16.564-13.492 30.118-30.118 30.118s-30.118-13.552-30.118-30.118 13.492-30.118 30.118-30.118 30.118 13.552 30.118 30.118zM301.176 417.882h722.824v60.236h-722.824v-60.236zM180.706 448c0-49.816-40.538-90.352-90.352-90.352s-90.352 40.538-90.352 90.354 40.538 90.354 90.352 90.354 90.352-40.538 90.352-90.354zM120.472 448c0 16.564-13.492 30.118-30.118 30.118s-30.118-13.552-30.118-30.118 13.492-30.118 30.118-30.118 30.118 13.552 30.118 30.118zM301.176 176.942h722.824v60.236h-722.824v-60.236zM180.706 207.058c0-49.816-40.538-90.352-90.352-90.352s-90.352 40.538-90.352 90.352 40.538 90.352 90.352 90.352 90.352-40.538 90.352-90.352zM120.472 207.058c0 16.566-13.492 30.118-30.118 30.118s-30.118-13.552-30.118-30.118 13.492-30.118 30.118-30.118 30.118 13.552 30.118 30.118z" />
<glyph unicode="&#xe695;" glyph-name="uniE695" d="M512 960c-182.634 0-331.294-157.636-331.294-351.352 0-141.794 58.068-221.064 109.266-290.996 38.37-52.284 71.44-97.462 71.44-161.010v-126.254c0-52.044 40.538-94.39 90.354-94.39h120.472c49.816 0 90.352 42.346 90.352 94.39v128.060c0 62.946 31.142 104.508 70.476 157.154 49.092 65.716 110.23 147.396 110.23 293.046 0 193.716-148.662 351.352-331.294 351.352zM572.236-3.764h-120.472c-16.564 0-30.118 15.3-30.118 34.154v98.364h180.706v-98.364c0-18.854-13.552-34.154-30.118-34.154zM684.816 351.684c-35.358-47.284-71.68-95.956-80.474-162.696h-185.044c-9.156 66.38-45.418 116.072-80.716 164.262-48.008 65.536-97.642 133.3-97.642 255.398 0 160.526 121.616 291.118 271.060 291.118s271.058-130.59 271.058-291.118c0-125.592-49.934-192.392-98.244-256.964z" />
<glyph unicode="&#xe696;" glyph-name="uniE696" d="M716.5 838.686l-342.798-782.216h47.948v-60.236h-180.706v60.236h66.922l342.798 782.216h-48.308v60.236h180.706v-60.236h-66.56z" />
<glyph unicode="&#xe697;" glyph-name="uniE697" d="M650.542 100.082v-60.236h-277.082v60.236h108.424v447.608h-105.412v60.234h165.646v-507.844h108.424zM481.16 716.348c51.080 0 92.28 41.322 92.28 92.28 0 51.020-41.26 92.4-92.28 92.4-51.14 0-92.402-41.382-92.402-92.4 0-50.96 41.32-92.28 92.402-92.28z" />
<glyph unicode="&#xe698;" glyph-name="uniE698" d="M1024 478.118c0-132.878-108.062-240.94-240.942-240.94-72.102 0-139.144 32.044-185.164 87.462l-0.12-0.060-0.842 1.084c-0.664 0.842-1.566 1.384-2.288 2.288l0.24 0.182-218.894 269.976c-34.274 38.552-83.486 60.716-135.048 60.716-99.63 0-180.706-81.076-180.706-180.706s81.076-180.706 180.706-180.706c55.116 0 106.556 24.696 141.072 67.764l0.542-0.422 49.212 60.958 46.862-37.828-49.574-61.38-0.602 0.482c-45.96-57.044-114.266-89.812-187.512-89.812-132.878 0-240.942 108.062-240.942 240.942s108.062 240.942 240.942 240.942c67.464 0 131.674-28.732 177.272-78.366l0.482 0.36 2.53-3.132 222.75-274.674c34.514-41.744 84.872-65.836 139.082-65.836 99.63 0 180.706 81.076 180.706 180.706s-81.076 180.706-180.706 180.706c-50.96 0-99.388-21.804-133.722-59.572l-57.102-70.776-46.862 37.828 57.102 70.776-0.24 0.182c45.778 51.982 111.736 81.8 180.826 81.8 132.88 0 240.94-108.062 240.94-240.94z" />
<glyph unicode="&#xe699;" glyph-name="uniE699" d="M0 779.294v-722.824h1024v722.824h-1024zM963.764 116.706h-903.528v602.352h903.528v-602.352zM154.324 146.16l-60.234 1.326c1.988 86.136 84.21 159.744 199.318 181.73v19.638c-14.938 15.6-25.6 36.744-32.828 55.596-9.758 6.986-18.192 17.708-24.034 31.082-11.144 24.696-9.216 49.452 3.794 64.332-0.242 4.456-0.36 8.856-0.36 13.072l-0.12 11.082c-0.36 32.346-0.964 85.534 55.96 95.414 11.686 20.42 29.094 37.768 71.016 39.214 67.644 2.108 115.412-22.77 131.614-69.332 5.48-15.962 0.36-29.214-3.372-38.852-3.554-9.156-6.928-17.77-4.94-33.974 0.784-6.444 0.664-12.77 0.18-18.792 10.54-14.276 12.71-35.96 4.94-58.728-5.722-16.444-15-29.154-26.142-36.624-6.686-17.288-16.264-36.382-29.334-50.9v-22.708c114.99-22.588 194.44-94.63 196.428-181.188l-60.236-1.384c-1.384 61.5-72.884 114.928-170.044 127.036l-26.382 3.312v102.942l12.048 9.034c6.384 4.818 16.324 19.336 24.998 45.838l8.132 20.722 4.456 38.008c0.844 6.384 1.626 12.468 1.144 16.142-3.736 31.322 3.976 51.2 8.552 63.006 0.3 0.844 0.542 1.384 0.724 1.866-12.65 23.854-52.948 24.878-70.536 24.456-16.686-0.664-17.89-3.012-21.142-9.216-4.096-7.952-13.794-26.624-38.37-28.792-5.542-0.482-7.288-1.626-7.288-1.626-2.47-3.856-2.288-22.106-2.168-34.214l0.060-11.746c0-8.492 0.602-17.588 1.748-26.864l4.216-34.514 7.228-1.264 0.18-14.938c9.276-28.070 20.42-43.43 27.166-48.068l12.952-8.976v-101.616l-26.624-3.132c-97.098-11.384-171.308-66.138-172.694-127.398zM903.528 478.118h-301.176v60.236h301.176v-60.236zM843.294 357.648h-240.942v60.236h240.942v-60.236z" />
<glyph unicode="&#xe69a;" glyph-name="uniE69A" d="M542.118 719.058h338.824l-217.39 240.942h-422.61v-240.942h240.942v-224.256h-67.764v-558.802h195.764v558.802h-67.764v224.256zM301.176 899.764h335.572l108.726-120.472h-444.296v120.472zM549.648-3.764h-75.294v438.332h75.294v-438.332z" />
<glyph unicode="&#xe69b;" glyph-name="uniE69B" d="M843.294-3.764h-180.706v361.412h-301.176v-361.412h-180.706v542.118h-60.234v-602.352h783.058v602.352h-60.236v-542.118zM421.646-3.764v301.176h180.706v-301.176h-180.706zM1011.712 570.096l-35.658-48.61-464.052 340.932-464.052-340.812-35.658 48.55 499.712 366.952 499.712-367.014z" />
<glyph unicode="&#xe69c;" glyph-name="uniE69C" d="M621.086 66.65c0-54.092-43.972-98.062-98.124-98.062-54.332 0-98.244 43.972-98.244 98.062 0 54.212 43.912 98.184 98.244 98.184 54.092 0 98.124-43.972 98.124-98.184zM702.826 817.062c-30.84 38.852-86.98 85.174-179.682 85.174-246.844 0-255.7-226.364-255.76-228.654l60.236-1.566c0.18 6.926 6.626 169.984 195.524 169.984 68.668 0 109.928-33.912 132.456-62.344 33.432-42.166 42.164-90.836 37.586-110.412-17.528-74.028-60.898-113.062-106.798-154.384-56.32-50.658-114.448-103.002-114.448-214.318h60.236c0 84.45 41.682 122.038 94.51 169.562 48.428 43.61 103.304 93.002 125.11 185.404 8.976 38.19-5 106.014-48.972 161.55z" />
</font>
</defs>
</svg>
