<svg xmlns="http://www.w3.org/2000/svg" viewBox="0 0 115.1 131">
  <title>cRisorsa 2</title>
  <g id="Livello_2" data-name="Livello 2">
    <g id="Livello_1-2" data-name="Livello 1">
      <path d="M92.8,52.4a6.3,6.3,0,1,1,2.3-8.6h0a6.3,6.3,0,0,1-2.3,8.6m-4.3,7.4V71.2A12.9,12.9,0,0,0,76.8,85.1a13.3,13.3,0,0,0,1.4,4.8l-9.9,5.7a12.7,12.7,0,0,0-17.7-3.8,12.1,12.1,0,0,0-4,4.1l-9.9-5.7a12.8,12.8,0,0,0-5-17.4,12.1,12.1,0,0,0-5.8-1.6V59.8A12.9,12.9,0,0,0,38.3,46.5,11.8,11.8,0,0,0,36.9,41l9.9-5.7a12.7,12.7,0,0,0,17.7,3.9,11.6,11.6,0,0,0,3.7-3.6l9.9,5.7a12.9,12.9,0,0,0,6,17.2,11.6,11.6,0,0,0,4.4,1.2M63.8,28.4a6.3,6.3,0,1,1-6.3-6.3,6.3,6.3,0,0,1,6.3,6.3h0m-33,21.7a6.3,6.3,0,1,1-2.3-8.6,6.2,6.2,0,0,1,2.3,8.6h0m0,30.8a6.2,6.2,0,0,1-2.3,8.6,6.3,6.3,0,0,1-6.3-10.9h0a6.3,6.3,0,0,1,8.6,2.3m20.4,21.7a6.3,6.3,0,1,1,6.3,6.3,6.3,6.3,0,0,1-6.3-6.3h0m33-21.7a6.2,6.2,0,0,1,8.6-2.3,6.3,6.3,0,0,1-6.3,10.9,6.2,6.2,0,0,1-2.3-8.6m30.1-48.2a6.1,6.1,0,0,0-8.2-2.2H106a6.1,6.1,0,0,0-2.4,7.6l-3.2,1.8A12.8,12.8,0,0,0,82.8,36a13.7,13.7,0,0,0-4.1,4.2l-9.9-5.7a12.8,12.8,0,0,0-5-17.4,13.3,13.3,0,0,0-5.6-1.5V11.9A6,6,0,0,0,63.5,6a6,6,0,0,0-12,0,6.1,6.1,0,0,0,5.3,5.9v3.7A12.8,12.8,0,0,0,44.6,28.4,13,13,0,0,0,46,34.2l-9.9,5.7a12.7,12.7,0,0,0-17.6-3.8,11.8,11.8,0,0,0-3.9,3.8L11.4,38A5.9,5.9,0,0,0,9,30.5a6,6,0,1,0,1.8,8.8L14,41.2a12.7,12.7,0,0,0,5.4,17.1,12,12,0,0,0,5.2,1.5V71.2a12.8,12.8,0,0,0-12,13.5A13.4,13.4,0,0,0,14,89.9l-3.2,1.8a5.9,5.9,0,0,0-8.4-1.2,6,6,0,0,0,7.2,9.6,6,6,0,0,0,1.9-7.2l3.2-1.8a12.9,12.9,0,0,0,17.2,4.1A12.5,12.5,0,0,0,36,91.4l10,5.7a12.8,12.8,0,0,0,5.9,17.1,13.6,13.6,0,0,0,4.9,1.2v3.7a6,6,0,1,0,6.7,5.9,6.1,6.1,0,0,0-5.3-5.9v-3.7a12.8,12.8,0,0,0,12.2-13.3,12.4,12.4,0,0,0-1.5-5.3l10-5.7a11.8,11.8,0,0,0,4.2,4.1,13,13,0,0,0,17.3-4.1l3.2,1.8a6,6,0,1,0,8.5-2.8,5.9,5.9,0,0,0-7.8,1.6l-3.2-1.8a12.9,12.9,0,0,0-5.5-17.3,13,13,0,0,0-5.8-1.4V59.8a12.8,12.8,0,0,0,12.7-12.9,12.3,12.3,0,0,0-1.4-5.7l3.2-1.9a5.9,5.9,0,0,0,8.4,1,6,6,0,0,0,1.6-7.6" style="fill: #fff"/>
      <path d="M63.8,65.5a6.3,6.3,0,1,1-6.3-6.3,6.3,6.3,0,0,1,6.3,6.3h0m12.6,0A18.9,18.9,0,1,0,57.5,84.4h0A18.9,18.9,0,0,0,76.4,65.5h0" style="fill: #fff"/>
    </g>
  </g>
</svg>
