<svg xmlns="http://www.w3.org/2000/svg" viewBox="0 0 113.9 117.5">
  <title>cfeature8</title>
  <g id="Livello_2" data-name="Livello 2">
    <g id="SECURE_AND_PRIVATE" data-name="SECURE AND PRIVATE">
      <g>
        <g>
          <polygon points="57 117.3 113.7 88.1 57 58.8 0.3 88.1 57 117.3" style="fill: #215572;fill-opacity: 0.15;stroke: #f2f2f2;stroke-opacity: 0.8;stroke-width: 0.25px"/>
          <polygon points="113.7 88.1 57 58.8 57 0.2 113.7 29.5 113.7 88.1" style="fill: #2a8fbc;fill-opacity: 0.1;stroke: #f2f2f2;stroke-opacity: 0.78;stroke-width: 0.25px"/>
          <polygon points="0.3 88.1 57 58.8 57 0.2 0.3 29.5 0.3 88.1" style="fill: #247996;fill-opacity: 0.13;stroke: #f2f2f2;stroke-opacity: 0.8;stroke-width: 0.25px"/>
        </g>
        <g id="g2295">
          <path id="path2203" d="M36,32.6V59.1H77.5V32.6ZM41.2,37H72.3V54.7H41.2ZM26.3,77.2l1.9,3.9,2.4-.8L41,76.9l17.4,8.2,1.1.5,1.2-.4L91.5,74.4l-1.9-4.2L59.8,80.7,42.4,72.6l-1.1-.5-1,.4" style="fill: #09b190"/>
          <path id="path2257" d="M52.1,39.5a2.3,2.3,0,0,0-2.3,2.4,2.5,2.5,0,0,0,2.8,2H63a2.7,2.7,0,0,0,2.3-1.1,1.8,1.8,0,0,0,0-2.2A2.7,2.7,0,0,0,63,39.5H52.1ZM40.5,68.4h.1a14.8,14.8,0,0,1,3-.3,9.3,9.3,0,0,1,5.8,1.7h0c2.7,1.9,4.7,3.3,7.5,4s6,.9,11.3.9V70.3c-5.2.1-7.9-.1-9.7-.6s-3.1-1.3-5.6-3.1h-.1a14.6,14.6,0,0,0-9.3-2.8,19,19,0,0,0-4.7.6h-.1l-12.3,4L24,69l.9,2.1,1.3,2.2" style="fill: #fe4786;opacity: 0.649999976158142;isolation: isolate"/>
        </g>
      </g>
    </g>
  </g>
</svg>
