<svg xmlns="http://www.w3.org/2000/svg" xmlns:xlink="http://www.w3.org/1999/xlink" viewBox="0 0 163.6 193.4">
  <defs>
    <radialGradient id="Sfumatura_senza_nome_51" data-name="Sfumatura senza nome 51" cx="169.06" cy="580.41" r="61.67" gradientTransform="translate(-29.9 -305.6) scale(0.7)" gradientUnits="userSpaceOnUse">
      <stop offset="0" stop-color="#fff" stop-opacity="0"/>
      <stop offset="0.52" stop-color="#555c71" stop-opacity="0.33"/>
      <stop offset="1" stop-color="#000b2a" stop-opacity="0.5"/>
    </radialGradient>
  </defs>
  <title>c2</title>
  <g id="Livello_2" data-name="Livello 2">
    <g id="A_PARADIGM_SHIFT" data-name="A PARADIGM SHIFT">
      <g id="main_icon">
        <g>
          <g id="logo_shadow" style="opacity: 0.8">
            <path d="M158.8,132.9V60.5a5.7,5.7,0,0,0,4.8-5.7,5.8,5.8,0,0,0-9.8-4.1L98,18.7a13.1,13.1,0,0,0,1.1-5.2,13.5,13.5,0,1,0-26.9,0,21.1,21.1,0,0,0,.2,2.6L22.6,45a13,13,0,0,0-9.1-3.6,13.4,13.4,0,0,0-4.8,26v55.7a13.4,13.4,0,0,0,4.8,26,13.4,13.4,0,0,0,8.1-2.7l50.9,30.5a15.3,15.3,0,0,0-.3,3,13.5,13.5,0,1,0,26.9,0,13.1,13.1,0,0,0-1.2-5.6l55.4-32.2a5.5,5.5,0,0,0,4.5,2.2,5.8,5.8,0,0,0,5.8-5.7A5.7,5.7,0,0,0,158.8,132.9ZM96.4,171.8a13.7,13.7,0,0,0-10.8-5.3,13.3,13.3,0,0,0-8.5,3L26.5,139.2a13.7,13.7,0,0,0-9.2-16.4v-55a13.6,13.6,0,0,0,9.6-13,8.2,8.2,0,0,0-.2-2.2l50.1-29a13,13,0,0,0,8.8,3.3,13.2,13.2,0,0,0,11-5.7l55.7,31.9a5.5,5.5,0,0,0-.3,1.7,5.7,5.7,0,0,0,3.9,5.5v72.8a5.7,5.7,0,0,0-3.9,5.5c0,.3.1.6.1.8Z" style="fill: #019afa"/>
          </g>
          <path id="path6463" d="M88.1,144.4S46.9,128,46.9,66.9c20.4,0,24.7-12.2,41.2-12.2s20.8,12.2,41.2,12.2C129.3,128.3,88.1,144.4,88.1,144.4Z" style="fill-opacity: 0.31;stroke: #019afa;stroke-miterlimit: 10;stroke-width: 3px;fill: url(#Sfumatura_senza_nome_51)"/>
          <path id="path6397" d="M84.5,83.5v2.2H80.2A3.2,3.2,0,0,0,77,88.9v4.3H74.8v6.4h6.4V93.2H79.1V88.9a1.1,1.1,0,0,1,1.1-1.1h4.3V90h6.4V83.5Zm2.1,2.2h2.2v2.1H86.6Zm5.4,0v2.1h3.2a1.1,1.1,0,0,1,1.1,1.1v4.3H94.1v6.4h6.5V93.2H98.4V88.9a3.2,3.2,0,0,0-3.2-3.2ZM77,95.3h2.1v2.2H77Zm19.3,0h2.1v2.2H96.3ZM77,100.7v3.2a3.2,3.2,0,0,0,3.2,3.2h4.3v2.2h6.4v-6.4H84.5V105H80.2a1.1,1.1,0,0,1-1.1-1.1v-3.2Zm19.3,0v3.2a1.1,1.1,0,0,1-1.1,1.1H92v2.1h3.2a3.2,3.2,0,0,0,3.2-3.2v-3.2ZM86.6,105h2.2v2.1H86.6Z" style="fill: #019afa"/>
        </g>
      </g>
    </g>
  </g>
</svg>
