<svg xmlns="http://www.w3.org/2000/svg" viewBox="0 0 354 2867.9">
  <title>cblock</title>
  <g id="Livello_2" data-name="Livello 2">
    <g id="Livello_20" data-name="Livello 20">
      <g>
        <g>
          <g style="opacity: 0.07">
            <g>
              <polygon points="348 2805.7 174.9 2743.2 173.8 2618.1 346.9 2680.6 348 2805.7" style="fill: #1a1a1a"/>
              <polygon points="1.9 2805.5 175.9 2743.1 174.8 2618.2 1.9 2680.7 1.9 2805.5" style="fill: #1a1a1a"/>
              <polygon points="174.8 2867.9 1.9 2805.4 1.9 2680.5 175.9 2743 174.8 2867.9" style="fill: #1a1a1a"/>
              <polygon points="174.8 2867.9 348.9 2805.5 347.8 2680.5 175.9 2742.9 174.8 2867.9" style="fill: #1a1a1a"/>
            </g>
          </g>
          <g>
            <g>
              <polygon points="174.9 2865.5 0.9 2803.1 0.9 2678.2 174.9 2740.6 174.9 2865.5" style="fill: #0b2386;stroke: #999;stroke-miterlimit: 10;stroke-width: 0.25px"/>
              <polygon points="174.9 2865.2 348.9 2803.3 348.9 2678.4 174.9 2740.7 174.9 2865.2" style="fill: #314f99;stroke: #999;stroke-miterlimit: 10;stroke-width: 0.25px"/>
            </g>
            <g>
              <polygon points="174.3 2740.4 348.2 2678.1 174.3 2615.8 0.4 2678.1 174.3 2740.4" style="fill: #123cc4"/>
              <polygon points="174.3 2740.4 348.2 2678.1 174.3 2615.8 0.4 2678.1 174.3 2740.4" style="fill: none;stroke: #999;stroke-miterlimit: 10;stroke-width: 0.25px"/>
              <polygon points="174.3 2740.4 348.2 2678.1 174.3 2615.8 0.4 2678.1 174.3 2740.4" style="fill: #0b2870"/>
            </g>
          </g>
        </g>
        <g>
          <polygon points="175.6 2674.3 349.8 2612 175.6 2549.7 1.5 2612 175.6 2674.3" style="fill: #123cc4"/>
          <polygon points="175.6 2674.3 349.8 2612 175.6 2549.7 1.5 2612 175.6 2674.3" style="fill: #3967b7"/>
        </g>
        <g>
          <polygon points="174.6 2611.6 348.8 2549.3 174.6 2487 0.4 2549.3 174.6 2611.6" style="fill: #123cc4"/>
          <polygon points="174.6 2611.6 348.8 2549.3 174.6 2487 0.4 2549.3 174.6 2611.6" style="fill: #13489e"/>
        </g>
        <g>
          <polygon points="176.1 2552.6 350.3 2490.3 176.1 2428 1.9 2490.3 176.1 2552.6" style="fill: #123cc4"/>
          <polygon points="176.1 2552.6 350.3 2490.3 176.1 2428 1.9 2490.3 176.1 2552.6" style="fill: #0f3582"/>
        </g>
        <g>
          <g>
            <polygon points="176.1 608.6 350.3 546.3 176.1 484 1.9 546.3 176.1 608.6" style="fill: #123cc4"/>
            <polygon points="176.1 608.6 350.3 546.3 176.1 484 1.9 546.3 176.1 608.6" style="fill: #0b2870"/>
          </g>
          <g>
            <polygon points="176.1 2486.9 349.9 2424 349.5 547.3 175.9 609.5 176.1 2486.9" style="fill: #314f99;opacity: 0.33"/>
            <polygon points="175.9 2488.3 175.7 608.6 4.9 546.2 0.8 2425.3 175.9 2488.3" style="fill: #0b2386;fill-opacity: 0.17;stroke: gray;stroke-miterlimit: 10;stroke-width: 0.25px"/>
          </g>
          <g id="logo" style="opacity: 0.89">
            <path d="M243.5,532.9a9.8,9.8,0,0,1,5.9.1c1.8.8,1.8,2.1-.1,3a9.4,9.4,0,0,1-3.9.6l-14.6,23.2a16.9,16.9,0,0,1,4.3,1.1c4.3,1.8,4.2,4.8-.2,6.8s-11.4,2.2-15.7.4l-1.2-.6-50.4,6.9a7.2,7.2,0,0,1-2.8,2c-4.4,2-11.4,2.2-15.7.4s-4-3.4-2.1-5.3l-32.8-13.7a22.8,22.8,0,0,1-12.3-.7c-4.3-1.8-4.2-4.9.2-6.8a18.3,18.3,0,0,1,6.6-1.6l13.5-21.1-1.1-.5c-4.3-1.7-4.2-4.8.2-6.8s11.4-2.1,15.6-.3a5.4,5.4,0,0,1,2.5,1.6l52.8-7.3c0-.6.5-1.2,1.5-1.6a9.7,9.7,0,0,1,6.7-.1c1.6.6,1.8,1.7.5,2.6Zm-.3,3.6-.8-.3-1-.6-24.9,3.5c.1.6-.4,1.2-1.4,1.7l-1.3.4L225,559.9a21.7,21.7,0,0,1,3.6-.1l14.6-23.3M139.7,522.6a2.2,2.2,0,0,1,0,1.6l43.4,4.1.8-.6a9.1,9.1,0,0,1,3.5-.6l7-11-1-.4-.9-.4-52.8,7.3m-23.5,26.9,1.4.5a6.3,6.3,0,0,1,2.4,1.6l19-2.7c0-.5.5-1,1.4-1.4l1.1-.4-11.1-18.7h-.8l-13.4,21.1m99.7,14.8c0-.1.1-.2.1-.3l-44.5-4.2-6.5,10a7.8,7.8,0,0,1,1.9,1.2l49-6.7M220,561l3-.8-11.2-18.8a7.4,7.4,0,0,1-3.4-.5l-.9-.6-18.7,2.6c.5,1.4-.4,2.9-2.5,4.1L220,561m-50.5-19.8-33.6-14.1a16.8,16.8,0,0,1-3.2.9l11.1,18.7a7.6,7.6,0,0,1,3.5.5l.7.4,19-2.6c-.5-1.4.5-2.7,2.5-3.8m-32.2-14.7,33.5,14a22.6,22.6,0,0,1,8.8-1.2l5.3-8.3-1-.4c-.9-.3-1.4-.9-1.4-1.5l-43.3-4a7.2,7.2,0,0,1-1.9,1.4m81.3,35.2-33.7-14.1a22.7,22.7,0,0,1-6.2,1.2l-6.4,10,44.5,4.2a5.2,5.2,0,0,1,1.8-1.3m23.5-28.2-42.6-17.7h-.3l7.7,13a8.5,8.5,0,0,1,3.7.5c.9.4,1.3.9,1.3,1.5l30.1,2.8h.1m-35.3-.4a8.6,8.6,0,0,1-3.4-.6c-.9-.4-1.4-.9-1.3-1.5l-10.7-1-.8.5a8.7,8.7,0,0,1-3.7.7l-5.3,8.3a15.4,15.4,0,0,1,4.1,1,6.7,6.7,0,0,1,2.4,1.6l18.9-2.6q.1-.9,1.5-1.5l1-.4-2.7-4.5m-35.8,15-1.2-.4a6.2,6.2,0,0,1-2.5-1.8l-18.8,2.7c.1.6-.5,1.2-1.5,1.6l-1.1.4,2.7,4.6a8.3,8.3,0,0,1,3.6.5c.9.4,1.3.9,1.3,1.4l11,1.1,6.5-10.1m25.8-31.8h-.4l-7,10.9a3.4,3.4,0,0,1,1.2.4c1,.4,1.4.9,1.4,1.5l10.7,1,.8-.5,1-.4-7.7-12.9M241,534.7h.1L211,531.8l-.9.6-1.2.4,2.6,4.5a8.5,8.5,0,0,1,3.7.5l.7.4,25.1-3.5M152.5,569l2-.4-5.6-9.4a7.2,7.2,0,0,1-3.4-.5c-1-.4-1.5-1-1.4-1.5l-24-2.3-.3.4L152.5,569m-31.9-16.5a2,2,0,0,1,0,1.5l24,2.3.8-.5,1.1-.3-2.7-4.6a7.6,7.6,0,0,1-3.5-.5l-.9-.6-18.8,2.7m35.9,16h1.3l6.1-9.4L153,558l-.9.6-1.2.4,5.6,9.5" style="fill: #cbcbcb;opacity: 0.8627451062202454"/>
          </g>
        </g>
        <g>
          <g>
            <g>
              <polygon points="179.9 466.8 5.9 404.4 5.9 279.5 179.9 341.9 179.9 466.8" style="fill: #0b2386;stroke: #999;stroke-miterlimit: 10;stroke-width: 0.25px"/>
              <polygon points="179.9 466.5 353.9 404.6 353.9 279.7 179.9 342 179.9 466.5" style="fill: #314f99;stroke: #999;stroke-miterlimit: 10;stroke-width: 0.25px"/>
            </g>
            <g>
              <polygon points="179.7 341.7 353.6 279.4 179.7 217.1 5.8 279.4 179.7 341.7" style="fill: #123cc4"/>
              <polygon points="179.7 341.7 353.6 279.4 179.7 217.1 5.8 279.4 179.7 341.7" style="fill: none;stroke: #999;stroke-miterlimit: 10;stroke-width: 0.25px"/>
              <polygon points="179.7 341.7 353.6 279.4 179.7 217.1 5.8 279.4 179.7 341.7" style="fill: #0b2870"/>
            </g>
          </g>
          <g>
            <path d="M145.8,415.1c6,2.6,10.8,10.4,10.6,17.4s-5.2,10.6-11.2,8.1-9.5-8.4-10.4-14.6a12.7,12.7,0,0,1-.2-2.8v-.9C135.2,415.9,140,412.7,145.8,415.1Zm-.6,25.3c6,2.6,10.9-1,11.1-8s-4.6-14.6-10.5-17.1-10.9,1-11.1,8,4.6,14.6,10.5,17.1" style="fill: #666"/>
            <path d="M145.8,415.3c5.9,2.5,10.7,10.2,10.5,17.1s-5.1,10.6-11.1,8-10.7-10.2-10.5-17.1S139.8,412.7,145.8,415.3Z" style="fill: #054a27"/>
            <path d="M89,403a10.9,10.9,0,0,1,.1,1.8,11,11,0,0,1-.2,1.8c-.8,5.8-5.5,8.7-11,6.3s-10.8-10.3-10.6-17.3,5.2-10.7,11.2-8.1S88.4,396.5,89,403Zm-11.1,9.8c6,2.5,10.9-1.1,11.1-8s-4.6-14.7-10.5-17.2-11,1.1-11.1,8,4.6,14.7,10.5,17.2" style="fill: #666"/>
            <path d="M78.5,387.6c5.9,2.5,10.6,10.2,10.5,17.2s-5.1,10.5-11.1,8-10.7-10.2-10.5-17.2S72.5,385.1,78.5,387.6Z" style="fill: #64370e"/>
            <path d="M134.6,422.3v.9a12.7,12.7,0,0,0,.2,2.8L88.9,406.6a11,11,0,0,0,.2-1.8A10.9,10.9,0,0,0,89,403Z" style="fill: #929292;opacity: 0.8588235378265381"/>
            <g style="isolation: isolate">
              <path d="M32.8,340.8c5.9,2.5,10.6,10.2,10.5,17.2s-5.1,10.5-11.1,8-10.7-10.2-10.5-17.2S26.8,338.3,32.8,340.8Z" style="fill: #054729"/>
              <path d="M83.2,340.6a23.9,23.9,0,0,0,1.5,3.7l-42.1,8.3a25,25,0,0,0-1.5-3.8Z" style="fill: #929292;opacity: 0.8588235378265381"/>
            </g>
            <path d="M93.7,327.3c6,2.5,10.8,10.3,10.6,17.3s-5.2,10.7-11.2,8.1a17.5,17.5,0,0,1-8.4-8.4,23.9,23.9,0,0,1-1.5-3.7,15.5,15.5,0,0,1-.7-5.2C82.6,328.3,87.7,324.7,93.7,327.3Zm-.6,25.3c6,2.5,10.9-1.1,11.1-8s-4.6-14.7-10.5-17.2-11,1.1-11.1,8,4.6,14.7,10.5,17.2" style="fill: #666"/>
            <path d="M93.7,327.4c5.9,2.5,10.6,10.2,10.5,17.2s-5.1,10.5-11.1,8-10.7-10.2-10.5-17.2S87.7,324.9,93.7,327.4Z" style="fill: #023f57"/>
            <path d="M42.6,352.6a20.2,20.2,0,0,1,.8,5.4c-.2,7.1-5.2,10.7-11.2,8.1s-10.8-10.3-10.6-17.3,5.2-10.7,11.2-8.1c3.3,1.4,6.3,4.5,8.3,8.1A25,25,0,0,1,42.6,352.6ZM32.2,366c6,2.5,10.9-1.1,11.1-8s-4.6-14.7-10.5-17.2-11,1.1-11.1,8,4.5,14.7,10.5,17.2" style="fill: #666"/>
          </g>
          <g>
            <path d="M310.3,332.1l2,.8-33.7,60.6a6.6,6.6,0,0,0-1.9-.9Z" style="fill: #dedede;opacity: 0.8196078538894653"/>
            <path d="M270.9,392.7h.4a9,9,0,0,1,5.4,0,6.6,6.6,0,0,1,1.9.9,9.4,9.4,0,0,1,3.8,8c-.1,6.5-5,13.1-11,14.9h-.3c-6.2,1.7-11.2-2.3-11.1-8.9a14.1,14.1,0,0,1,.9-4.9,23.9,23.9,0,0,1,1.3-2.8A16.1,16.1,0,0,1,270.9,392.7Z" style="fill: #08ab6c"/>
            <path d="M214.9,374.5h.4c6.1-1.7,11.1,2.2,11,8.8a15.2,15.2,0,0,1-1.2,5.9,13.5,13.5,0,0,1-1.5,2.6,15.3,15.3,0,0,1-8.2,6.5h-.3c-6.2,1.7-11.2-2.3-11.1-8.9S208.9,376.3,214.9,374.5Z" style="fill: #de9c26"/>
            <path d="M225.1,389.1l37.1,10.8a23.9,23.9,0,0,0-1.3,2.8l-37.3-11A13.5,13.5,0,0,0,225.1,389.1Z" style="fill: #dedede;opacity: 0.8196078538894653"/>
            <path d="M317,308.9h.3c6.2-1.7,11.2,2.2,11.1,8.8s-4.9,13.2-11,15h-.3a9.9,9.9,0,0,1-4.8.2l-2-.8c-2.6-1.4-4.3-4.4-4.3-8.3C306.1,317.3,311,310.7,317,308.9Z" style="fill: #0186d9"/>
          </g>
        </g>
        <g>
          <g>
            <g>
              <polygon points="179.9 249.9 5.9 187.4 5.9 62.5 179.9 125 179.9 249.9" style="fill: #0b2386;stroke: #999;stroke-miterlimit: 10;stroke-width: 0.25px"/>
              <polygon points="179.9 249.6 353.9 187.7 353.9 62.8 179.9 125 179.9 249.6" style="fill: #314f99;stroke: #999;stroke-miterlimit: 10;stroke-width: 0.25px"/>
            </g>
            <g>
              <polygon points="179.7 124.8 353.6 62.4 179.7 0.1 5.8 62.4 179.7 124.8" style="fill: #123cc4"/>
              <polygon points="179.7 124.8 353.6 62.4 179.7 0.1 5.8 62.4 179.7 124.8" style="fill: none;stroke: #999;stroke-miterlimit: 10;stroke-width: 0.25px"/>
              <polygon points="179.7 124.8 353.6 62.4 179.7 0.1 5.8 62.4 179.7 124.8" style="fill: #0b2870"/>
            </g>
          </g>
          <g id="path6445">
            <g>
              <path d="M290.6,139.4c8.2-2.1,14.9,4.6,14.2,15.5-.6,9.2-6.8,18-14.1,20.6l-38,13.5-.6.2c-7.2,2.2-13.6-2.1-14.9-10.5a25.3,25.3,0,0,1,6.4-20.2c0-6.4,4-12.9,9.1-14.7l.7-.2c3.8-6.9,9.4-12.5,15.9-14.8l.9-.3C279.3,125.7,287.2,130.4,290.6,139.4Zm9.4,16.3c0-6.8-4.4-10.9-9.8-9.2h-.4l-.5.3-2,.8-.6-2.2c-2.2-8.1-8.8-12.4-16.4-10l-.7.2c-5.5,1.9-10.1,6.8-13,12.8l-.9,1.8h-1.5l-1,.2c-2.9,1-4.9,4.4-4.7,7.7a3.7,3.7,0,0,0,.1.8l.3,2.1-1.6,1.5a16.9,16.9,0,0,0-5.3,14.1c.7,5.9,5.1,8.9,10,7.4h.4l38.1-13.6c5.1-1.8,9.5-8.5,9.5-14.8" style="fill: #08ab6c"/>
              <path d="M270.7,144.1c4-1.2,7.4,1.5,7.7,6.3a13.5,13.5,0,0,1-4.7,10.2l.4,9.4-5.1,1.8-.4-9.4c-3-.2-5.3-2.7-5.5-6.6s3.1-10.1,7.2-11.6Zm-.2,11.9a3.9,3.9,0,0,0,2.3-3.9c-.1-1.6-1.1-2.5-2.4-2.1h-.2a4,4,0,0,0-2.2,3.9c0,1.6,1.1,2.5,2.4,2.1h.1" style="fill: #08ab6c"/>
            </g>
          </g>
          <g id="path6367" style="opacity: 0.949999988079071;isolation: isolate">
            <g>
              <path d="M114,163.5c0,.3,0,1.8-.1,4.1l-3.8-1.4c.1-2.1.1-3.5.1-3.6a37.9,37.9,0,0,0-7.9-21.5l2.4-2.9A44.2,44.2,0,0,1,114,163.5Z" style="fill: #94643f"/>
              <path d="M88.2,130.7a17,17,0,0,0-6.7-.2l-1.4-4.9a19.3,19.3,0,0,1,7.9.3l1.5.4a30,30,0,0,1,12,7.4l-1.9,3.6a25.7,25.7,0,0,0-10.1-6.2Z" style="fill: #94643f"/>
              <g style="isolation: isolate">
                <path d="M87.5,172.9a16.3,16.3,0,0,1-9.6,7.6l-1.6-4.9a13.1,13.1,0,0,0,7.8-6.2Z" style="fill: #94643f"/>
                <path d="M72.4,166.4h-.1a13.2,13.2,0,0,1-5.6-.6v-5a11.2,11.2,0,0,0,4.1.5c4.4-1.4,4.2-7,4.2-7.1a17,17,0,0,1,2.5-9.8l3.4,3.8a11.5,11.5,0,0,0-1.8,7c0,.6,0,9.2-6.7,11.1Z" style="fill: #94643f"/>
                <path d="M83.6,163.7c-1.3,4-4.1,8.5-9.5,10.1l-1.5.4a11,11,0,0,1-2.7.4l-.9-5.5,1.9-.3,1.3-.4c4.3-1.2,6.3-4.5,7.4-7.7a23.3,23.3,0,0,0,1-6.2v.5a9.1,9.1,0,0,1,2.2-5.8,6.1,6.1,0,0,1,6-1.6h.5v5H89a2.9,2.9,0,0,0-3.1,1,4.7,4.7,0,0,0-1,3.2h0A25.7,25.7,0,0,1,83.6,163.7Z" style="fill: #94643f"/>
                <path d="M96.7,159.6c.1,1.1.5,17.8-10.8,25.4l-2.4-4.5c9.7-6.5,9.3-21.5,9.3-21.9a6.3,6.3,0,0,0-2-4.5l1.9-3.7A13.9,13.9,0,0,1,96.7,159.6Z" style="fill: #94643f"/>
                <path d="M93.8,143.9,92.4,148a9.9,9.9,0,0,0-3.2-1.7h-.5a6.9,6.9,0,0,0-6,1.1L80.2,143a9.3,9.3,0,0,1,8.3-1.6l.8.2A13.7,13.7,0,0,1,93.8,143.9Z" style="fill: #94643f"/>
                <path d="M89.5,133.9c10.3,3.2,18.8,15.7,19.2,28.5a60.2,60.2,0,0,1-2.3,16.9l-3.7-2.6a54,54,0,0,0,2.1-15.2c-.3-10.3-7-20.3-15.3-22.8Z" style="fill: #94643f"/>
              </g>
              <path d="M91.4,158.2h0a34,34,0,0,1-2.3,12.3l-3.7-3.1a28,28,0,0,0,2-10.3h0c0-1.4.9-2.2,2.6-1.7a3.6,3.6,0,0,1,1.4,2.8Z" style="fill: #94643f"/>
              <path d="M91.2,183.9c5.9-6.6,7.3-16.2,7.6-20.9l3.9,1.4c-.4,5.4-1.9,16-8.6,23.5Z" style="fill: #94643f"/>
              <path d="M96.8,146.2a23,23,0,0,1,5.9,14.8l-3.9-.9a16.5,16.5,0,0,0-4.2-10.6Z" style="fill: #94643f"/>
              <path d="M71.4,137.8c-.1.1-1.1,2-1.6,3.1l-3.5-3.1a19.9,19.9,0,0,1,2.2-3.6h0a30.1,30.1,0,0,1,2.2-2.8,18,18,0,0,1,6.2-4.2l1.9,4.7a13.7,13.7,0,0,0-5.2,3.5s-1.5,1.6-2.2,2.5Z" style="fill: #94643f"/>
              <path d="M76.4,143.3a16.1,16.1,0,0,0-2.5,9.5h0v1.3L70.4,153v-1.1a20,20,0,0,1,3-11.9,14.6,14.6,0,0,1,1.6-1.9,11.7,11.7,0,0,1,9.8-3.8l.6,4.4a9.8,9.8,0,0,0-7.9,3A9.5,9.5,0,0,0,76.4,143.3Z" style="fill: #94643f"/>
            </g>
          </g>
        </g>
        <g id="path6397">
          <g>
            <path d="M197.7,49.2l5-1.8,14.6,6.2-15.1,5.5L190,53.9l-2.4-1,5-1.8-10-4.3a7.8,7.8,0,0,0-5-.1l-7.5,2.7-4.9-2.1,7.5-2.7a24,24,0,0,1,15,.4Zm9.7,4.2-4.9-2.1-5,1.8,4.9,2.1,5-1.8" style="fill: #0178c3"/>
            <path d="M217.2,61.5l-7.2-3,5-1.9,7.2,3.1c4.1,1.7,4,4.4-.3,5.9l-7.4,2.7-4.9-2,7.6-2.8C218.6,63,218.6,62.1,217.2,61.5Z" style="fill: #0178c3"/>
            <path d="M189.2,71.8l-2.4-1.1,15.1-5.5,14.6,6.2-15.2,5.5-4.8-2-10.4,3.7a23.3,23.3,0,0,1-15-.3l-7.2-3.1,5.1-1.8,7.2,3.1a7.8,7.8,0,0,0,5,.1l10.4-3.8Zm7.5-.8,4.8,2,5.1-1.8-4.9-2.1-5,1.9" style="fill: #0178c3"/>
            <path d="M144.7,52.8l-2.3-1,15.1-5.5L172,52.5,156.9,58l-4.8-2-10.4,3.8c-1.4.5-1.5,1.3-.1,1.9l10,4.3,5-1.8,14.6,6.2-15.1,5.5L144,70.7l-2.5-1,5.1-1.9-10-4.2c-4.1-1.7-3.9-4.4.3-5.9l10.3-3.8Zm16.6,17.3-4.8-2-5.1,1.8,4.9,2.1,5-1.9m-9-18,4.8,2,5-1.8-4.8-2.1-5,1.9" style="fill: #0178c3"/>
          </g>
        </g>
      </g>
    </g>
  </g>
</svg>
