<svg xmlns="http://www.w3.org/2000/svg" xmlns:xlink="http://www.w3.org/1999/xlink" viewBox="0 0 163.4 193.2">
  <defs>
    <radialGradient id="Sfumatura_senza_nome_49" data-name="Sfumatura senza nome 49" cx="74.36" cy="580.23" r="61.67" gradientTransform="translate(35.8 -305.6) scale(0.7)" gradientUnits="userSpaceOnUse">
      <stop offset="0" stop-color="#fff" stop-opacity="0"/>
      <stop offset="0.52" stop-color="#555c71" stop-opacity="0.33"/>
      <stop offset="1" stop-color="#000b2a" stop-opacity="0.5"/>
    </radialGradient>
  </defs>
  <title>c1</title>
  <g id="Livello_2" data-name="Livello 2">
    <g id="A_PARADIGM_SHIFT" data-name="A PARADIGM SHIFT">
      <g id="main_icon">
        <g>
          <path id="path6463" d="M87.7,144.2S46.5,127.9,46.5,66.8c20.5,0,24.7-12.2,41.2-12.2s20.8,12.2,41.2,12.2C128.9,128.1,87.7,144.2,87.7,144.2Z" style="fill-opacity: 0.31;stroke: #ffb32c;stroke-miterlimit: 10;stroke-width: 3px;fill: url(#Sfumatura_senza_nome_49)"/>
          <path id="path6367" d="M86.9,83.4H86a18.8,18.8,0,0,0-4.7,1l.9,2.2a13,13,0,0,1,3.9-.9h.8A12.5,12.5,0,0,1,93,87.2l1.1-2a14.8,14.8,0,0,0-7.2-1.8Zm-7.2,2.2a11.3,11.3,0,0,0-3.4,2.8h0A10.1,10.1,0,0,0,75,90h0a16.2,16.2,0,0,0-1,1.8l1.9.9a11.9,11.9,0,0,1,.8-1.6h0l1.2-1.5h0a11.3,11.3,0,0,1,2.9-2.4Zm16,1-1.4,1.8a11.9,11.9,0,0,1,4.8,8.9h0s0,.7-.1,1.7h2.3V97.2a14.7,14.7,0,0,0-5.6-10.6Zm-8.7.3h0v2.2a8.8,8.8,0,0,1,8.9,8.4,21.6,21.6,0,0,1-1.1,7.3l2.2.6a27.5,27.5,0,0,0,1.2-8.1A11.2,11.2,0,0,0,87,86.9Zm-2.4.6a10.3,10.3,0,0,0-5.8,3.3l-.9,1.1a10.6,10.6,0,0,0-1.7,6.2h0v.6h2V98h0a7.6,7.6,0,0,1,1.4-4.9h0a8.6,8.6,0,0,1,.7-1h0A8.7,8.7,0,0,1,85,89.6ZM87,90.3h-.5a8.2,8.2,0,0,0-4.9,2L83.1,94a5.7,5.7,0,0,1,3.5-1.4H87a5.8,5.8,0,0,1,1.9.3l.8-2.2a8.4,8.4,0,0,0-2.7-.4Zm4.3,1.2L90,93.3a5.7,5.7,0,0,1,2.5,4.3h2.2A7.8,7.8,0,0,0,91.3,91.5Zm-4.3,2h-.2A4.4,4.4,0,0,0,83.6,95a4.2,4.2,0,0,0-1.1,3.2V98a9.9,9.9,0,0,1-.5,2.8,7.3,7.3,0,0,1-3.8,4.3h0l-.7.3-1,.4L77,108a5.9,5.9,0,0,0,1.4-.6l.8-.3a9.7,9.7,0,0,0,4.9-5.5,10.8,10.8,0,0,0,.7-3.7v.2h0a2.4,2.4,0,0,1,.4-1.5,2.2,2.2,0,0,1,1.7-.9H87Zm-6.6,0A7.5,7.5,0,0,0,79,98.3a4,4,0,0,1-2.3,3.8,8.5,8.5,0,0,1-2.2.3v2.3a10.3,10.3,0,0,0,3.1-.5h.1a6.4,6.4,0,0,0,3.6-5.9h0a5.9,5.9,0,0,1,1-3.4Zm8.8.6-1,1.9a2.2,2.2,0,0,1,1.1,1.8h0c0,.2.4,7.1-5.1,11.4l1.4,1.7c6.3-5,6-12.7,6-13.2a4.4,4.4,0,0,0-2.4-3.6ZM87,96.7a1.1,1.1,0,0,0-1.1,1.2h0a12,12,0,0,1-1.1,5l2.1.9a13.8,13.8,0,0,0,1.3-5.9h0A1.1,1.1,0,0,0,87,96.7ZM92.5,99a19.3,19.3,0,0,1-4.2,10.7l1.7,1.4a20.7,20.7,0,0,0,4.7-12Zm-8.3,5a10.8,10.8,0,0,1-4.4,4l.9,2a13,13,0,0,0,5.4-4.9Z" style="fill: #fbaa6b;opacity: 0.949999988079071;isolation: isolate"/>
          <g id="logo_shadow" style="opacity: 0.8">
            <path d="M158.6,132.7V60.5a5.8,5.8,0,0,0-.9-11.5,6,6,0,0,0-4.1,1.6L97.9,18.7a12.9,12.9,0,0,0,1-6.5,13.4,13.4,0,0,0-26.8,1.3,22.8,22.8,0,0,0,.2,2.6L22.6,44.9a13.7,13.7,0,0,0-10.8-3.5A13.6,13.6,0,0,0,.1,53.3a13.4,13.4,0,0,0,8.5,14v55.6a13.5,13.5,0,0,0,3.4,26,13.3,13.3,0,0,0,9.6-2.7l50.8,30.5a15.3,15.3,0,0,0-.3,3,13.4,13.4,0,0,0,14.8,13.4,13.6,13.6,0,0,0,12-11.6,13.1,13.1,0,0,0-1.2-7.4l55.4-32.2a5.4,5.4,0,0,0,5,2.2,5.7,5.7,0,0,0,.5-11.4Zm-62.4,39a13.2,13.2,0,0,0-10.7-5.4,13.9,13.9,0,0,0-8.6,3.1L26.4,139a13.7,13.7,0,0,0-9.2-16.4v-55a13.3,13.3,0,0,0,9.6-12.8,8.6,8.6,0,0,0-.2-2.3l50.1-29a13,13,0,0,0,8.8,3.4,13.4,13.4,0,0,0,11-5.7L152.1,53a11,11,0,0,0-.2,1.8,5.8,5.8,0,0,0,3.8,5.4V133a5.8,5.8,0,0,0-3.8,5.4v.9Z" style="fill: #ffb32c"/>
          </g>
        </g>
      </g>
    </g>
  </g>
</svg>
