<?xml version="1.0" encoding="utf-8"?>
<!-- Generator: Adobe Illustrator 22.1.0, SVG Export Plug-In . SVG Version: 6.00 Build 0)  -->
<svg version="1.1" id="Livello_1" xmlns="http://www.w3.org/2000/svg" xmlns:xlink="http://www.w3.org/1999/xlink" x="0px" y="0px"
	 viewBox="0 0 1800 391" style="enable-background:new 0 0 1800 391;" xml:space="preserve">
<style type="text/css">
	.st0{fill:#00000B;}
	.st1{fill:#EC1C24;}
	.st2{opacity:0.51;}
	.st3{fill:#FFFFFF;}
	.st4{fill:none;stroke:#FFFFFF;stroke-miterlimit:10;}
</style>
<rect x="-1" class="st0" width="1800" height="391"/>
<title>title</title>
<path class="st1" d="M426.3,314.9v-49.7h7v49.7L426.3,314.9z M447.8,314.9v-21.6c0-2.5-0.6-4.5-1.9-5.8c-1.5-1.5-3.5-2.2-5.5-2.1
	c-1.9-0.1-3.8,0.5-5.3,1.8c-1.3,1.4-1.9,3.2-1.8,5l-0.8-6.8c1-2,2.5-3.6,4.3-4.9c4.8-2.9,11-2,14.8,2.1c2.1,2.5,3.2,6,3.2,10.7v21.6
	L447.8,314.9z"/>
<path class="st1" d="M478.9,315.4c-4.6,0-8.2-1.4-10.8-4.1s-3.8-6.5-3.8-11.4v-5.7c0-4.9,1.3-8.6,3.8-11.3s6.2-4,10.8-4
	s8.3,1.3,10.8,4s3.8,6.4,3.8,11.3v5.9c0,4.8-1.2,8.6-3.8,11.3S483.6,315.4,478.9,315.4z M478.9,308.8c2.1,0.1,4.2-0.8,5.7-2.3
	c1.4-1.8,2.1-4.1,2-6.4v-5.9c0.1-2.3-0.6-4.6-2-6.4c-1.5-1.5-3.6-2.4-5.7-2.3c-2.1-0.1-4.2,0.7-5.7,2.3c-1.3,1.5-1.9,3.6-1.9,6.4
	v5.9c0,2.7,0.6,4.9,1.9,6.4C474.7,308.1,476.8,308.9,478.9,308.8z"/>
<path class="st1" d="M503.4,329.3v-49.9h7v49.9H503.4z M519.3,315.4c-2.1,0.1-4.1-0.5-5.8-1.6c-1.7-1.1-2.9-2.6-3.6-4.5l0.5-7.4
	c-0.1,1.3,0.2,2.7,0.8,3.9c0.5,1.1,1.3,2,2.4,2.5c1.2,0.5,2.4,0.8,3.7,0.8c2,0.1,4-0.7,5.4-2.1c1.3-1.7,2-3.8,1.9-5.9v-7.7
	c0.1-2.2-0.6-4.3-1.9-6.1c-1.4-1.4-3.4-2.2-5.4-2.1c-1.3,0-2.5,0.3-3.7,0.8c-1,0.5-1.9,1.4-2.4,2.4c-0.6,1.2-0.9,2.5-0.8,3.8
	l-0.8-6.8c1-1.9,2.4-3.6,4.2-4.8c1.7-1.1,3.7-1.7,5.8-1.7c3.8,0,6.8,1.3,8.8,3.8s3.2,6.1,3.2,10.7v7.7c0,4.5-1.1,8.1-3.3,10.6
	S523.2,315.4,519.3,315.4z"/>
<path class="st1" d="M553.3,314.9v-35.5h7v35.5H553.3z M574.8,314.9v-21.5c0.1-2.1-0.5-4.2-1.9-5.8c-1.5-1.5-3.5-2.2-5.5-2.1
	c-1.9-0.1-3.8,0.5-5.3,1.8c-1.3,1.4-1.9,3.2-1.8,5.1l-0.8-6.8c1-2,2.5-3.7,4.3-5c1.8-1.1,3.8-1.7,5.9-1.7c3.4-0.2,6.7,1.2,8.9,3.8
	c2.1,2.5,3.2,6.1,3.2,10.7v21.5H574.8z"/>
<path class="st1" d="M605.9,315.4c-4.6,0-8.2-1.4-10.8-4.1s-3.8-6.5-3.8-11.4v-5.7c0-4.9,1.3-8.6,3.8-11.3s6.2-4,10.8-4
	s8.3,1.3,10.8,4s3.9,6.4,3.9,11.3v5.9c0,4.8-1.3,8.6-3.9,11.3S610.6,315.4,605.9,315.4z M605.9,308.8c2.1,0.1,4.2-0.8,5.7-2.3
	c1.4-1.8,2.1-4.1,2-6.4v-5.9c0.1-2.3-0.6-4.6-2-6.4c-1.5-1.5-3.6-2.4-5.7-2.3c-2.1-0.1-4.2,0.7-5.7,2.3c-1.3,1.5-1.9,3.6-1.9,6.4
	v5.9c0,2.7,0.6,4.9,1.9,6.4C601.7,308.1,603.8,308.9,605.9,308.8z"/>
<path class="st1" d="M641.6,315.5c-3.9,0-6.9-1.3-9-3.8s-3.2-6-3.2-10.6v-7.8c0-4.7,1-8.2,3.1-10.7c3.8-4.1,9.8-5,14.6-2.2
	c1.7,1.2,3.2,2.8,4.2,4.6l-0.7,7.3c0-1.4-0.3-2.7-0.9-3.9c-0.5-1-1.3-1.8-2.3-2.4c-1.2-0.6-2.5-0.9-3.8-0.9c-2-0.1-4,0.7-5.4,2.2
	c-1.3,1.7-2,3.9-1.9,6.1v7.7c-0.1,2.1,0.6,4.2,1.9,5.9c1.4,1.4,3.4,2.2,5.4,2.1c1.3,0.1,2.6-0.2,3.8-0.8c1-0.6,1.8-1.4,2.3-2.5
	c0.6-1.2,0.9-2.6,0.9-4l0.4,7.5c-0.7,1.7-1.8,3.2-3.3,4.3C646,314.9,643.8,315.6,641.6,315.5z M650.6,314.9v-49.7h6.9v49.7
	L650.6,314.9z"/>
<path class="st1" d="M683.3,315.4c-5,0-8.8-1.4-11.5-4.1s-4.1-6.7-4.1-11.8v-4c0-5.3,1.3-9.4,3.9-12.3c2.6-2.9,6.3-4.3,11.1-4.3
	s7.9,1.6,10.3,4.9s3.7,7.9,3.7,13.8v2.3h-23.9v-5.6h17.3c-0.1-2.4-0.9-4.8-2.3-6.7c-1.2-1.6-3.1-2.4-5.1-2.4
	c-2.4-0.2-4.7,0.8-6.2,2.6c-1.6,2.1-2.3,4.7-2.2,7.3v4.5c0,3,0.8,5.2,2.4,6.8s3.7,2.4,6.6,2.4c3,0,5.8-1.2,7.9-3.3l4.6,4.6
	c-1.7,1.7-3.7,3-5.9,3.9C687.8,314.9,685.6,315.4,683.3,315.4z"/>
<path class="st1" d="M732.4,315.4c-4.9,0-8.6-1.3-11.3-4s-4-6.5-4-11.4v-5.9c0-4.8,1.3-8.6,4-11.2s6.4-4,11.3-4
	c2.6,0,5.1,0.5,7.5,1.5c2.1,0.9,4,2.4,5.4,4.2l-5.1,4.5c-1.9-2.3-4.7-3.7-7.7-3.6c-2.3-0.2-4.6,0.7-6.2,2.3c-1.6,1.7-2.4,4-2.3,6.3
	v5.9c0,2.9,0.8,5.2,2.3,6.7c1.6,1.7,3.9,2.6,6.2,2.4c3,0,5.9-1.4,7.7-3.8l5.1,4.5c-1.4,1.8-3.3,3.2-5.4,4.1
	C737.5,314.9,735,315.4,732.4,315.4z"/>
<path class="st1" d="M752,314.9v-49.7h7v49.7L752,314.9z M773.6,314.9v-21.6c0.1-2.1-0.6-4.2-2-5.8c-3-2.7-7.5-2.8-10.7-0.3
	c-1.3,1.3-2,3.1-1.9,5l-0.7-6.8c1-2,2.5-3.7,4.3-4.9c1.7-1.1,3.7-1.7,5.8-1.7c3.9,0,6.9,1.3,9,3.8s3.1,6,3.1,10.7v21.6L773.6,314.9z
	"/>
<path class="st1" d="M802.4,315.4c-4.3,0-7.6-0.9-9.8-2.7s-3.2-4.6-3.2-8.3s0.9-6.1,2.9-7.9s5-2.6,9-2.6h10.1l0.5,5.6h-10.5
	c-1.5-0.1-2.9,0.3-4.1,1.2c-1,1-1.5,2.3-1.4,3.7c-0.2,1.6,0.5,3.1,1.8,4c1.2,0.9,3,1.3,5.5,1.3c2,0.1,4-0.2,5.9-0.8
	c1.2-0.4,2-1.5,2-2.7l0.7,5c-0.6,0.9-1.4,1.8-2.3,2.4c-0.9,0.6-2,1.1-3.1,1.3C805.1,315.2,803.7,315.4,802.4,315.4z M811.1,314.9
	v-22.5c0.1-2-0.6-3.9-1.9-5.4c-1.4-1.4-3.3-2.1-5.3-2c-2.8,0-5.5,0.9-7.7,2.5l-5.1-3.5c1.4-1.7,3.2-3,5.3-3.8
	c2.3-0.9,4.8-1.3,7.3-1.3c4.5,0,7.9,1.1,10.4,3.4s3.6,5.6,3.6,9.8v22.8H811.1z"/>
<path class="st1" d="M828.2,272.2v-7h7v7H828.2z M828.2,314.9v-35.5h7v35.5L828.2,314.9z"/>
<path class="st1" d="M845.7,314.9v-35.5h7v35.5H845.7z M867.3,314.9v-21.5c0.1-2.1-0.6-4.2-2-5.8c-1.4-1.4-3.4-2.2-5.4-2.1
	c-1.9-0.1-3.8,0.5-5.3,1.8c-1.3,1.3-2,3.2-1.9,5.1l-0.7-6.8c1-2,2.5-3.7,4.3-5c4.8-2.9,11-2,14.8,2.1c2.1,2.5,3.2,6.1,3.2,10.7v21.5
	L867.3,314.9z"/>
<path class="st1" d="M911,315.4c-4.9,0-8.7-1.3-11.3-4s-4.1-6.5-4.1-11.4v-5.9c0-4.8,1.4-8.6,4.1-11.2s6.4-4,11.3-4
	c2.6,0,5.1,0.5,7.5,1.5c2.1,0.9,3.9,2.4,5.3,4.2l-5,4.5c-1.9-2.3-4.7-3.6-7.7-3.6c-2.3-0.1-4.6,0.7-6.3,2.3c-1.5,1.7-2.3,4-2.2,6.3
	v5.9c-0.1,2.4,0.6,4.8,2.2,6.7c1.7,1.7,4,2.5,6.3,2.4c3,0,5.9-1.4,7.7-3.8l5,4.5c-1.3,1.8-3.2,3.3-5.3,4.1
	C916.1,314.9,913.6,315.4,911,315.4z"/>
<path class="st1" d="M930.6,314.9v-35.5h7v35.5H930.6z M950.1,287.8c-1.4-1.6-3.4-2.4-5.5-2.3c-1.9-0.1-3.8,0.5-5.2,1.9
	c-1.3,1.4-1.9,3.2-1.8,5l-0.7-6.8c0.9-2,2.4-3.7,4.2-4.9c1.7-1.2,3.7-1.8,5.7-1.8c2.9-0.2,5.7,0.9,7.9,2.8L950.1,287.8z"/>
<path class="st1" d="M973.9,315.4c-4.9,0-8.8-1.4-11.5-4.1s-4-6.7-4-11.8v-4c0-5.3,1.3-9.4,3.9-12.3c2.6-2.9,6.3-4.3,11-4.3
	s7.9,1.6,10.4,4.9s3.6,7.9,3.6,13.8v2.3h-23.9v-5.6h17.3c0-2.4-0.8-4.7-2.2-6.7c-1.2-1.6-3.2-2.5-5.2-2.4c-2.3-0.2-4.6,0.8-6.1,2.6
	c-1.5,1.7-2.2,4.2-2.2,7.3v4.5c-0.2,2.5,0.7,4.9,2.3,6.8c1.8,1.7,4.2,2.5,6.6,2.4c3,0,5.8-1.2,7.9-3.3l4.6,4.6
	c-1.7,1.7-3.7,3-5.9,3.9C978.4,314.9,976.2,315.4,973.9,315.4z"/>
<path class="st1" d="M1008.2,315.4c-4.4,0-7.6-0.9-9.8-2.7s-3.3-4.6-3.3-8.3s1-6.1,3-7.9s5-2.6,9-2.6h10.1l0.5,5.6h-10.6
	c-1.4-0.1-2.9,0.3-4,1.2c-1,1-1.5,2.3-1.4,3.7c-0.2,1.6,0.5,3.1,1.8,4c1.2,0.9,3,1.3,5.4,1.3c2,0.1,4.1-0.2,6-0.8
	c1.2-0.4,2-1.5,2-2.7l0.7,5c-0.6,0.9-1.4,1.8-2.3,2.4c-1,0.6-2,1-3.1,1.3C1010.9,315.2,1009.5,315.4,1008.2,315.4z M1016.9,314.9
	v-22.5c0.1-2-0.6-3.9-1.9-5.4c-1.4-1.4-3.3-2.1-5.3-2c-2.8,0-5.5,0.9-7.7,2.5l-5.1-3.5c1.4-1.7,3.2-3,5.3-3.8
	c2.3-0.9,4.8-1.4,7.3-1.3c4.5,0,7.9,1.1,10.4,3.4s3.6,5.6,3.6,9.8v22.8H1016.9z"/>
<path class="st1" d="M1031.3,285.7v-6.3h16v6.3H1031.3z M1043.3,314.9c-3,0-5.1-0.8-6.4-2.4s-1.9-4-1.9-7v-36.4h6.9v36.5
	c0,0.7,0.1,1.3,0.5,1.9c0.3,0.5,0.9,0.8,1.5,0.8h3.4v6.6L1043.3,314.9z"/>
<path class="st1" d="M1056.8,272.2v-7h7v7H1056.8z M1056.8,314.9v-35.5h7v35.5L1056.8,314.9z"/>
<path class="st1" d="M1087.9,315.4c-4.7,0-8.3-1.4-10.8-4.1s-3.8-6.5-3.8-11.4v-5.7c0-4.9,1.2-8.6,3.8-11.3s6.1-4,10.8-4
	s8.2,1.3,10.8,4s3.8,6.4,3.8,11.3v5.9c0,4.8-1.2,8.6-3.8,11.3S1092.5,315.4,1087.9,315.4z M1087.9,308.8c2.1,0.1,4.2-0.7,5.6-2.3
	c1.5-1.8,2.2-4.1,2.1-6.4v-5.9c0.2-2.3-0.6-4.6-2.1-6.4c-1.4-1.6-3.5-2.4-5.6-2.3c-2.1-0.1-4.2,0.7-5.7,2.3c-1.4,1.8-2.1,4.1-2,6.4
	v5.9c-0.1,2.3,0.6,4.6,2,6.4C1083.7,308.1,1085.8,308.9,1087.9,308.8z"/>
<path class="st1" d="M1112.4,314.9v-35.5h6.9v35.5H1112.4z M1133.9,314.9v-21.5c0.1-2.1-0.5-4.2-1.9-5.8c-3.1-2.7-7.6-2.8-10.8-0.3
	c-1.3,1.4-2,3.2-1.9,5.1l-0.7-6.8c1-2,2.5-3.7,4.3-5c4.8-2.9,11-2,14.8,2.1c2.1,2.5,3.2,6.1,3.2,10.7v21.5L1133.9,314.9z"/>
<g class="st2">
	<path class="st1" d="M1233.4,314.9v-35.5h7v35.5H1233.4z M1254.6,314.9v-21.5c0.1-2.1-0.5-4.2-1.9-5.8c-1.3-1.5-3.2-2.2-5.2-2.1
		c-1.9-0.1-3.8,0.5-5.3,1.8c-1.3,1.4-1.9,3.2-1.8,5.1l-0.8-6.8c1-2,2.5-3.7,4.3-5c1.8-1.1,3.8-1.7,5.9-1.7c3.3-0.1,6.5,1.3,8.7,3.8
		c2,2.5,3.1,6.1,3.1,10.7v21.5H1254.6z M1275.8,314.9v-21.5c0.1-2.1-0.6-4.2-2-5.8c-1.4-1.4-3.4-2.2-5.4-2.1c-1.9-0.1-3.8,0.6-5.1,2
		c-1.2,1.3-1.7,3.2-1.7,5.6l-1.4-6.8c0.9-2.2,2.4-4.1,4.4-5.5c1.7-1.3,3.8-1.9,6-1.9c3.9,0,6.9,1.3,9,3.8s3.1,6.1,3.1,10.7v21.5
		L1275.8,314.9z"/>
	<path class="st1" d="M1300.2,279.4V301c-0.1,2.1,0.6,4.1,1.9,5.7c2.6,3,7.2,3.3,10.2,0.6c1.6-1.4,2.5-3.4,2.4-5.5l0.4,7.4
		c-0.7,1.7-1.8,3.2-3.3,4.3c-1.8,1.3-4,2-6.3,1.9c-3.9,0-6.9-1.3-9-3.8s-3.2-6-3.2-10.6v-21.6H1300.2z M1314.7,314.9v-35.5h6.9v35.5
		H1314.7z"/>
	<path class="st1" d="M1339.1,265.2v40.4c0,0.7,0.2,1.4,0.6,1.9c0.4,0.5,1,0.8,1.6,0.8h3.2v6.6h-4.1c-2.3,0.1-4.6-0.8-6.1-2.5
		c-1.6-2-2.3-4.4-2.2-6.9v-40.3H1339.1z"/>
	<path class="st1" d="M1349.6,285.7v-6.3h16v6.3H1349.6z M1361.6,314.9c-3,0-5.1-0.8-6.4-2.4s-1.9-4-1.9-7v-36.4h6.9v36.5
		c0,0.7,0.1,1.3,0.5,1.9c0.3,0.5,0.9,0.8,1.5,0.8h3.4v6.6L1361.6,314.9z"/>
	<path class="st1" d="M1375.1,272.2v-7h7v7H1375.1z M1375.1,314.9v-35.5h7v35.5L1375.1,314.9z"/>
	<path class="st1" d="M1392.6,293.8h23v6.6h-23V293.8z"/>
	<path class="st1" d="M1441,315.4c-5,0-8.8-1.4-11.5-4.1s-4.1-6.7-4.1-11.8v-4c0-5.3,1.3-9.4,3.9-12.3c2.6-2.9,6.3-4.3,11-4.3
		s8,1.6,10.4,4.9s3.7,7.9,3.7,13.8v2.3h-23.9v-5.6h17.3c-0.1-2.4-0.9-4.7-2.3-6.7c-1.2-1.6-3.2-2.5-5.2-2.4
		c-2.3-0.1-4.6,0.8-6.1,2.6c-1.6,2.1-2.3,4.7-2.2,7.3v4.5c0,3,0.8,5.2,2.4,6.8s3.7,2.4,6.6,2.4c3,0,5.8-1.2,7.9-3.3l4.6,4.6
		c-1.7,1.7-3.8,3-6,3.9C1445.5,314.9,1443.2,315.4,1441,315.4z"/>
	<path class="st1" d="M1463.9,314.9v-35.5h7v35.5H1463.9z M1485.4,314.9v-21.5c0.1-2.1-0.5-4.2-1.9-5.8c-1.5-1.5-3.5-2.2-5.5-2.1
		c-1.9-0.1-3.8,0.5-5.3,1.8c-1.3,1.4-1.9,3.2-1.8,5.1l-0.8-6.8c1-2,2.5-3.7,4.3-5c4.8-2.9,11-2,14.8,2.1c2.1,2.5,3.2,6.1,3.2,10.7
		v21.5L1485.4,314.9z"/>
	<path class="st1" d="M1517.2,315.4c-4.8,0-8.6-1.3-11.3-4s-4-6.5-4-11.4v-5.9c0-4.8,1.3-8.6,4-11.2s6.5-4,11.3-4
		c2.6,0,5.1,0.5,7.5,1.5c2.2,0.9,4,2.3,5.4,4.2l-5,4.5c-1.9-2.3-4.8-3.6-7.8-3.6c-4.3-0.4-8.1,2.8-8.4,7.1c0,0.5,0,1,0,1.5v5.9
		c0,2.9,0.7,5.2,2.2,6.7c1.6,1.7,3.9,2.5,6.2,2.4c3.1,0,5.9-1.4,7.8-3.8l5,4.5c-1.4,1.8-3.3,3.3-5.4,4.1
		C1522.3,314.9,1519.8,315.4,1517.2,315.4z"/>
	<path class="st1" d="M1536.9,314.9v-35.5h6.9v35.5H1536.9z M1556.4,287.8c-1.4-1.6-3.5-2.4-5.6-2.3c-3.5-0.3-6.6,2.2-7,5.7
		c0,0.4,0,0.8,0,1.2l-0.7-6.8c1-1.9,2.4-3.6,4.2-4.9c1.7-1.2,3.7-1.8,5.8-1.8c2.9-0.1,5.7,0.9,7.8,2.8L1556.4,287.8z"/>
	<path class="st1" d="M1577,317.8l-14.1-38.4h7.1l10.9,30.8L1577,317.8z M1587.2,279.4h7.1l-15.1,43.8c-1,2.4-2.2,4.1-3.8,5
		c-1.9,1.1-4.2,1.6-6.4,1.5h-1.4V323h1.4c1.1,0,2.2-0.2,3.1-0.8c0.9-0.7,1.6-1.6,2-2.7L1587.2,279.4z"/>
	<path class="st1" d="M1599.4,329.3v-49.9h6.9v49.9H1599.4z M1615.3,315.4c-2.1,0.1-4.1-0.5-5.8-1.6c-1.7-1-3-2.6-3.6-4.5l0.4-7.4
		c0,1.4,0.3,2.7,0.9,3.9c0.5,1.1,1.3,1.9,2.3,2.5c1.2,0.5,2.5,0.8,3.8,0.8c2,0.1,4-0.7,5.4-2.1c1.3-1.7,2-3.8,1.9-5.9v-7.7
		c0.1-2.2-0.6-4.3-1.9-6.1c-1.4-1.4-3.4-2.2-5.4-2.1c-1.3,0-2.6,0.3-3.8,0.8c-1,0.6-1.8,1.4-2.3,2.4c-0.6,1.2-0.9,2.5-0.9,3.8
		l-0.7-6.8c1-1.9,2.4-3.6,4.2-4.8c4.7-2.9,10.9-2,14.6,2.1c2.1,2.5,3.1,6.1,3.1,10.7v7.7c0,4.5-1,8.1-3.2,10.6
		S1619.2,315.4,1615.3,315.4z"/>
	<path class="st1" d="M1634.6,285.7v-6.3h16v6.3H1634.6z M1646.6,314.9c-2.9,0-5-0.8-6.3-2.4c-1.4-2-2.1-4.5-2-7v-36.4h7v36.5
		c-0.1,0.7,0.1,1.4,0.5,1.9c0.3,0.5,0.9,0.8,1.5,0.8h3.3v6.6L1646.6,314.9z"/>
	<path class="st1" d="M1660.1,272.2v-7h7v7H1660.1z M1660.1,314.9v-35.5h7v35.5L1660.1,314.9z"/>
	<path class="st1" d="M1691.2,315.4c-4.6,0-8.2-1.4-10.8-4.1s-3.8-6.5-3.8-11.4v-5.7c0-4.9,1.3-8.6,3.8-11.3s6.2-4,10.8-4
		s8.3,1.3,10.8,4s3.9,6.4,3.9,11.3v5.9c0,4.8-1.3,8.6-3.9,11.3S1695.9,315.4,1691.2,315.4z M1691.2,308.8c2.1,0.1,4.2-0.8,5.7-2.3
		c1.4-1.8,2.1-4.1,2-6.4v-5.9c0.1-2.3-0.6-4.6-2-6.4c-1.5-1.5-3.6-2.4-5.7-2.3c-2.1-0.1-4.2,0.7-5.6,2.3c-1.4,1.5-2,3.6-2,6.4v5.9
		c0,2.7,0.6,4.9,2,6.4C1687,308.1,1689.1,308.9,1691.2,308.8z"/>
	<path class="st1" d="M1715.7,314.9v-35.5h7v35.5H1715.7z M1737.2,314.9v-21.5c0.1-2.1-0.5-4.2-1.9-5.8c-1.4-1.5-3.4-2.2-5.5-2.1
		c-1.9-0.1-3.8,0.5-5.3,1.8c-1.3,1.4-1.9,3.2-1.8,5.1l-0.7-6.8c1-2,2.5-3.7,4.3-5c1.7-1.1,3.7-1.7,5.8-1.7c3.4-0.2,6.7,1.2,9,3.8
		c2.1,2.5,3.1,6.1,3.1,10.7v21.5H1737.2z"/>
</g>
<g class="st2">
	<path class="st1" d="M81,315.4c-4.7,0-8.3-1.4-10.8-4.1s-3.8-6.5-3.8-11.4v-5.7c0-4.9,1.2-8.6,3.8-11.3s6.1-4,10.8-4
		s8.2,1.3,10.8,4s3.8,6.4,3.8,11.3v5.9c0,4.8-1.3,8.6-3.8,11.3S85.6,315.4,81,315.4z M81,308.8c2.1,0.1,4.2-0.7,5.6-2.3
		c1.4-1.5,2-3.7,2-6.4v-5.9c0-2.8-0.6-4.9-2-6.4c-1.4-1.6-3.5-2.4-5.6-2.3c-2.1-0.1-4.2,0.7-5.7,2.3c-1.4,1.8-2.1,4.1-2,6.4v5.9
		c-0.1,2.3,0.6,4.6,2,6.4C76.8,308.1,78.9,308.9,81,308.8z"/>
	<path class="st1" d="M116.7,304.7l8.6-25.3h7.3l-13.3,35.5H114l-13.3-35.5h7.3L116.7,304.7z"/>
	<path class="st1" d="M153.2,315.4c-4.9,0-8.8-1.4-11.5-4.1s-4-6.7-4-11.8v-4c0-5.3,1.3-9.4,3.9-12.3c2.6-2.9,6.3-4.3,11-4.3
		s7.9,1.6,10.4,4.9s3.6,7.9,3.6,13.8v2.3h-23.9v-5.6H160c0-2.4-0.8-4.7-2.2-6.7c-1.2-1.6-3.2-2.5-5.2-2.4c-2.3-0.2-4.6,0.8-6.1,2.6
		c-1.5,1.7-2.2,4.2-2.2,7.3v4.5c-0.2,2.5,0.7,4.9,2.3,6.8c1.8,1.7,4.2,2.5,6.6,2.4c3,0,5.8-1.2,7.9-3.3l4.6,4.6
		c-1.7,1.7-3.7,3-5.9,3.9C157.7,314.9,155.5,315.4,153.2,315.4z"/>
	<path class="st1" d="M176.1,314.9v-35.5h7v35.5H176.1z M195.7,287.8c-1.4-1.6-3.5-2.4-5.6-2.3c-3.5-0.3-6.6,2.2-7,5.7
		c0,0.4,0,0.8,0,1.2l-0.7-6.8c1-1.9,2.4-3.6,4.2-4.9c1.7-1.2,3.7-1.8,5.8-1.8c2.9-0.1,5.7,0.9,7.8,2.8L195.7,287.8z"/>
	<path class="st1" d="M218.2,304.7l8.6-25.3h7.3l-13.3,35.5h-5.2l-13.4-35.5h7.3L218.2,304.7z"/>
	<path class="st1" d="M240.9,272.2v-7h6.9v7H240.9z M240.9,314.9v-35.5h6.9v35.5L240.9,314.9z"/>
	<path class="st1" d="M273.2,315.4c-4.9,0-8.7-1.4-11.4-4.1s-4.1-6.7-4.1-11.8v-4c0-5.3,1.3-9.4,3.9-12.3c2.6-2.9,6.3-4.3,11-4.3
		s8,1.6,10.4,4.9s3.7,7.9,3.7,13.8v2.3h-23.9v-5.6H280c0-2.4-0.8-4.7-2.2-6.7c-1.2-1.6-3.2-2.5-5.2-2.4c-2.3-0.1-4.6,0.8-6.1,2.6
		c-1.6,2.1-2.3,4.7-2.2,7.3v4.5c-0.2,2.5,0.7,4.9,2.3,6.8c1.8,1.7,4.2,2.5,6.6,2.4c3,0,5.9-1.2,8-3.3l4.6,4.6c-1.7,1.7-3.8,3-6,3.9
		C277.7,314.9,275.5,315.4,273.2,315.4z"/>
	<path class="st1" d="M308.4,314.9h-5.5l-10.8-35.5h7l6.9,25.3l9.4-25.3h3.7l9.1,25.3l6.5-25.3h7.1l-10.9,35.5h-5.5l-8.4-24.4
		L308.4,314.9z"/>
</g>
<path class="st3" d="M669.5,55.7c3-0.5,6.1-0.7,9.2-0.7c6.3,0,10.7,1.5,13.7,4.2s4.7,6.7,4.7,12.1s-1.7,10-4.8,13.1
	s-8.4,4.9-14.9,4.9c-2.6,0-5.3-0.1-7.9-0.4V55.7z M673.8,85.5c1.4,0.3,2.9,0.4,4.4,0.3c9.3,0,14.4-5.2,14.4-14.3s-4.5-13-13.7-13
	c-1.7,0-3.4,0.1-5.1,0.4L673.8,85.5z"/>
<path class="st3" d="M705.3,77.7c0.1,5.9,3.9,8.4,8.3,8.4c2.3,0,4.6-0.4,6.7-1.3L721,88c-2.5,1.1-5.3,1.6-8,1.5
	c-7.5,0-11.9-4.9-11.9-12.2s4.3-13.1,11.3-13.1s10,7,10,11.4c0,0.9-0.1,1.6-0.1,2.1H705.3z M718.2,74.5c0-2.8-1.2-7.1-6.1-7.1
	s-6.4,4.1-6.8,7.1H718.2z"/>
<path class="st3" d="M745.1,88.1c-2.2,1-4.5,1.5-6.9,1.4c-7.3,0-12.1-5-12.1-12.4s5.1-12.8,13-12.8c2.1,0,4.2,0.4,6.1,1.2l-1,3.4
	c-1.6-0.8-3.3-1.2-5.1-1.1c-5.5,0-8.5,4.1-8.5,9.1s3.6,9.1,8.4,9.1c1.9,0,3.7-0.4,5.4-1.2L745.1,88.1z"/>
<path class="st3" d="M752.4,77.7c0.1,5.9,3.9,8.4,8.3,8.4c2.3,0.1,4.6-0.4,6.7-1.3l0.8,3.2c-2.6,1.1-5.3,1.6-8.1,1.5
	c-7.4,0-11.9-4.9-11.9-12.2s4.3-13.1,11.4-13.1s10,7,10,11.4c0,0.7-0.1,1.4-0.2,2.1H752.4z M765.3,74.5c0.1-2.8-1.1-7.1-6.1-7.1
	s-6.4,4.1-6.7,7.1H765.3z"/>
<path class="st3" d="M775,71.3c0-2.5,0-4.5-0.2-6.5h3.9l0.3,4h0.1c1.6-2.9,4.7-4.7,8-4.6c3.3,0,8.5,2,8.5,10.3V89h-4.4V75
	c0-3.9-1.4-7.1-5.6-7.1c-2.7,0-5.1,1.9-5.9,4.5c-0.2,0.6-0.3,1.3-0.3,2V89H775V71.3z"/>
<path class="st3" d="M807.9,57.8v7h6.3v3.3h-6.3v13.1c0,3,0.8,4.7,3.3,4.7c0.8,0,1.7-0.1,2.5-0.3l0.2,3.3c-1.2,0.5-2.6,0.7-3.9,0.6
	c-1.8,0.1-3.5-0.6-4.7-1.9c-1.3-1.3-1.7-3.4-1.7-6.3V68.1h-3.8v-3.3h3.8V59L807.9,57.8z"/>
<path class="st3" d="M819.1,72.3c0-2.8,0-5.3-0.2-7.5h3.9v4.7h0.2c0.9-3,3.6-5.1,6.7-5.3l1.3,0.2v4.1h-1.5c-3.1,0-5.3,2.3-5.9,5.6
	c-0.1,0.7-0.2,1.4-0.2,2.1V89H819L819.1,72.3z"/>
<path class="st3" d="M848.6,89l-0.3-3.1h-0.2c-1.7,2.4-4.5,3.7-7.4,3.6c-4.9,0-7.4-3.4-7.4-6.9c0-5.9,5.2-9.1,14.6-9v-0.5
	c0-2-0.6-5.6-5.5-5.6c-2.2,0-4.4,0.6-6.3,1.8l-1-2.9c2.4-1.5,5.1-2.2,7.9-2.2c7.4,0,9.2,5.1,9.2,9.9v9.1c0,1.9,0.1,3.9,0.4,5.8
	L848.6,89z M848,76.6c-4.8-0.1-10.3,0.8-10.3,5.5c-0.2,2.1,1.4,4,3.6,4.2c0.2,0,0.4,0,0.6,0c2.6,0,5-1.6,5.8-4.1
	c0.2-0.4,0.3-0.9,0.3-1.4V76.6z"/>
<path class="st3" d="M859.3,53.5h4.4V89h-4.4V53.5z"/>
<path class="st3" d="M876,58c0.1,1.4-0.9,2.6-2.3,2.7c-0.2,0-0.4,0-0.5,0c-1.4,0-2.6-1.2-2.6-2.6c0,0,0-0.1,0-0.1
	c-0.1-1.5,1.1-2.7,2.6-2.8c0,0,0.1,0,0.1,0c1.4-0.1,2.6,1.1,2.7,2.5C876,57.8,876,57.9,876,58z M871.1,89V64.8h4.4V89H871.1z"/>
<path class="st3" d="M880.1,86.4L891,72.2l3.2-3.8h-13.1v-3.6h18.4v2.7l-10.8,14.1l-3.1,3.8h14.1V89h-19.6V86.4z"/>
<path class="st3" d="M906.3,77.7c0.1,5.9,3.9,8.4,8.3,8.4c2.3,0.1,4.6-0.4,6.7-1.3l0.8,3.2c-2.6,1.1-5.3,1.6-8.1,1.5
	c-7.4,0-11.9-4.9-11.9-12.2s4.3-13.1,11.4-13.1s10,7,10,11.4c0,0.7-0.1,1.4-0.2,2.1H906.3z M919.2,74.5c0.1-2.8-1.1-7.1-6.1-7.1
	s-6.4,4.1-6.7,7.1H919.2z"/>
<path class="st3" d="M949.8,53.5v29.2c0,2.2,0.1,4.7,0.2,6.3h-3.9l-0.2-4.2h-0.1c-1.6,3-4.9,4.8-8.3,4.7c-5.8,0-10.3-4.9-10.3-12.3
	s4.9-13,10.8-13c2.9-0.2,5.7,1.3,7.3,3.7h0.1V53.5H949.8z M945.4,74.6c0-0.6,0-1.2-0.2-1.8c-0.6-3-3.3-5.1-6.3-5.1
	c-4.6,0-7.3,4-7.3,9.3s2.4,9,7.2,9c3.1,0,5.8-2.2,6.4-5.3c0.2-0.6,0.2-1.3,0.2-1.9L945.4,74.6z"/>
<path class="st3" d="M967.3,83.7c2.4,1.4,5,2.2,7.8,2.2c4.4,0,7-2.4,7-5.8s-1.8-4.9-6.3-6.7s-9-4.8-9-9.5s4.4-9.2,11-9.2
	c2.6-0.1,5.1,0.5,7.4,1.7l-1.2,3.5c-2-1.1-4.2-1.6-6.4-1.6c-4.6,0-6.3,2.8-6.3,5.1s2,4.7,6.7,6.5s8.6,4.9,8.6,9.9s-3.9,9.7-11.8,9.7
	c-3,0-5.9-0.7-8.6-2.1L967.3,83.7z"/>
<path class="st3" d="M995.1,77.7c0.1,5.9,3.9,8.4,8.3,8.4c2.3,0.1,4.6-0.4,6.7-1.3l0.8,3.2c-2.6,1.1-5.3,1.6-8.1,1.5
	c-7.5,0-11.9-4.9-11.9-12.2s4.3-13.1,11.4-13.1s10,7,10,11.4c0,0.7-0.1,1.4-0.2,2.1H995.1z M1008,74.5c0-2.8-1.1-7.1-6.1-7.1
	s-6.4,4.1-6.8,7.1H1008z"/>
<path class="st3" d="M1017.7,72.3c0-2.8-0.1-5.3-0.2-7.5h3.8l0.2,4.7h0.2c1.1-3.2,3.7-5.3,6.7-5.3l1.2,0.2v4.1h-1.5
	c-3.1,0-5.3,2.3-5.9,5.6c-0.1,0.7-0.2,1.4-0.2,2.1V89h-4.3L1017.7,72.3z"/>
<path class="st3" d="M1037,64.8l4.7,13.6c0.8,2,1.4,4.1,2,6.2h0.1c0.6-2,1.3-4,2.1-6.2l4.7-13.6h4.6l-9.5,24.2h-4.2l-9.2-24.2H1037z
	"/>
<path class="st3" d="M1064.2,58c0.1,1.4-0.9,2.6-2.3,2.7c-0.2,0-0.4,0-0.5,0c-1.4,0-2.6-1.2-2.6-2.6c0,0,0-0.1,0-0.1
	c-0.1-1.5,1.1-2.7,2.6-2.8c0,0,0.1,0,0.1,0c1.4-0.1,2.6,1.1,2.7,2.5C1064.2,57.8,1064.2,57.9,1064.2,58z M1059.3,89V64.8h4.4V89
	H1059.3z"/>
<path class="st3" d="M1088.3,88.1c-2.2,1-4.6,1.4-7,1.4c-7.3,0-12-5-12-12.4s5.1-12.8,13-12.8c2.1,0,4.2,0.4,6.1,1.2l-1,3.4
	c-1.6-0.8-3.3-1.2-5.1-1.1c-5.6,0-8.6,4.1-8.6,9.1s3.6,9.1,8.4,9.1c1.9,0,3.7-0.4,5.4-1.2L1088.3,88.1z"/>
<path class="st3" d="M1095.6,77.7c0.1,5.9,3.9,8.4,8.3,8.4c2.3,0,4.6-0.4,6.7-1.3l0.7,3.2c-2.5,1.1-5.3,1.6-8,1.5
	c-7.5,0-11.9-4.9-11.9-12.2s4.3-13.1,11.3-13.1s10,7,10,11.4c0,0.9-0.1,1.6-0.1,2.1H1095.6z M1108.5,74.5c0-2.8-1.2-7.1-6.1-7.1
	s-6.4,4.1-6.8,7.1H1108.5z"/>
<path class="st3" d="M1117.6,84.5c1.7,1.1,3.7,1.7,5.8,1.8c3.2,0,4.7-1.7,4.7-3.7s-1.3-3.2-4.5-4.4s-6.4-4-6.4-6.9s3.1-7.1,8.3-7.1
	c2.1,0,4.2,0.5,6,1.5l-1.1,3.2c-1.5-0.9-3.2-1.4-5-1.4c-2.6,0-4,1.5-4,3.3s1.4,2.9,4.6,4.1s6.3,3.7,6.3,7.3s-3.3,7.3-9,7.3
	c-2.4,0.1-4.7-0.5-6.8-1.6L1117.6,84.5z"/>
<path class="st3" d="M632.1,169.4v-45.2h6.3l14.5,22.9c3.1,4.7,5.8,9.6,8.1,14.7h0.1c-0.5-6-0.6-11.5-0.6-18.6v-19h5.5v45.2h-5.9
	l-14.4-22.9c-3.1-4.9-5.9-9.9-8.4-15.1h-0.2c0.3,5.7,0.5,11.1,0.5,18.6v19.3L632.1,169.4z"/>
<path class="st3" d="M705.3,152.9c0,12-8.3,17.2-16.1,17.2s-15.6-6.4-15.6-16.6s7.1-17.3,16.1-17.3S705.3,143,705.3,152.9z
	 M679.6,153.3c0,7.1,4.1,12.4,9.8,12.4s9.9-5.3,9.9-12.6c0-5.5-2.8-12.4-9.7-12.4S679.6,147.1,679.6,153.3L679.6,153.3z"/>
<path class="st3" d="M740.7,121.8V161c0,2.9,0.1,6.2,0.3,8.4h-5.3l-0.2-5.6h-0.2c-1.8,3.6-5.7,6.3-11,6.3c-7.9,0-13.9-6.6-13.9-16.4
	s6.6-17.5,14.5-17.5c5,0,8.3,2.4,9.8,5h0.1v-19.4H740.7z M734.8,150.2c0-0.8,0-1.7-0.2-2.5c-0.9-4-4.4-6.8-8.5-6.8
	c-6.1,0-9.7,5.3-9.7,12.5s3.2,12,9.5,12c4.2,0,7.8-3,8.7-7.1c0.2-0.8,0.2-1.7,0.2-2.5V150.2z"/>
<path class="st3" d="M753.8,154.3c0.1,7.9,5.2,11.2,11.1,11.2c3.1,0.1,6.2-0.5,9-1.7l1,4.3c-3.4,1.4-7.1,2.1-10.8,2
	c-10,0-15.9-6.6-15.9-16.4s5.7-17.5,15.2-17.5s13.4,9.3,13.4,15.3c0,0.9-0.1,1.9-0.2,2.8L753.8,154.3z M771.1,150
	c0.1-3.7-1.5-9.5-8.2-9.5s-8.6,5.5-9,9.5H771.1z"/>
<path class="st3" d="M804.3,124.2v45.2h-5.8v-45.2H804.3z"/>
<path class="st3" d="M815,145.7c0-3.3-0.1-6-0.3-8.7h5.2l0.4,5.3h0.1c2.2-3.8,6.3-6.2,10.7-6.1c4.5,0,11.5,2.7,11.5,13.8v19.4h-5.9
	v-18.7c0-5.2-2-9.6-7.5-9.6c-3.7,0.1-6.9,2.6-7.9,6.1c-0.3,0.9-0.4,1.8-0.4,2.7v19.5H815V145.7z"/>
<path class="st3" d="M852.8,169.4v-27.9h-4.6V137h4.6v-1.6c0-4.5,1-8.7,3.7-11.3c2.2-2,5-3,7.9-3c1.7,0,3.4,0.3,5,0.9l-0.8,4.6
	c-1.2-0.6-2.4-0.8-3.7-0.8c-5,0-6.3,4.5-6.3,9.4v1.8h7.8v4.5h-7.8v27.9H852.8z"/>
<path class="st3" d="M871.7,147.1c0-3.8,0-7.1-0.2-10.1h5.1l0.2,6.3h0.3c1.5-4.3,5-7.1,9-7.1l1.6,0.2v5.6l-2-0.2
	c-4.1,0-7.1,3.1-7.9,7.6c-0.1,0.9-0.2,1.8-0.2,2.7v17.3h-5.9L871.7,147.1z"/>
<path class="st3" d="M911.3,169.4l-0.5-4.1h-0.2c-2.3,3.1-6,4.9-9.9,4.8c-6.6,0-9.9-4.6-9.9-9.3c0-7.8,6.9-12.1,19.5-12v-0.7
	c0-2.7-0.8-7.5-7.4-7.5c-3,0-5.9,0.8-8.5,2.4l-1.3-3.9c3.2-1.9,6.9-2.9,10.7-2.9c9.9,0,12.3,6.8,12.3,13.3v12.1
	c-0.1,2.6,0.1,5.2,0.5,7.8L911.3,169.4z M910.4,152.9c-6.4-0.2-13.7,1-13.7,7.3c0,3.8,2.5,5.6,5.5,5.6c3.5,0.1,6.7-2.1,7.9-5.4
	c0.2-0.6,0.3-1.3,0.3-1.9V152.9z"/>
<path class="st3" d="M924.8,163.4c2.4,1.4,5,2.2,7.8,2.3c4.3,0,6.3-2.1,6.3-4.8s-1.7-4.4-6.1-6s-8.5-5.3-8.5-9.2s4.2-9.5,11.1-9.5
	c2.8,0,5.5,0.7,8,2l-1.5,4.3c-2-1.2-4.3-1.8-6.6-1.8c-3.5,0-5.4,2-5.4,4.4s1.9,3.9,6.1,5.5c5.7,2.1,8.6,4.9,8.6,9.8
	s-4.5,9.7-12.2,9.7c-3.2,0-6.3-0.7-9.1-2.2L924.8,163.4z"/>
<path class="st3" d="M959.2,127.7v9.3h8.5v4.5h-8.5v17.4c0,4.1,1.2,6.3,4.4,6.3c1.2,0,2.4-0.1,3.5-0.4l0.2,4.5
	c-1.7,0.6-3.4,0.8-5.2,0.8c-2.4,0.1-4.7-0.8-6.4-2.5c-1.6-1.8-2.2-4.6-2.2-8.5v-17.6h-5.1V137h5.1v-7.8L959.2,127.7z"/>
<path class="st3" d="M974.3,147.1c0-3.8-0.1-7.1-0.3-10.1h5.2l0.2,6.3h0.3c1.4-4.3,5-7.1,8.9-7.1l1.7,0.2v5.6l-2-0.2
	c-4.1,0-7.1,3.1-7.9,7.6c-0.2,0.9-0.3,1.8-0.3,2.7v17.3h-5.8L974.3,147.1z"/>
<path class="st3" d="M1023.3,160.6c0,3.3,0.1,6.3,0.3,8.8h-5.2l-0.3-5.3h-0.2c-2.2,3.8-6.3,6.1-10.7,6c-5.1,0-11.2-2.8-11.2-14.2
	V137h5.9v17.9c0,6.2,1.9,10.3,7.2,10.3c3.4,0,6.5-2.1,7.8-5.3c0.4-0.9,0.6-2,0.6-3V137h5.8L1023.3,160.6z"/>
<path class="st3" d="M1056.2,168.2c-2.9,1.3-6.1,2-9.3,1.9c-9.8,0-16.1-6.7-16.1-16.6s6.8-17.2,17.4-17.2c2.8,0,5.6,0.6,8.2,1.7
	l-1.4,4.5c-2.1-1.1-4.4-1.6-6.8-1.5c-7.4,0-11.5,5.5-11.5,12.3s4.9,12.1,11.3,12.1c2.5,0,5-0.5,7.2-1.6L1056.2,168.2z"/>
<path class="st3" d="M1071.1,127.7v9.3h8.5v4.5h-8.5v17.4c0,4.1,1.2,6.3,4.4,6.3c1.2,0,2.4-0.1,3.5-0.4l0.2,4.5
	c-1.7,0.6-3.4,0.8-5.2,0.8c-2.4,0.1-4.7-0.8-6.4-2.5c-1.6-1.8-2.2-4.6-2.2-8.5v-17.6h-5.1V137h5.1v-7.8L1071.1,127.7z"/>
<path class="st3" d="M1113.3,160.6c0,3.3,0.1,6.3,0.3,8.8h-5.2l-0.4-5.3h-0.1c-2.2,3.8-6.3,6.1-10.7,6c-5.1,0-11.2-2.8-11.2-14.2
	V137h5.9v17.9c0,6.2,1.9,10.3,7.2,10.3c3.4,0,6.5-2.1,7.8-5.3c0.3-1,0.5-2,0.5-3V137h5.9L1113.3,160.6z"/>
<path class="st3" d="M1123.1,147.1c0-3.8-0.1-7.1-0.3-10.1h5.2l0.2,6.3h0.3c1.4-4.3,5-7.1,8.9-7.1l1.7,0.2v5.6l-2-0.2
	c-4.1,0-7.1,3.1-7.9,7.6c-0.2,0.9-0.3,1.8-0.3,2.7v17.3h-5.8L1123.1,147.1z"/>
<path class="st3" d="M1147.6,154.3c0.2,7.9,5.3,11.2,11.2,11.2c3.1,0.1,6.1-0.5,8.9-1.7l1,4.3c-3.4,1.4-7.1,2.1-10.8,2
	c-9.9,0-15.9-6.6-15.9-16.4s5.8-17.5,15.2-17.5s13.4,9.3,13.4,15.3c0,0.9-0.1,1.9-0.2,2.8L1147.6,154.3z M1164.9,150
	c0.1-3.7-1.5-9.5-8.2-9.5s-8.5,5.5-9,9.5H1164.9z"/>
<line class="st4" x1="38.6" y1="363.1" x2="1765" y2="360.1"/>
</svg>
